COMMENT @(#)29	1.1  src/bos/usr/lpp/tls/fonts/Chtp412.bdf, cmdtw, bos411, 9437C411a 9/16/94 09:25:57
COMMENT
COMMENT   COMPONENT_NAME: libtw
COMMENT
COMMENT   FUNCTIONS: none
COMMENT
COMMENT   ORIGINS: 27
COMMENT
COMMENT
COMMENT   (C) COPYRIGHT International Business Machines Corp. 1994
COMMENT   All Rights Reserved
COMMENT   Licensed Materials - Property of IBM
COMMENT   US Government Users Restricted Rights - Use, duplication or
COMMENT   disclosure restricted by GSA ADP Schedule Contract with IBM Corp.
COMMENT
STARTFONT 2.1
FONT  -IBM_AIX-Sung-Medium-R-Normal--19-120-100-100-M-180-CNS11643.1992-4
SIZE 19 100 100
FONTBOUNDINGBOX 18 19 0 -1
STARTPROPERTIES 20
FONTNAME_REGISTRY "_"
FOUNDRY "IBM_AIX "
FAMILY_NAME "Sung"
WEIGHT_NAME "Medium "
SLANT "R"
SETWIDTH_NAME "Normal" 
ADD_STYLE_NAME ""
PIXEL_SIZE 19
POINT_SIZE 120
RESOLUTION_X 100
RESOLUTION_Y 100
SPACING "M"
AVERAGE_WIDTH 180
CHARSET_REGISTRY "CNS11643.1992" 
CHARSET_ENCODING "4" 
FONT_ASCENT 18
FONT_DESCENT 1
DEFAULT_CHAR 0
CAP_HEIGHT 19
COPYRIGHT "Copyright, 1992 by IBM."
ENDPROPERTIES
CHARS 7298
STARTCHAR 2121
ENCODING 8481
SWIDTH 954 0
DWIDTH 18 0
BBX 18 19 0 -1
BITMAP
000000
000c00
003c00
0f0000
080000
080000
080000
080000
080000
080000
080000
100000
100000
300000
300000
000000
400000
000000
000000
ENDCHAR
STARTCHAR 2122
ENCODING 8482
SWIDTH 954 0
DWIDTH 18 0
BBX 18 19 0 -1
BITMAP
000000
000000
000000
020000
070000
0d0000
190000
608000
00c000
004000
006000
003000
003000
000c00
000e00
000200
000000
000000
000000
ENDCHAR
STARTCHAR 2123
ENCODING 8483
SWIDTH 954 0
DWIDTH 18 0
BBX 18 19 0 -1
BITMAP
000000
000000
000000
000000
030000
010000
010000
008000
00c000
004000
004000
003000
003000
000c00
000e00
000000
000000
000000
000000
ENDCHAR
STARTCHAR 2124
ENCODING 8484
SWIDTH 954 0
DWIDTH 18 0
BBX 18 19 0 -1
BITMAP
000000
080000
0c0000
0c0000
0c0000
0c0000
0c0000
0c0000
0c0000
0c0000
0c0000
0c0000
0c0000
0c0000
0c0000
07fe00
03fc00
000000
000000
ENDCHAR
STARTCHAR 2125
ENCODING 8485
SWIDTH 954 0
DWIDTH 18 0
BBX 18 19 0 -1
BITMAP
000000
008000
00e000
00c000
018000
030000
020000
0c0000
080000
180000
0c0000
030000
018000
00c000
006000
002000
000000
000000
000000
ENDCHAR
STARTCHAR 2126
ENCODING 8486
SWIDTH 954 0
DWIDTH 18 0
BBX 18 19 0 -1
BITMAP
000000
000000
000200
030000
030000
020000
040000
0ffc00
080c00
000c00
000c00
000c00
000800
001800
001000
01b000
00e000
000000
000000
ENDCHAR
STARTCHAR 2127
ENCODING 8487
SWIDTH 954 0
DWIDTH 18 0
BBX 18 19 0 -1
BITMAP
000000
001000
001800
0c1000
081000
081000
081000
081000
081000
081000
081000
001000
001000
001000
001000
001000
001000
000000
000000
ENDCHAR
STARTCHAR 2128
ENCODING 8488
SWIDTH 954 0
DWIDTH 18 0
BBX 18 19 0 -1
BITMAP
000000
000000
004000
004000
004000
00c000
008000
01ff00
000200
000200
000200
000200
000200
000200
000600
000c00
00fc00
000000
000000
ENDCHAR
STARTCHAR 2129
ENCODING 8489
SWIDTH 954 0
DWIDTH 18 0
BBX 18 19 0 -1
BITMAP
000000
000000
083000
0c3000
0c3000
0c3000
0c3000
0c3000
0c3000
0c3000
0c3000
083000
083000
103000
103000
201f00
400000
000000
000000
ENDCHAR
STARTCHAR 212a
ENCODING 8490
SWIDTH 954 0
DWIDTH 18 0
BBX 18 19 0 -1
BITMAP
000000
002000
003000
043000
063000
043000
043000
043000
043000
043000
043000
043000
043000
003000
003000
003000
03f000
000000
000000
ENDCHAR
STARTCHAR 212b
ENCODING 8491
SWIDTH 954 0
DWIDTH 18 0
BBX 18 19 0 -1
BITMAP
000000
000000
200800
300800
300800
300800
300800
300800
300800
31f000
303000
300000
300200
300200
300200
3fff00
1ffe00
000000
000000
ENDCHAR
STARTCHAR 212c
ENCODING 8492
SWIDTH 954 0
DWIDTH 18 0
BBX 18 19 0 -1
BITMAP
000000
000000
000800
030c00
060c00
0c1000
0c3000
104000
30c000
208000
30c000
082000
0c3000
020800
030c00
030c00
010400
000000
000000
ENDCHAR
STARTCHAR 212d
ENCODING 8493
SWIDTH 954 0
DWIDTH 18 0
BBX 18 19 0 -1
BITMAP
000000
000000
200400
300400
300400
300400
300400
300400
303400
300400
300400
300400
300400
300400
300400
300400
303c00
000000
000000
ENDCHAR
STARTCHAR 212e
ENCODING 8494
SWIDTH 954 0
DWIDTH 18 0
BBX 18 19 0 -1
BITMAP
000000
000000
000000
300300
200200
200200
200200
2ffa00
200200
200200
200200
200200
200200
200200
7ffe00
000000
000000
000000
000000
ENDCHAR
STARTCHAR 212f
ENCODING 8495
SWIDTH 954 0
DWIDTH 18 0
BBX 18 19 0 -1
BITMAP
000000
000000
0c0000
080000
100000
1fff00
300300
200300
400300
803300
0ff300
000300
000300
000300
000300
000600
00fc00
000000
000000
ENDCHAR
STARTCHAR 2130
ENCODING 8496
SWIDTH 954 0
DWIDTH 18 0
BBX 18 19 0 -1
BITMAP
000000
000000
003000
003000
083000
0c3000
0c3000
0c3000
0d3000
0c3100
0c3100
0c3100
0c3f00
0c0000
0c0000
0c0000
0c0000
000000
000000
ENDCHAR
STARTCHAR 2131
ENCODING 8497
SWIDTH 954 0
DWIDTH 18 0
BBX 18 19 0 -1
BITMAP
000000
000000
080800
0c0800
0c0800
0c0800
0c8800
0cc800
0c4800
0c0800
0c0800
0cf000
0c3000
0c0000
0c0000
0c0000
0c0000
000000
000000
ENDCHAR
STARTCHAR 2132
ENCODING 8498
SWIDTH 954 0
DWIDTH 18 0
BBX 18 19 0 -1
BITMAP
000000
000400
3ffe00
000c00
000800
002000
00c000
00c000
00c000
00ff00
00c000
00c000
00c000
00c000
00c000
00c000
0fc000
000000
000000
ENDCHAR
STARTCHAR 2133
ENCODING 8499
SWIDTH 954 0
DWIDTH 18 0
BBX 18 19 0 -1
BITMAP
000000
000400
3ffe00
001800
003000
00c000
00c000
00c000
00c000
03c000
0cc000
60c000
00c000
00c000
00c000
00c000
07c000
000000
000000
ENDCHAR
STARTCHAR 2134
ENCODING 8500
SWIDTH 954 0
DWIDTH 18 0
BBX 18 19 0 -1
BITMAP
000000
010000
018000
010000
010000
ffff00
014000
014000
014000
034000
034000
024000
044100
0c4100
084100
307f00
203f00
000000
000000
ENDCHAR
STARTCHAR 2135
ENCODING 8501
SWIDTH 954 0
DWIDTH 18 0
BBX 18 19 0 -1
BITMAP
000000
000000
00c000
008000
308300
208200
208200
208200
208200
7ffe00
008200
008000
008000
010000
030000
040000
080000
000000
000000
ENDCHAR
STARTCHAR 2136
ENCODING 8502
SWIDTH 954 0
DWIDTH 18 0
BBX 18 19 0 -1
BITMAP
000000
010000
018000
010000
010000
093000
091000
010c00
110c00
310000
310000
010000
010000
010000
010000
010000
010000
000000
000000
ENDCHAR
STARTCHAR 2137
ENCODING 8503
SWIDTH 954 0
DWIDTH 18 0
BBX 18 19 0 -1
BITMAP
000000
008000
00c000
00c000
00c000
7fff00
00c000
00c000
00c000
00f000
01c000
3cc000
30c000
00c000
00c000
00c000
07c000
000000
000000
ENDCHAR
STARTCHAR 2138
ENCODING 8504
SWIDTH 954 0
DWIDTH 18 0
BBX 18 19 0 -1
BITMAP
000000
002000
0c3000
036000
01c000
014000
032000
0c3000
107000
00f000
00b000
033000
023000
103000
003000
006000
07c000
000000
000000
ENDCHAR
STARTCHAR 2139
ENCODING 8505
SWIDTH 954 0
DWIDTH 18 0
BBX 18 19 0 -1
BITMAP
000000
000000
000c00
030c00
030c00
030c00
130c00
030c00
030c00
02cc00
02cc00
040c00
0c0c00
100800
301800
003300
ffff00
000000
000000
ENDCHAR
STARTCHAR 213a
ENCODING 8506
SWIDTH 954 0
DWIDTH 18 0
BBX 18 19 0 -1
BITMAP
000000
000000
00c000
00bc00
00e000
3c8000
008000
00bc00
00e000
3c8000
008800
00e000
038000
008000
008000
008000
008000
000000
000000
ENDCHAR
STARTCHAR 213b
ENCODING 8507
SWIDTH 954 0
DWIDTH 18 0
BBX 18 19 0 -1
BITMAP
000000
000000
000800
000000
000000
000000
000000
3ffe00
000000
000000
000000
1ffc00
000000
000000
000000
000300
ffff00
000000
000000
ENDCHAR
STARTCHAR 213c
ENCODING 8508
SWIDTH 954 0
DWIDTH 18 0
BBX 18 19 0 -1
BITMAP
000000
000000
008000
03c000
022000
0c1800
100c00
c08200
008000
008400
3ffe00
008000
008000
008000
008000
008000
008000
000000
000000
ENDCHAR
STARTCHAR 213d
ENCODING 8509
SWIDTH 954 0
DWIDTH 18 0
BBX 18 19 0 -1
BITMAP
000000
000000
00c000
008000
008400
308000
308000
308000
310000
3fff00
034000
024000
024100
0c4100
084100
307f00
403f00
000000
000000
ENDCHAR
STARTCHAR 213e
ENCODING 8510
SWIDTH 954 0
DWIDTH 18 0
BBX 18 19 0 -1
BITMAP
000000
000000
000200
200200
200200
201200
2ffa00
200200
200200
200200
201200
200200
200200
200200
200200
200200
203e00
000000
000000
ENDCHAR
STARTCHAR 213f
ENCODING 8511
SWIDTH 954 0
DWIDTH 18 0
BBX 18 19 0 -1
BITMAP
000000
000000
00c000
014000
033000
040c00
0c0c00
100300
200300
018000
014000
022000
043000
080800
100c00
200300
c00200
000000
000000
ENDCHAR
STARTCHAR 2140
ENCODING 8512
SWIDTH 954 0
DWIDTH 18 0
BBX 18 19 0 -1
BITMAP
000000
000200
008300
089300
089b00
089300
089300
089300
089300
089300
089300
089300
109300
109300
308300
018300
4f0f00
000000
000000
ENDCHAR
STARTCHAR 2141
ENCODING 8513
SWIDTH 954 0
DWIDTH 18 0
BBX 18 19 0 -1
BITMAP
000000
000000
030300
333300
333300
333300
333300
333300
333300
333300
333300
332300
232300
234300
034300
5e8300
401e00
000000
000000
ENDCHAR
STARTCHAR 2142
ENCODING 8514
SWIDTH 954 0
DWIDTH 18 0
BBX 18 19 0 -1
BITMAP
000000
100000
180000
100c00
1ffc00
100000
100000
1ffc00
0ffe00
00c000
008000
008300
ffff00
008000
008000
008000
008000
000000
000000
ENDCHAR
STARTCHAR 2143
ENCODING 8515
SWIDTH 954 0
DWIDTH 18 0
BBX 18 19 0 -1
BITMAP
000000
000000
424200
424200
424200
424200
424200
424200
424200
5e5e00
444400
404000
404100
404100
424100
707f00
203f00
000000
000000
ENDCHAR
STARTCHAR 2144
ENCODING 8516
SWIDTH 954 0
DWIDTH 18 0
BBX 18 19 0 -1
BITMAP
000000
080000
0c0000
0ff800
081000
302300
3fff00
300000
300000
300000
300000
300000
300000
200000
200000
400000
400000
000000
000000
ENDCHAR
STARTCHAR 2145
ENCODING 8517
SWIDTH 954 0
DWIDTH 18 0
BBX 18 19 0 -1
BITMAP
000000
000000
000000
0c0c00
080800
080800
080800
081000
101000
103000
343000
222300
222100
4f4f00
f3f900
000000
000000
000000
000000
ENDCHAR
STARTCHAR 2146
ENCODING 8518
SWIDTH 954 0
DWIDTH 18 0
BBX 18 19 0 -1
BITMAP
000000
004000
006000
7e4000
444000
444000
444000
444000
444000
444000
444000
444100
444100
444100
404100
007f00
003f00
000000
000000
ENDCHAR
STARTCHAR 2147
ENCODING 8519
SWIDTH 954 0
DWIDTH 18 0
BBX 18 19 0 -1
BITMAP
000000
000000
000300
000000
000000
000000
000000
3ffe00
300400
300400
300400
300400
300400
300400
3ffc00
300400
200000
000000
000000
ENDCHAR
STARTCHAR 2148
ENCODING 8520
SWIDTH 954 0
DWIDTH 18 0
BBX 18 19 0 -1
BITMAP
000000
000000
003800
03c000
1c8000
008000
008000
008000
008c00
008000
008000
008000
008000
008000
008000
7fff00
000000
000000
000000
ENDCHAR
STARTCHAR 2149
ENCODING 8521
SWIDTH 954 0
DWIDTH 18 0
BBX 18 19 0 -1
BITMAP
000000
000000
0c0000
080000
080000
1fc000
008000
008000
008000
ffff00
014000
032000
032000
041000
0c0800
100600
200300
000000
000000
ENDCHAR
STARTCHAR 214a
ENCODING 8522
SWIDTH 954 0
DWIDTH 18 0
BBX 18 19 0 -1
BITMAP
000000
004000
042000
041000
0c0000
080c00
100400
243300
c7f100
043000
043000
043000
043100
0c3100
083100
303f00
201f00
000000
000000
ENDCHAR
STARTCHAR 214b
ENCODING 8523
SWIDTH 954 0
DWIDTH 18 0
BBX 18 19 0 -1
BITMAP
000000
000000
043000
040c00
0c0c00
080300
100300
263000
c43000
043000
043000
043000
043100
0c3100
083100
303f00
201f00
000000
000000
ENDCHAR
STARTCHAR 214c
ENCODING 8524
SWIDTH 954 0
DWIDTH 18 0
BBX 18 19 0 -1
BITMAP
000000
000c00
003c00
0f8000
788000
008000
008200
208200
208200
208200
208200
208200
208200
008400
008000
008000
008000
000000
000000
ENDCHAR
STARTCHAR 214d
ENCODING 8525
SWIDTH 954 0
DWIDTH 18 0
BBX 18 19 0 -1
BITMAP
000000
000000
000400
043000
043000
043000
043000
043000
043300
043000
043000
0c3000
0c3000
083000
103000
203000
403000
000000
000000
ENDCHAR
STARTCHAR 214e
ENCODING 8526
SWIDTH 954 0
DWIDTH 18 0
BBX 18 19 0 -1
BITMAP
000000
000000
000300
008000
008000
018000
01c000
02a000
02a000
049000
0c8800
108400
308200
408100
808000
008000
008000
000000
000000
ENDCHAR
STARTCHAR 214f
ENCODING 8527
SWIDTH 954 0
DWIDTH 18 0
BBX 18 19 0 -1
BITMAP
000000
000000
200000
0bfc00
000c00
840800
440800
0c3000
083000
004000
104000
308000
f08100
210100
230100
33ff00
31ff00
000000
000000
ENDCHAR
STARTCHAR 2150
ENCODING 8528
SWIDTH 954 0
DWIDTH 18 0
BBX 18 19 0 -1
BITMAP
000000
000000
000000
000000
000000
000000
000000
000000
000000
244000
244200
222300
433300
c00000
000000
000000
000000
000000
000000
ENDCHAR
STARTCHAR 2151
ENCODING 8529
SWIDTH 954 0
DWIDTH 18 0
BBX 18 19 0 -1
BITMAP
000000
000000
000000
000c00
007c00
3c0000
000000
000000
020000
110c00
308400
20c300
60c300
000000
000000
000000
000000
000000
000000
ENDCHAR
STARTCHAR 2152
ENCODING 8530
SWIDTH 954 0
DWIDTH 18 0
BBX 18 19 0 -1
BITMAP
000000
000000
000200
200200
200200
203200
283200
222200
232200
20c200
20c200
214200
232200
243200
2c3200
200200
201e00
000000
000000
ENDCHAR
STARTCHAR 2153
ENCODING 8531
SWIDTH 954 0
DWIDTH 18 0
BBX 18 19 0 -1
BITMAP
000000
000000
000000
000000
000000
080800
080800
ff7f00
080800
080800
080800
000000
000000
000000
000000
000000
000000
000000
000000
ENDCHAR
STARTCHAR 2154
ENCODING 8532
SWIDTH 954 0
DWIDTH 18 0
BBX 18 19 0 -1
BITMAP
000000
000000
400000
300000
300000
000000
100000
100000
100000
200000
780000
080000
080000
100000
300000
ce0000
03ff00
000000
000000
ENDCHAR
STARTCHAR 2155
ENCODING 8533
SWIDTH 954 0
DWIDTH 18 0
BBX 18 19 0 -1
BITMAP
000000
000000
0c0c00
088800
088800
088800
088800
088800
088800
088800
088800
088800
088800
088800
088800
080b00
ffff00
000000
000000
ENDCHAR
STARTCHAR 2156
ENCODING 8534
SWIDTH 954 0
DWIDTH 18 0
BBX 18 19 0 -1
BITMAP
000000
101000
181800
0c3000
043000
122c00
234200
01c000
008000
008000
008000
008000
008000
008000
008000
008000
008000
000000
000000
ENDCHAR
STARTCHAR 2157
ENCODING 8535
SWIDTH 954 0
DWIDTH 18 0
BBX 18 19 0 -1
BITMAP
000000
000000
0c0000
080400
1ffe00
300000
20c000
588c00
10fc00
f08c00
108c00
108000
109200
100200
100200
1fff00
0ffe00
000000
000000
ENDCHAR
STARTCHAR 2158
ENCODING 8536
SWIDTH 954 0
DWIDTH 18 0
BBX 18 19 0 -1
BITMAP
000000
103000
181000
13ff00
330000
230000
330000
730000
b30000
330000
330000
330000
330000
320000
320000
340000
340000
000000
000000
ENDCHAR
STARTCHAR 2159
ENCODING 8537
SWIDTH 954 0
DWIDTH 18 0
BBX 18 19 0 -1
BITMAP
000000
080000
0c0000
090200
09ff00
110200
310200
310200
110200
910200
110200
110200
110200
110200
110200
110000
110000
000000
000000
ENDCHAR
STARTCHAR 215a
ENCODING 8538
SWIDTH 954 0
DWIDTH 18 0
BBX 18 19 0 -1
BITMAP
000000
000000
0cc000
088000
100300
110300
330300
300300
508300
904300
100300
102300
100300
100300
100300
100600
107c00
000000
000000
ENDCHAR
STARTCHAR 215b
ENCODING 8539
SWIDTH 954 0
DWIDTH 18 0
BBX 18 19 0 -1
BITMAP
000000
100000
180c00
107000
33c000
304000
204000
704000
704300
304000
304000
304000
304000
304100
304100
307f00
303f00
000000
000000
ENDCHAR
STARTCHAR 215c
ENCODING 8540
SWIDTH 954 0
DWIDTH 18 0
BBX 18 19 0 -1
BITMAP
000000
010000
018000
010800
01fc00
010000
010000
010300
ffff00
040000
063000
042000
042100
0c2100
082100
303f00
403f00
000000
000000
ENDCHAR
STARTCHAR 215d
ENCODING 8541
SWIDTH 954 0
DWIDTH 18 0
BBX 18 19 0 -1
BITMAP
000000
000200
7fff00
000000
100c00
100c00
100c00
102c00
17fc00
100c00
100c00
ffff00
100c00
100c00
100c00
100c00
103c00
000000
000000
ENDCHAR
STARTCHAR 215e
ENCODING 8542
SWIDTH 954 0
DWIDTH 18 0
BBX 18 19 0 -1
BITMAP
000000
010000
018000
010300
ffff00
022000
043000
080c00
120700
c0c000
00c000
000000
000000
002000
00c000
0e0000
0c0000
000000
000000
ENDCHAR
STARTCHAR 215f
ENCODING 8543
SWIDTH 954 0
DWIDTH 18 0
BBX 18 19 0 -1
BITMAP
000000
000000
200400
300400
300400
308400
308400
36b400
34b400
34b400
34b400
34b400
34b400
24b400
0ff200
400300
800100
000000
000000
ENDCHAR
STARTCHAR 2160
ENCODING 8544
SWIDTH 954 0
DWIDTH 18 0
BBX 18 19 0 -1
BITMAP
000000
000000
000000
308300
208200
208200
20b200
208200
208200
208200
208200
208200
209200
200200
200200
7ffe00
000200
000000
000000
ENDCHAR
STARTCHAR 2161
ENCODING 8545
SWIDTH 954 0
DWIDTH 18 0
BBX 18 19 0 -1
BITMAP
000000
000000
000300
030200
7f3200
0c2200
0c2200
0c2200
0c2200
0c2200
0c2200
0c2200
0c2200
f80200
600200
000200
001e00
000000
000000
ENDCHAR
STARTCHAR 2162
ENCODING 8546
SWIDTH 954 0
DWIDTH 18 0
BBX 18 19 0 -1
BITMAP
000000
000400
010600
320400
323400
322400
322400
322400
322400
322400
322400
320400
320500
220d00
220100
43ff00
43ff00
000000
000000
ENDCHAR
STARTCHAR 2163
ENCODING 8547
SWIDTH 954 0
DWIDTH 18 0
BBX 18 19 0 -1
BITMAP
000000
201000
301800
311000
3f9000
407f00
401300
3f1300
031300
041300
0c1300
113300
313300
412300
412300
3f4300
009e00
000000
000000
ENDCHAR
STARTCHAR 2164
ENCODING 8548
SWIDTH 954 0
DWIDTH 18 0
BBX 18 19 0 -1
BITMAP
000000
002000
023000
783000
083000
08ff00
083300
0b3300
ff3300
083300
083300
082300
082300
084300
084300
088300
091e00
000000
000000
ENDCHAR
STARTCHAR 2165
ENCODING 8549
SWIDTH 954 0
DWIDTH 18 0
BBX 18 19 0 -1
BITMAP
000000
400200
7fff00
418000
413000
433000
433000
422000
442000
406000
40f000
410800
430c00
4c0000
500000
ffff00
400000
000000
000000
ENDCHAR
STARTCHAR 2166
ENCODING 8550
SWIDTH 954 0
DWIDTH 18 0
BBX 18 19 0 -1
BITMAP
000000
000300
3fff00
200000
200c00
204000
204000
204000
204000
2fff00
204000
004000
004000
404000
404000
804000
804000
000000
000000
ENDCHAR
STARTCHAR 2167
ENCODING 8551
SWIDTH 954 0
DWIDTH 18 0
BBX 18 19 0 -1
BITMAP
000000
000300
3fff00
201000
203800
278000
208000
208000
208000
2fff00
208000
208000
208000
408200
408200
80ff00
80fe00
000000
000000
ENDCHAR
STARTCHAR 2168
ENCODING 8552
SWIDTH 954 0
DWIDTH 18 0
BBX 18 19 0 -1
BITMAP
000000
000000
20c400
308400
308400
308400
3ffc00
008000
008800
0c0800
041000
032000
014000
01c000
036000
0c1c00
300f00
000000
000000
ENDCHAR
STARTCHAR 2169
ENCODING 8553
SWIDTH 954 0
DWIDTH 18 0
BBX 18 19 0 -1
BITMAP
000000
000000
00c000
008800
1ffc00
008800
008800
ffff00
008000
009000
1ff800
003000
022000
01c000
036000
0c0c00
300700
000000
000000
ENDCHAR
STARTCHAR 216a
ENCODING 8554
SWIDTH 954 0
DWIDTH 18 0
BBX 18 19 0 -1
BITMAP
000000
000000
00cc00
7c8800
4c8800
4c8800
4c8800
4c8800
4c8800
4c8800
4c8800
4c8900
4c8900
490900
410900
020f00
000f00
000000
000000
ENDCHAR
STARTCHAR 216b
ENCODING 8555
SWIDTH 954 0
DWIDTH 18 0
BBX 18 19 0 -1
BITMAP
000000
008000
044000
0c3000
0c1000
100c00
300600
c00200
000000
0ffc00
080800
080800
080800
080800
080800
0ff800
080000
000000
000000
ENDCHAR
STARTCHAR 216c
ENCODING 8556
SWIDTH 954 0
DWIDTH 18 0
BBX 18 19 0 -1
BITMAP
000000
100c00
1ffc00
100c00
100c00
100c00
1ffc00
100000
000000
7ffe00
030400
030400
020400
040400
0c0400
100c00
20fc00
000000
000000
ENDCHAR
STARTCHAR 216d
ENCODING 8557
SWIDTH 954 0
DWIDTH 18 0
BBX 18 19 0 -1
BITMAP
000000
000000
000200
200200
200200
208200
208200
210200
210200
232200
223200
24f200
2f9200
200200
200200
3ffe00
200000
000000
000000
ENDCHAR
STARTCHAR 216e
ENCODING 8558
SWIDTH 954 0
DWIDTH 18 0
BBX 18 19 0 -1
BITMAP
000000
000000
000200
200200
230200
208200
208200
20c200
214200
210200
232200
223200
241200
200200
200200
3ffe00
200000
000000
000000
ENDCHAR
STARTCHAR 216f
ENCODING 8559
SWIDTH 954 0
DWIDTH 18 0
BBX 18 19 0 -1
BITMAP
000000
000000
000200
200200
200200
200200
204200
204200
204200
204200
204200
3fc200
204200
200200
200200
3ffe00
200200
000000
000000
ENDCHAR
STARTCHAR 2170
ENCODING 8560
SWIDTH 954 0
DWIDTH 18 0
BBX 18 19 0 -1
BITMAP
000000
000000
00c000
008000
008400
008000
008000
008000
008300
022000
022000
022100
042100
0c2100
082100
303f00
203f00
000000
000000
ENDCHAR
STARTCHAR 2171
ENCODING 8561
SWIDTH 954 0
DWIDTH 18 0
BBX 18 19 0 -1
BITMAP
000000
000000
200300
300000
300000
302000
302000
302000
302200
302000
302000
302000
302000
202000
202000
4fff00
400000
000000
000000
ENDCHAR
STARTCHAR 2172
ENCODING 8562
SWIDTH 954 0
DWIDTH 18 0
BBX 18 19 0 -1
BITMAP
000000
000000
00c000
008000
008300
014000
012000
021000
040800
100700
200200
0ff800
000000
000000
000000
000400
3ffe00
000000
000000
ENDCHAR
STARTCHAR 2173
ENCODING 8563
SWIDTH 954 0
DWIDTH 18 0
BBX 18 19 0 -1
BITMAP
000000
000000
0c0000
080000
100200
30c000
20c000
40c000
00c000
08c800
0cc400
08c200
08c200
10c300
20c300
00c000
03c000
000000
000000
ENDCHAR
STARTCHAR 2174
ENCODING 8564
SWIDTH 954 0
DWIDTH 18 0
BBX 18 19 0 -1
BITMAP
000000
200200
3fff00
300200
300200
3ffe00
300200
300000
300000
37fc00
300000
300000
300000
200000
000300
400000
800000
000000
000000
ENDCHAR
STARTCHAR 2175
ENCODING 8565
SWIDTH 954 0
DWIDTH 18 0
BBX 18 19 0 -1
BITMAP
000000
000000
000c00
041000
021000
1fff00
100200
100200
100200
1ffe00
100000
100000
100000
300000
200000
400000
400000
000000
000000
ENDCHAR
STARTCHAR 2176
ENCODING 8566
SWIDTH 954 0
DWIDTH 18 0
BBX 18 19 0 -1
BITMAP
000000
000000
20c400
308400
308400
200400
000000
3fff00
300000
300000
300000
300000
300000
200000
200000
000000
400000
000000
000000
ENDCHAR
STARTCHAR 2177
ENCODING 8567
SWIDTH 954 0
DWIDTH 18 0
BBX 18 19 0 -1
BITMAP
000000
100000
188c00
10cc00
90cc00
d0cc00
d0cc00
d0cc00
d0cc00
d0cc00
d0cc00
d0cc00
d0cd00
d0cd00
dc8d00
110f00
130700
000000
000000
ENDCHAR
STARTCHAR 2178
ENCODING 8568
SWIDTH 954 0
DWIDTH 18 0
BBX 18 19 0 -1
BITMAP
000000
000000
100c00
0c1000
041000
3ffe00
008000
008000
008000
008300
ffff00
008000
008000
008000
008000
008000
008000
000000
000000
ENDCHAR
STARTCHAR 2179
ENCODING 8569
SWIDTH 954 0
DWIDTH 18 0
BBX 18 19 0 -1
BITMAP
000000
100000
180200
308200
308200
008200
4c8200
108200
108200
38be00
308c00
908000
108000
108100
108100
10ff00
10ff00
000000
000000
ENDCHAR
STARTCHAR 217a
ENCODING 8570
SWIDTH 954 0
DWIDTH 18 0
BBX 18 19 0 -1
BITMAP
000000
100000
180200
108300
108300
108300
108300
108300
108300
1e8300
f08300
108300
108300
108300
108300
11ff00
f00300
000000
000000
ENDCHAR
STARTCHAR 217b
ENCODING 8571
SWIDTH 954 0
DWIDTH 18 0
BBX 18 19 0 -1
BITMAP
000000
100000
180300
10c200
10c200
10c200
10c200
10c200
10c200
1ec200
f0c200
10fe00
108200
100200
100200
100200
f00200
000000
000000
ENDCHAR
STARTCHAR 217c
ENCODING 8572
SWIDTH 954 0
DWIDTH 18 0
BBX 18 19 0 -1
BITMAP
000000
000000
200400
300400
300400
300400
3ffc00
308400
308400
3ffc00
308400
008000
008000
008000
008000
008000
008000
000000
000000
ENDCHAR
STARTCHAR 217d
ENCODING 8573
SWIDTH 954 0
DWIDTH 18 0
BBX 18 19 0 -1
BITMAP
000000
000000
20c400
308400
308400
308400
3ffc00
018000
01c000
028000
02a000
049000
0c8800
108600
308300
c08000
008000
000000
000000
ENDCHAR
STARTCHAR 217e
ENCODING 8574
SWIDTH 954 0
DWIDTH 18 0
BBX 18 19 0 -1
BITMAP
000000
000c00
003c00
008000
008000
008000
008000
ffff00
018000
038000
02b000
0c8800
088c00
308300
208200
008000
008000
000000
000000
ENDCHAR
STARTCHAR 2221
ENCODING 8737
SWIDTH 954 0
DWIDTH 18 0
BBX 18 19 0 -1
BITMAP
000000
000000
000000
3fff00
222200
222200
222200
222200
222200
222200
222200
222200
222200
222200
3ffe00
000000
000000
000000
000000
ENDCHAR
STARTCHAR 2222
ENCODING 8738
SWIDTH 954 0
DWIDTH 18 0
BBX 18 19 0 -1
BITMAP
000000
480000
7c0c00
488c00
488c00
508c00
608c00
488c00
488c00
4c8c00
4c8c00
4c8c00
4d0d00
530d00
430d00
440f00
4c0700
000000
000000
ENDCHAR
STARTCHAR 2223
ENCODING 8739
SWIDTH 954 0
DWIDTH 18 0
BBX 18 19 0 -1
BITMAP
000000
888000
fcc000
c8c000
c8c000
d3fc00
e0cc00
d0cc00
c8cc00
cccc00
cccc00
cc8c00
cc8d00
d10d00
c30d00
c40f00
cc0700
000000
000000
ENDCHAR
STARTCHAR 2224
ENCODING 8740
SWIDTH 954 0
DWIDTH 18 0
BBX 18 19 0 -1
BITMAP
000000
000000
000300
008000
008000
008200
3fff00
208200
214200
233200
221200
2c0a00
300a00
200200
200200
3ffe00
200000
000000
000000
ENDCHAR
STARTCHAR 2225
ENCODING 8741
SWIDTH 954 0
DWIDTH 18 0
BBX 18 19 0 -1
BITMAP
000000
003000
047800
040000
040400
040400
040400
640400
440400
440000
440300
440300
040300
0c0300
080300
100300
303e00
000000
000000
ENDCHAR
STARTCHAR 2226
ENCODING 8742
SWIDTH 954 0
DWIDTH 18 0
BBX 18 19 0 -1
BITMAP
000000
001c00
20fe00
300000
300000
323e00
33c000
334200
334300
332400
333c00
331000
330800
230400
231600
43c300
438100
000000
000000
ENDCHAR
STARTCHAR 2227
ENCODING 8743
SWIDTH 954 0
DWIDTH 18 0
BBX 18 19 0 -1
BITMAP
000000
000c00
003c00
038000
0e8000
008400
008600
0c8800
0cb000
20b000
c89000
0c8800
188c00
208300
c08200
008000
008000
000000
000000
ENDCHAR
STARTCHAR 2228
ENCODING 8744
SWIDTH 954 0
DWIDTH 18 0
BBX 18 19 0 -1
BITMAP
000000
000000
020000
020200
02ff00
043200
0c3200
08fe00
083200
103200
303200
200000
200100
400100
400100
3fff00
3fff00
000000
000000
ENDCHAR
STARTCHAR 2229
ENCODING 8745
SWIDTH 954 0
DWIDTH 18 0
BBX 18 19 0 -1
BITMAP
000000
000000
0c3000
182000
122300
322300
342200
302000
704000
307000
30f000
30b000
30b100
313100
313100
303f00
341f00
000000
000000
ENDCHAR
STARTCHAR 222a
ENCODING 8746
SWIDTH 954 0
DWIDTH 18 0
BBX 18 19 0 -1
BITMAP
000000
000000
0d0300
190000
110000
310200
317f00
312200
712200
312200
312200
312e00
312400
332100
322100
303f00
343f00
000000
000000
ENDCHAR
STARTCHAR 222b
ENCODING 8747
SWIDTH 954 0
DWIDTH 18 0
BBX 18 19 0 -1
BITMAP
000000
003000
0c1000
18c800
108c00
310400
330200
35fd00
78c000
308000
308400
300400
300400
300400
300400
300c00
30f800
000000
000000
ENDCHAR
STARTCHAR 222c
ENCODING 8748
SWIDTH 954 0
DWIDTH 18 0
BBX 18 19 0 -1
BITMAP
000000
000000
00c000
ffff00
008000
3ffe00
308400
308400
309c00
000000
00c000
014000
010000
023000
041000
100700
200200
000000
000000
ENDCHAR
STARTCHAR 222d
ENCODING 8749
SWIDTH 954 0
DWIDTH 18 0
BBX 18 19 0 -1
BITMAP
000000
000000
0c0400
088000
108000
308000
308c00
310c00
710c00
310c00
330c00
33fc00
320800
300800
300800
300b00
37ff00
000000
000000
ENDCHAR
STARTCHAR 222e
ENCODING 8750
SWIDTH 954 0
DWIDTH 18 0
BBX 18 19 0 -1
BITMAP
000000
000000
0c0200
0b0000
130000
330300
330200
332400
733400
330800
331c00
333400
332200
338000
330000
33ff00
31ff00
000000
000000
ENDCHAR
STARTCHAR 222f
ENCODING 8751
SWIDTH 954 0
DWIDTH 18 0
BBX 18 19 0 -1
BITMAP
000000
000000
0d0200
090200
110200
110200
394200
112200
513200
111200
110a00
110200
110200
110200
110200
11fe00
110000
000000
000000
ENDCHAR
STARTCHAR 2230
ENCODING 8752
SWIDTH 954 0
DWIDTH 18 0
BBX 18 19 0 -1
BITMAP
000000
000000
0c3000
082200
103f00
102000
382000
13fe00
500400
100c00
108c00
104800
105000
105000
10c800
110600
130300
000000
000000
ENDCHAR
STARTCHAR 2231
ENCODING 8753
SWIDTH 954 0
DWIDTH 18 0
BBX 18 19 0 -1
BITMAP
000000
111000
199800
111000
331000
221000
331000
771000
bb1000
333800
333800
332400
332400
334000
334200
33c300
338100
000000
000000
ENDCHAR
STARTCHAR 2232
ENCODING 8754
SWIDTH 954 0
DWIDTH 18 0
BBX 18 19 0 -1
BITMAP
000000
040000
063000
042000
442200
442200
442200
442200
442200
442200
442000
042000
0c2100
082100
082100
303f00
203f00
000000
000000
ENDCHAR
STARTCHAR 2233
ENCODING 8755
SWIDTH 954 0
DWIDTH 18 0
BBX 18 19 0 -1
BITMAP
000000
000c00
0ffc00
080000
080000
0ffc00
080000
080000
080300
000000
040000
042000
042000
0c2100
0c2100
103f00
203f00
000000
000000
ENDCHAR
STARTCHAR 2234
ENCODING 8756
SWIDTH 954 0
DWIDTH 18 0
BBX 18 19 0 -1
BITMAP
000000
00c000
082000
0c1000
080800
300600
201300
010000
010000
010000
010300
030000
034000
040800
0c0c00
100300
200300
000000
000000
ENDCHAR
STARTCHAR 2235
ENCODING 8757
SWIDTH 954 0
DWIDTH 18 0
BBX 18 19 0 -1
BITMAP
000000
00c000
082000
0c1000
080800
30c700
208200
008200
3fff00
208200
208200
3ffe00
208000
008000
008000
008000
008000
000000
000000
ENDCHAR
STARTCHAR 2236
ENCODING 8758
SWIDTH 954 0
DWIDTH 18 0
BBX 18 19 0 -1
BITMAP
000000
081000
0ff800
0c1000
0d1000
0d1000
0d1000
0d1000
4d1300
400300
400300
400300
400300
400300
400300
400300
400f00
000000
000000
ENDCHAR
STARTCHAR 2237
ENCODING 8759
SWIDTH 954 0
DWIDTH 18 0
BBX 18 19 0 -1
BITMAP
000000
000000
000300
400300
400300
40c000
042000
041000
0c0800
118600
310300
c30000
021000
040800
0c0c00
1f8400
1c0400
000000
000000
ENDCHAR
STARTCHAR 2238
ENCODING 8760
SWIDTH 954 0
DWIDTH 18 0
BBX 18 19 0 -1
BITMAP
000000
000000
804000
203000
301000
080800
08c000
008000
008000
128300
328300
e48100
448500
2c8400
208400
20fc00
20fc00
000000
000000
ENDCHAR
STARTCHAR 2239
ENCODING 8761
SWIDTH 954 0
DWIDTH 18 0
BBX 18 19 0 -1
BITMAP
000000
080200
0c0300
0c1300
0c9b00
0c1300
0c1300
0d1300
7f9300
011300
211300
0b1300
0e1300
0e1300
0b0300
30c300
20cf00
000000
000000
ENDCHAR
STARTCHAR 223a
ENCODING 8762
SWIDTH 954 0
DWIDTH 18 0
BBX 18 19 0 -1
BITMAP
000000
080200
0c0300
0c8300
ffd300
0c1300
0c1300
7fd300
4c9300
4c9300
4c9300
4c9300
4c9300
4c9300
4f8300
0c0300
0c0f00
000000
000000
ENDCHAR
STARTCHAR 223b
ENCODING 8763
SWIDTH 954 0
DWIDTH 18 0
BBX 18 19 0 -1
BITMAP
000000
040200
120300
111300
309b00
20d300
205300
409300
bfd300
089300
089300
089300
109300
309300
308300
018300
4f0f00
000000
000000
ENDCHAR
STARTCHAR 223c
ENCODING 8764
SWIDTH 954 0
DWIDTH 18 0
BBX 18 19 0 -1
BITMAP
000000
120200
1b0300
130300
131300
7fd300
131300
131300
131300
135300
ffd300
131300
131300
331300
330300
030300
430f00
000000
000000
ENDCHAR
STARTCHAR 223d
ENCODING 8765
SWIDTH 954 0
DWIDTH 18 0
BBX 18 19 0 -1
BITMAP
000000
020200
430300
120300
0c2300
133300
333300
403300
813300
013300
213300
0b3300
0e3300
0f2300
090300
30c300
20cf00
000000
000000
ENDCHAR
STARTCHAR 223e
ENCODING 8766
SWIDTH 954 0
DWIDTH 18 0
BBX 18 19 0 -1
BITMAP
000000
080200
0c0300
0d0300
0f9300
0c1300
0c1300
7fd300
0c1300
0c1300
0cd300
0c1300
0c1300
081300
100300
200300
400f00
000000
000000
ENDCHAR
STARTCHAR 223f
ENCODING 8767
SWIDTH 954 0
DWIDTH 18 0
BBX 18 19 0 -1
BITMAP
000000
101000
081800
091000
ff9000
00ff00
221300
321300
321300
321300
321300
323300
323300
222300
232300
40c300
809e00
000000
000000
ENDCHAR
STARTCHAR 2240
ENCODING 8768
SWIDTH 954 0
DWIDTH 18 0
BBX 18 19 0 -1
BITMAP
000000
201000
301800
211000
3f9000
427f00
bf1300
031300
3f1300
021300
041300
081300
113300
212300
412300
3f4300
009e00
000000
000000
ENDCHAR
STARTCHAR 2241
ENCODING 8769
SWIDTH 954 0
DWIDTH 18 0
BBX 18 19 0 -1
BITMAP
000000
002000
063000
783000
083000
08ff00
0a3300
083300
083300
083300
0b3300
082300
082300
084300
084300
088300
793e00
000000
000000
ENDCHAR
STARTCHAR 2242
ENCODING 8770
SWIDTH 954 0
DWIDTH 18 0
BBX 18 19 0 -1
BITMAP
000000
001000
031800
381000
201000
207f00
211300
221300
221300
221300
221300
221300
223300
222300
022300
424300
429e00
000000
000000
ENDCHAR
STARTCHAR 2243
ENCODING 8771
SWIDTH 954 0
DWIDTH 18 0
BBX 18 19 0 -1
BITMAP
000000
400200
7fff00
40c000
422000
431000
420800
4cc700
498000
431000
430800
447c00
4fc400
440000
400000
ffff00
400000
000000
000000
ENDCHAR
STARTCHAR 2244
ENCODING 8772
SWIDTH 954 0
DWIDTH 18 0
BBX 18 19 0 -1
BITMAP
000000
000000
00c000
008000
008300
008000
008000
188c00
108c00
148f00
febf00
108c00
108c00
108c00
108c00
008000
008000
000000
000000
ENDCHAR
STARTCHAR 2245
ENCODING 8773
SWIDTH 954 0
DWIDTH 18 0
BBX 18 19 0 -1
BITMAP
000000
020400
0f0e00
68d000
081000
081000
081000
081000
0a1300
081000
081000
081000
081000
101000
301000
201000
401000
000000
000000
ENDCHAR
STARTCHAR 2246
ENCODING 8774
SWIDTH 954 0
DWIDTH 18 0
BBX 18 19 0 -1
BITMAP
000000
000000
432300
423300
423300
423300
423300
423300
423300
423300
423300
42bf00
42b200
4af000
73f000
003000
003000
000000
000000
ENDCHAR
STARTCHAR 2247
ENCODING 8775
SWIDTH 954 0
DWIDTH 18 0
BBX 18 19 0 -1
BITMAP
000000
000300
3fff00
204000
20f000
210800
230c00
2c0300
321200
231000
231000
231000
231000
031000
421000
441000
8c1000
000000
000000
ENDCHAR
STARTCHAR 2248
ENCODING 8776
SWIDTH 954 0
DWIDTH 18 0
BBX 18 19 0 -1
BITMAP
000000
010000
018000
030000
020000
0c0800
080c00
3f8400
1c0400
000800
0c0c00
100800
101000
203200
222300
f3f100
434100
000000
000000
ENDCHAR
STARTCHAR 2249
ENCODING 8777
SWIDTH 954 0
DWIDTH 18 0
BBX 18 19 0 -1
BITMAP
000000
000000
0c1c00
016000
00c000
061800
190c00
010000
010300
030000
024000
04c000
0cc800
108000
310200
43f300
83c300
000000
000000
ENDCHAR
STARTCHAR 224a
ENCODING 8778
SWIDTH 954 0
DWIDTH 18 0
BBX 18 19 0 -1
BITMAP
000000
082000
0c3000
083000
102000
330300
2f4f00
326200
000000
0ff000
0c3000
0c3000
0c3000
083100
083100
303f00
201f00
000000
000000
ENDCHAR
STARTCHAR 224b
ENCODING 8779
SWIDTH 954 0
DWIDTH 18 0
BBX 18 19 0 -1
BITMAP
000000
003800
007c00
3c0400
010600
10cc00
088800
000400
1ffe00
040c00
000800
033000
012000
01e000
033000
0c0c00
300700
000000
000000
ENDCHAR
STARTCHAR 224c
ENCODING 8780
SWIDTH 954 0
DWIDTH 18 0
BBX 18 19 0 -1
BITMAP
000000
010000
008000
7fff00
080000
080000
080000
0ffc00
0ffc00
000000
100c00
100c00
100c00
100c00
100c00
1ffc00
100800
000000
000000
ENDCHAR
STARTCHAR 224d
ENCODING 8781
SWIDTH 954 0
DWIDTH 18 0
BBX 18 19 0 -1
BITMAP
000000
000000
000800
000800
000800
3ff800
300000
300000
300200
1ffc00
000000
1ffc00
100c00
100c00
100c00
1ffc00
100800
000000
000000
ENDCHAR
STARTCHAR 224e
ENCODING 8782
SWIDTH 954 0
DWIDTH 18 0
BBX 18 19 0 -1
BITMAP
000000
000000
000200
008000
008000
00b000
009800
008c00
008000
008000
100c00
100c00
100c00
100c00
100c00
1ffc00
100800
000000
000000
ENDCHAR
STARTCHAR 224f
ENCODING 8783
SWIDTH 954 0
DWIDTH 18 0
BBX 18 19 0 -1
BITMAP
000000
010000
018000
010800
01fc00
010000
010000
010200
7fff00
000000
100c00
100c00
100c00
100c00
100c00
1ffc00
100800
000000
000000
ENDCHAR
STARTCHAR 2250
ENCODING 8784
SWIDTH 954 0
DWIDTH 18 0
BBX 18 19 0 -1
BITMAP
000000
000000
000400
4c0000
7c0000
4c0000
4c0300
4c4000
4c4000
4cc200
4cff00
4c0200
4c0200
480200
400200
000c00
003c00
000000
000000
ENDCHAR
STARTCHAR 2251
ENCODING 8785
SWIDTH 954 0
DWIDTH 18 0
BBX 18 19 0 -1
BITMAP
000000
100400
180e00
11e000
102000
142000
7c2000
102200
13ff00
102000
102000
102100
102100
1c2100
f02100
003f00
003f00
000000
000000
ENDCHAR
STARTCHAR 2252
ENCODING 8786
SWIDTH 954 0
DWIDTH 18 0
BBX 18 19 0 -1
BITMAP
000000
000800
1ffc00
000800
0ff800
000b00
ffff00
030000
020800
040800
0c0800
313000
40a000
00c000
008000
040000
080000
000000
000000
ENDCHAR
STARTCHAR 2253
ENCODING 8787
SWIDTH 954 0
DWIDTH 18 0
BBX 18 19 0 -1
BITMAP
000000
010000
018000
010300
ffff00
023000
041000
080600
100300
c08000
008000
0c8800
088400
108200
208200
408000
078000
000000
000000
ENDCHAR
STARTCHAR 2254
ENCODING 8788
SWIDTH 954 0
DWIDTH 18 0
BBX 18 19 0 -1
BITMAP
000000
020000
030000
060000
0c3000
1cc000
068000
020800
040c00
3f8400
110400
010300
ffff00
022000
041800
080600
300300
000000
000000
ENDCHAR
STARTCHAR 2255
ENCODING 8789
SWIDTH 954 0
DWIDTH 18 0
BBX 18 19 0 -1
BITMAP
000000
003000
301000
2cff00
2c8000
ec8000
2c8000
2c8000
2c8000
4c8000
488000
e88000
708000
3c8000
340000
410000
420000
000000
000000
ENDCHAR
STARTCHAR 2256
ENCODING 8790
SWIDTH 954 0
DWIDTH 18 0
BBX 18 19 0 -1
BITMAP
000000
000000
300200
2c1000
2c1000
ec1000
2c1000
2c1100
2dff00
4c1000
481000
e81000
701000
3c1000
2c1000
401000
80f000
000000
000000
ENDCHAR
STARTCHAR 2257
ENCODING 8791
SWIDTH 954 0
DWIDTH 18 0
BBX 18 19 0 -1
BITMAP
000000
002000
303000
2c3000
2c2000
ec4600
2c4400
2c0c00
2d0c00
4c0800
481000
e83400
702000
3c4300
2cc100
41f100
80e100
000000
000000
ENDCHAR
STARTCHAR 2258
ENCODING 8792
SWIDTH 954 0
DWIDTH 18 0
BBX 18 19 0 -1
BITMAP
000000
202000
303000
303300
323200
223200
223200
422200
424400
045c00
040c00
0e3200
0b2300
110000
308000
007f00
403f00
000000
000000
ENDCHAR
STARTCHAR 2259
ENCODING 8793
SWIDTH 954 0
DWIDTH 18 0
BBX 18 19 0 -1
BITMAP
000000
200000
300300
304c00
344c00
ff4c00
744c00
344c00
244c00
4c4c00
4c4c00
584c00
0ccc00
128c00
308c00
430c00
820c00
000000
000000
ENDCHAR
STARTCHAR 225a
ENCODING 8794
SWIDTH 954 0
DWIDTH 18 0
BBX 18 19 0 -1
BITMAP
000000
010000
008000
3fff00
400300
400c00
3ffc00
0c0000
0c0000
0ffc00
080c00
100c00
200c00
000c00
000c00
000c00
00f800
000000
000000
ENDCHAR
STARTCHAR 225b
ENCODING 8795
SWIDTH 954 0
DWIDTH 18 0
BBX 18 19 0 -1
BITMAP
000000
020000
010000
000300
3fff00
c00200
430000
021000
07f800
041000
0c1000
0c3000
083000
002000
002000
002300
ffff00
000000
000000
ENDCHAR
STARTCHAR 225c
ENCODING 8796
SWIDTH 954 0
DWIDTH 18 0
BBX 18 19 0 -1
BITMAP
000000
000000
00c000
008000
008c00
008000
008000
008300
ffff00
008000
00a000
088800
108c00
308600
208300
808000
078000
000000
000000
ENDCHAR
STARTCHAR 225d
ENCODING 8797
SWIDTH 954 0
DWIDTH 18 0
BBX 18 19 0 -1
BITMAP
000000
100000
180400
101000
101000
ff1000
141200
141000
141000
141000
141000
341000
341000
243100
240100
47ff00
43ff00
000000
000000
ENDCHAR
STARTCHAR 225e
ENCODING 8798
SWIDTH 954 0
DWIDTH 18 0
BBX 18 19 0 -1
BITMAP
000000
200400
3ffe00
300400
300400
300400
3ffc00
300000
300000
33ff00
320200
320200
320200
220200
220200
43fe00
420000
000000
000000
ENDCHAR
STARTCHAR 225f
ENCODING 8799
SWIDTH 954 0
DWIDTH 18 0
BBX 18 19 0 -1
BITMAP
000000
000000
0c0c00
021000
001300
008000
008000
308600
308400
308400
308400
208400
010000
030000
020000
0c0000
080000
000000
000000
ENDCHAR
STARTCHAR 2260
ENCODING 8800
SWIDTH 954 0
DWIDTH 18 0
BBX 18 19 0 -1
BITMAP
000000
200000
300000
303000
303000
b43000
b43000
b43000
b43300
b43000
b43000
b43000
b43000
b43000
fc3000
803000
003000
000000
000000
ENDCHAR
STARTCHAR 2261
ENCODING 8801
SWIDTH 954 0
DWIDTH 18 0
BBX 18 19 0 -1
BITMAP
000000
000000
00c000
208200
208200
7ffe00
000000
083000
0ff000
0c3000
0f3000
0cb000
0cb000
083100
103100
203f00
401f00
000000
000000
ENDCHAR
STARTCHAR 2262
ENCODING 8802
SWIDTH 954 0
DWIDTH 18 0
BBX 18 19 0 -1
BITMAP
000000
100800
18cc00
310800
231000
108c00
08c400
000000
1ffc00
100c00
100c00
100c00
100c00
100c00
100c00
100c00
103c00
000000
000000
ENDCHAR
STARTCHAR 2263
ENCODING 8803
SWIDTH 954 0
DWIDTH 18 0
BBX 18 19 0 -1
BITMAP
000000
000000
000c00
00cc00
0ccc00
10cc00
11cc00
10cc00
10cc00
10fc00
10fc00
108c00
108c00
f10d00
430d00
040f00
0c0700
000000
000000
ENDCHAR
STARTCHAR 2264
ENCODING 8804
SWIDTH 954 0
DWIDTH 18 0
BBX 18 19 0 -1
BITMAP
000000
100000
180200
100800
920800
d20800
d20800
d20800
d20b00
d20800
d20800
d20800
d20800
d20800
de0800
100800
100800
000000
000000
ENDCHAR
STARTCHAR 2265
ENCODING 8805
SWIDTH 954 0
DWIDTH 18 0
BBX 18 19 0 -1
BITMAP
000000
100000
180300
103300
923300
d23300
d23300
d2f300
d27300
d23300
d23300
d23300
d22300
de4300
904300
100300
113e00
000000
000000
ENDCHAR
STARTCHAR 2266
ENCODING 8806
SWIDTH 954 0
DWIDTH 18 0
BBX 18 19 0 -1
BITMAP
000000
010000
008000
ffff00
100000
100000
100000
0ffe00
000000
008000
208400
308400
308400
308400
308400
30bc00
208c00
000000
000000
ENDCHAR
STARTCHAR 2267
ENCODING 8807
SWIDTH 954 0
DWIDTH 18 0
BBX 18 19 0 -1
BITMAP
000000
000000
100000
100800
301000
243000
263300
c44200
4c2400
180c00
080c00
341000
301200
432100
cf4f00
432100
000000
000000
000000
ENDCHAR
STARTCHAR 2268
ENCODING 8808
SWIDTH 954 0
DWIDTH 18 0
BBX 18 19 0 -1
BITMAP
000000
008000
00c000
3fff00
200000
200200
2fff00
204000
204000
207000
205800
204c00
204400
204000
004000
404000
404000
000000
000000
ENDCHAR
STARTCHAR 2269
ENCODING 8809
SWIDTH 954 0
DWIDTH 18 0
BBX 18 19 0 -1
BITMAP
000000
00c000
004000
3fff00
200000
200000
200000
23fe00
220400
220400
220400
220400
220400
220400
03fc00
400000
400000
000000
000000
ENDCHAR
STARTCHAR 226a
ENCODING 8810
SWIDTH 954 0
DWIDTH 18 0
BBX 18 19 0 -1
BITMAP
000000
000000
0c0200
0c1000
0c1000
4c1000
7c1000
401000
c01100
fc1000
0c1000
0c1000
0c1000
0c1000
0c1000
081000
f01000
000000
000000
ENDCHAR
STARTCHAR 226b
ENCODING 8811
SWIDTH 954 0
DWIDTH 18 0
BBX 18 19 0 -1
BITMAP
000000
000000
0c0200
0c1000
0c1000
4c1000
7c1000
401100
c1ff00
fc1000
0c1000
0c1000
0c1000
0c1000
0c1000
081000
f0f000
000000
000000
ENDCHAR
STARTCHAR 226c
ENCODING 8812
SWIDTH 954 0
DWIDTH 18 0
BBX 18 19 0 -1
BITMAP
000000
000000
020300
020300
020300
420300
7e3f00
402000
c04000
ff7f00
024300
020300
020300
020300
060300
0c0600
7c7c00
000000
000000
ENDCHAR
STARTCHAR 226d
ENCODING 8813
SWIDTH 954 0
DWIDTH 18 0
BBX 18 19 0 -1
BITMAP
000000
102000
183000
31b000
213000
413200
8d3f00
133200
113200
313400
313400
b13000
313100
310100
310100
31ff00
30ff00
000000
000000
ENDCHAR
STARTCHAR 226e
ENCODING 8814
SWIDTH 954 0
DWIDTH 18 0
BBX 18 19 0 -1
BITMAP
000000
102000
183000
303000
303000
403000
4c3000
11ff00
103000
383000
103000
903000
103000
103000
103000
103300
13ff00
000000
000000
ENDCHAR
STARTCHAR 226f
ENCODING 8815
SWIDTH 954 0
DWIDTH 18 0
BBX 18 19 0 -1
BITMAP
000000
000000
000400
030400
030400
020400
020400
0c0400
080c00
200800
c10000
0cc000
0c4000
0c0300
4c0100
cff900
c7f000
000000
000000
ENDCHAR
STARTCHAR 2270
ENCODING 8816
SWIDTH 954 0
DWIDTH 18 0
BBX 18 19 0 -1
BITMAP
000000
208000
30c000
30c000
30c300
708300
780300
fa0300
f08300
302300
303300
300300
300300
300300
300300
300600
307c00
000000
000000
ENDCHAR
STARTCHAR 2271
ENCODING 8817
SWIDTH 954 0
DWIDTH 18 0
BBX 18 19 0 -1
BITMAP
000000
000000
000800
000000
000000
000000
000300
000000
000000
008000
08c000
2c4400
2c0200
0c0300
4c0100
cff800
07f000
000000
000000
ENDCHAR
STARTCHAR 2272
ENCODING 8818
SWIDTH 954 0
DWIDTH 18 0
BBX 18 19 0 -1
BITMAP
000000
082000
0c3400
7fb300
0c3300
0c3300
ffff00
003000
003000
003200
003200
001400
001c00
001900
003d00
00c300
010300
000000
000000
ENDCHAR
STARTCHAR 2273
ENCODING 8819
SWIDTH 954 0
DWIDTH 18 0
BBX 18 19 0 -1
BITMAP
000000
200000
310200
310200
310200
310200
310200
310200
31fe00
3d0200
f10200
310200
310200
310200
310200
310200
f11e00
000000
000000
ENDCHAR
STARTCHAR 2274
ENCODING 8820
SWIDTH 954 0
DWIDTH 18 0
BBX 18 19 0 -1
BITMAP
000000
202000
303000
303000
303000
33ff00
333300
333300
333300
3f3300
f33300
333300
333300
333300
333f00
303000
f03000
000000
000000
ENDCHAR
STARTCHAR 2275
ENCODING 8821
SWIDTH 954 0
DWIDTH 18 0
BBX 18 19 0 -1
BITMAP
000000
200300
31ff00
300300
340300
30ff00
308200
310000
310000
3fff00
f10300
300300
300300
300300
300300
300600
f03c00
000000
000000
ENDCHAR
STARTCHAR 2276
ENCODING 8822
SWIDTH 954 0
DWIDTH 18 0
BBX 18 19 0 -1
BITMAP
000000
100800
180c00
100c00
100c00
100f00
11ff00
100c00
100c00
1c4c00
f04c00
102c00
100c00
100c00
100c00
100c00
707c00
000000
000000
ENDCHAR
STARTCHAR 2277
ENCODING 8823
SWIDTH 954 0
DWIDTH 18 0
BBX 18 19 0 -1
BITMAP
000000
001000
401800
401000
401300
401000
441000
401200
41ff00
408200
404400
400c00
422800
503000
702800
00c600
010300
000000
000000
ENDCHAR
STARTCHAR 2278
ENCODING 8824
SWIDTH 954 0
DWIDTH 18 0
BBX 18 19 0 -1
BITMAP
000000
100c00
1ffc00
100c00
100c00
100c00
100c00
1ffc00
000800
180000
100000
1ffc00
100000
100200
100200
1fff00
0ffe00
000000
000000
ENDCHAR
STARTCHAR 2279
ENCODING 8825
SWIDTH 954 0
DWIDTH 18 0
BBX 18 19 0 -1
BITMAP
000000
002000
003000
7e3000
443000
45ff00
443300
443300
7c3300
443300
443300
442300
444300
7cc300
448300
030300
023e00
000000
000000
ENDCHAR
STARTCHAR 227a
ENCODING 8826
SWIDTH 954 0
DWIDTH 18 0
BBX 18 19 0 -1
BITMAP
000000
080200
0c0300
0c3300
0c3300
7fb300
0c3300
0c3300
0c3300
1f3300
3f3300
2c3300
0c3300
4c2300
8c0300
0c0300
0c1f00
000000
000000
ENDCHAR
STARTCHAR 227b
ENCODING 8827
SWIDTH 954 0
DWIDTH 18 0
BBX 18 19 0 -1
BITMAP
000000
100800
1ffc00
100800
100800
101000
100000
1ffe00
0ffc00
00c000
008300
018000
03c000
049000
0c8c00
208200
c08000
000000
000000
ENDCHAR
STARTCHAR 227c
ENCODING 8828
SWIDTH 954 0
DWIDTH 18 0
BBX 18 19 0 -1
BITMAP
000000
000000
040300
302000
302000
342000
3e4000
24ff00
244300
640300
740300
0c0300
0c0300
080300
100300
200600
403c00
000000
000000
ENDCHAR
STARTCHAR 227d
ENCODING 8829
SWIDTH 954 0
DWIDTH 18 0
BBX 18 19 0 -1
BITMAP
000000
002000
023000
303000
303000
343000
3e3000
243000
243000
642000
742800
0c4800
0ccc00
088400
110400
220300
440300
000000
000000
ENDCHAR
STARTCHAR 227e
ENCODING 8830
SWIDTH 954 0
DWIDTH 18 0
BBX 18 19 0 -1
BITMAP
000000
003800
00fc00
010000
010c00
010000
010400
010100
010100
01ff00
00ff00
0c3000
0c2000
0c2100
082100
303f00
203f00
000000
000000
ENDCHAR
STARTCHAR 2321
ENCODING 8993
SWIDTH 954 0
DWIDTH 18 0
BBX 18 19 0 -1
BITMAP
000000
003000
23f800
308000
308400
308000
308000
334000
343200
10cc00
008000
008300
ffff00
008000
008000
008000
008000
000000
000000
ENDCHAR
STARTCHAR 2322
ENCODING 8994
SWIDTH 954 0
DWIDTH 18 0
BBX 18 19 0 -1
BITMAP
000000
000000
300300
082300
002300
842300
462300
28a300
08e300
002300
102300
304300
604300
20c300
308300
330600
323c00
000000
000000
ENDCHAR
STARTCHAR 2323
ENCODING 8995
SWIDTH 954 0
DWIDTH 18 0
BBX 18 19 0 -1
BITMAP
000000
200400
100600
0c0c00
081000
804000
408000
340600
240c00
081000
083000
108200
300300
300600
300c00
106000
118000
000000
000000
ENDCHAR
STARTCHAR 2324
ENCODING 8996
SWIDTH 954 0
DWIDTH 18 0
BBX 18 19 0 -1
BITMAP
000000
002000
3ff000
044200
0cff00
080200
100200
203c00
400c00
008000
108200
0d4c00
090000
023000
041000
100c00
200700
000000
000000
ENDCHAR
STARTCHAR 2325
ENCODING 8997
SWIDTH 954 0
DWIDTH 18 0
BBX 18 19 0 -1
BITMAP
000000
000000
00c000
014000
032000
041000
0c0800
100700
200200
008000
108200
0d4c00
092000
021000
040800
100600
200300
000000
000000
ENDCHAR
STARTCHAR 2326
ENCODING 8998
SWIDTH 954 0
DWIDTH 18 0
BBX 18 19 0 -1
BITMAP
000000
080000
0c0300
3c6200
2c4200
3f4200
4c4200
8c4200
0c4200
0f4200
fc4200
0c4200
0cfe00
0c0200
0c0200
0c0200
0c0200
000000
000000
ENDCHAR
STARTCHAR 2327
ENCODING 8999
SWIDTH 954 0
DWIDTH 18 0
BBX 18 19 0 -1
BITMAP
000000
088000
8cc000
28c000
388300
310300
290300
8c0300
0c8300
1c2300
3c3300
0c0300
4c0300
0c0300
0c0300
0c0600
783c00
000000
000000
ENDCHAR
STARTCHAR 2328
ENCODING 9000
SWIDTH 954 0
DWIDTH 18 0
BBX 18 19 0 -1
BITMAP
000000
000000
8c0c00
307000
33c000
304000
204000
484000
984200
384000
284000
084000
484100
084100
084100
187f00
f03f00
000000
000000
ENDCHAR
STARTCHAR 2329
ENCODING 9001
SWIDTH 954 0
DWIDTH 18 0
BBX 18 19 0 -1
BITMAP
000000
000000
000300
fec200
10c200
10c200
10c200
14c200
7cc200
10c200
10c200
10c200
10c200
1e8200
f00200
000200
000200
000000
000000
ENDCHAR
STARTCHAR 232a
ENCODING 9002
SWIDTH 954 0
DWIDTH 18 0
BBX 18 19 0 -1
BITMAP
000000
002000
001000
fc1000
308000
30c800
30c800
38c800
fcc800
30c800
30c800
308c00
308c00
3d0400
f30200
000300
040300
000000
000000
ENDCHAR
STARTCHAR 232b
ENCODING 9003
SWIDTH 954 0
DWIDTH 18 0
BBX 18 19 0 -1
BITMAP
000000
000000
030000
040000
2c0400
308400
308400
308400
308400
308400
3ffc00
308400
308400
308400
308400
3ffc00
300400
000000
000000
ENDCHAR
STARTCHAR 232c
ENCODING 9004
SWIDTH 954 0
DWIDTH 18 0
BBX 18 19 0 -1
BITMAP
000000
000000
000c00
041000
061000
7fff00
008000
008000
008000
008400
3ffe00
008000
008000
008000
008000
ffff00
000000
000000
000000
ENDCHAR
STARTCHAR 232d
ENCODING 9005
SWIDTH 954 0
DWIDTH 18 0
BBX 18 19 0 -1
BITMAP
000000
00c000
042000
0c1000
0c0800
100600
300300
cffc00
080800
0b0800
08c800
080800
083800
0b8800
130800
300800
207800
000000
000000
ENDCHAR
STARTCHAR 232e
ENCODING 9006
SWIDTH 954 0
DWIDTH 18 0
BBX 18 19 0 -1
BITMAP
000000
000000
0c0c00
ff7f00
080800
000000
000000
000c00
0c0800
080800
080800
080800
1ff800
000800
000800
000800
000800
000000
000000
ENDCHAR
STARTCHAR 232f
ENCODING 9007
SWIDTH 954 0
DWIDTH 18 0
BBX 18 19 0 -1
BITMAP
000000
000000
0c0c00
ff7f00
080800
000000
081000
0c1000
0c1000
0c1000
0c1000
081000
081100
101100
101100
001f00
400f00
000000
000000
ENDCHAR
STARTCHAR 2330
ENCODING 9008
SWIDTH 954 0
DWIDTH 18 0
BBX 18 19 0 -1
BITMAP
000000
000000
000800
208800
308800
009000
30b200
30a200
308200
010200
790200
130600
120400
307c00
240800
cc0000
07ff00
000000
000000
ENDCHAR
STARTCHAR 2331
ENCODING 9009
SWIDTH 954 0
DWIDTH 18 0
BBX 18 19 0 -1
BITMAP
000000
000200
0c3f00
082200
0b2400
082400
082800
082200
082300
f82100
482100
082100
082100
082f00
082200
082000
382000
000000
000000
ENDCHAR
STARTCHAR 2332
ENCODING 9010
SWIDTH 954 0
DWIDTH 18 0
BBX 18 19 0 -1
BITMAP
000000
002200
023f00
783200
083200
083400
083800
083200
093300
083100
083100
083100
083100
103f00
303200
203000
003000
000000
000000
ENDCHAR
STARTCHAR 2333
ENCODING 9011
SWIDTH 954 0
DWIDTH 18 0
BBX 18 19 0 -1
BITMAP
000000
002200
0c3f00
103200
123200
233400
123800
0d3200
09b300
313100
273100
733100
223100
043f00
0c3200
103000
303000
000000
000000
ENDCHAR
STARTCHAR 2334
ENCODING 9012
SWIDTH 954 0
DWIDTH 18 0
BBX 18 19 0 -1
BITMAP
000000
4c0000
7c0400
4c3000
4c3000
403000
503000
483000
4c3300
443000
443000
443000
4c3000
483000
403000
403000
403000
000000
000000
ENDCHAR
STARTCHAR 2335
ENCODING 9013
SWIDTH 954 0
DWIDTH 18 0
BBX 18 19 0 -1
BITMAP
000000
000300
ffff00
022000
022000
422300
7e3f00
422300
422300
422300
422300
422200
022000
042000
0c2000
102000
302000
000000
000000
ENDCHAR
STARTCHAR 2336
ENCODING 9014
SWIDTH 954 0
DWIDTH 18 0
BBX 18 19 0 -1
BITMAP
000000
000000
0c3000
082000
092000
082000
082000
082000
082000
002000
002000
7f2100
432100
432100
432100
7f3f00
423f00
000000
000000
ENDCHAR
STARTCHAR 2337
ENCODING 9015
SWIDTH 954 0
DWIDTH 18 0
BBX 18 19 0 -1
BITMAP
000000
010000
008000
7fff00
000000
061000
0c0800
3fcc00
180c00
111000
199800
111000
111000
111000
311000
211f00
410f00
000000
000000
ENDCHAR
STARTCHAR 2338
ENCODING 9016
SWIDTH 954 0
DWIDTH 18 0
BBX 18 19 0 -1
BITMAP
000000
002000
0c3000
183000
103300
303000
303000
303200
73ff00
303000
307000
30fc00
30b400
333300
323100
303000
303000
000000
000000
ENDCHAR
STARTCHAR 2339
ENCODING 9017
SWIDTH 954 0
DWIDTH 18 0
BBX 18 19 0 -1
BITMAP
000000
200000
330000
328300
22df00
23c300
4ec300
a2c300
22c300
24c300
248200
2e8800
210c00
234800
225200
2c2300
28c300
000000
000000
ENDCHAR
STARTCHAR 233a
ENCODING 9018
SWIDTH 954 0
DWIDTH 18 0
BBX 18 19 0 -1
BITMAP
000000
018000
010000
024000
043000
100f00
200200
108c00
108c00
1ffc00
108c00
108c00
1ffc00
008000
008000
008000
008000
000000
000000
ENDCHAR
STARTCHAR 233b
ENCODING 9019
SWIDTH 954 0
DWIDTH 18 0
BBX 18 19 0 -1
BITMAP
000000
000c00
00fe00
3c8000
30c000
30c400
30fe00
30c000
30c000
3fff00
300000
331800
331000
231100
221100
441f00
4c0f00
000000
000000
ENDCHAR
STARTCHAR 233c
ENCODING 9020
SWIDTH 954 0
DWIDTH 18 0
BBX 18 19 0 -1
BITMAP
000000
020300
43ff00
233300
333300
0b3300
0bff00
033300
133300
333300
33ff00
e03000
403000
203000
203000
203000
203000
000000
000000
ENDCHAR
STARTCHAR 233d
ENCODING 9021
SWIDTH 954 0
DWIDTH 18 0
BBX 18 19 0 -1
BITMAP
000000
000000
420200
230200
330200
0b0200
0b0200
033000
133000
333200
33ff00
e33000
431000
230900
230900
234500
23c300
000000
000000
ENDCHAR
STARTCHAR 233e
ENCODING 9022
SWIDTH 954 0
DWIDTH 18 0
BBX 18 19 0 -1
BITMAP
000000
040200
060300
04d300
3fdb00
249300
241300
249300
3fd300
209300
211300
271300
271300
471300
4d0300
50c300
b0cf00
000000
000000
ENDCHAR
STARTCHAR 233f
ENCODING 9023
SWIDTH 954 0
DWIDTH 18 0
BBX 18 19 0 -1
BITMAP
000000
000200
0c0300
081300
081b00
0f9300
081300
081300
081300
491300
7f9300
411300
411300
411300
410300
7f0300
410f00
000000
000000
ENDCHAR
STARTCHAR 2340
ENCODING 9024
SWIDTH 954 0
DWIDTH 18 0
BBX 18 19 0 -1
BITMAP
000000
0c0200
0c0300
0b1300
111b00
20d300
40d300
bf1300
001300
009300
7fd300
011300
031300
341300
0c0300
030300
030f00
000000
000000
ENDCHAR
STARTCHAR 2341
ENCODING 9025
SWIDTH 954 0
DWIDTH 18 0
BBX 18 19 0 -1
BITMAP
000000
200200
300300
309300
3fdb00
409300
409300
3e9300
249300
249300
249300
3c9300
249300
009300
008300
018300
0f0f00
000000
000000
ENDCHAR
STARTCHAR 2342
ENCODING 9026
SWIDTH 954 0
DWIDTH 18 0
BBX 18 19 0 -1
BITMAP
000000
000200
018300
3d1300
2d1b00
2d1300
2d1300
2d1300
2d1300
2d1300
2c1300
289300
289300
01d300
534300
412300
400f00
000000
000000
ENDCHAR
STARTCHAR 2343
ENCODING 9027
SWIDTH 954 0
DWIDTH 18 0
BBX 18 19 0 -1
BITMAP
000000
080200
0c0300
0c0300
0f1300
0c1300
0c1300
0c1300
0d1300
0c1300
0c1300
1f1300
3d1300
2cd300
4c8300
8c0300
0c0f00
000000
000000
ENDCHAR
STARTCHAR 2344
ENCODING 9028
SWIDTH 954 0
DWIDTH 18 0
BBX 18 19 0 -1
BITMAP
000000
100800
1b0c00
120c00
12cc00
12ff00
12cd00
7fcd00
520d00
d2cd00
ffcd00
12c900
12c900
33d100
32b100
020300
424f00
000000
000000
ENDCHAR
STARTCHAR 2345
ENCODING 9029
SWIDTH 954 0
DWIDTH 18 0
BBX 18 19 0 -1
BITMAP
000000
202000
303000
303000
303300
fe2000
322000
324000
324200
32c800
328800
330800
220800
220800
020800
460b00
5cff00
000000
000000
ENDCHAR
STARTCHAR 2346
ENCODING 9030
SWIDTH 954 0
DWIDTH 18 0
BBX 18 19 0 -1
BITMAP
000000
002000
023000
103000
103000
303300
31ff00
3e3300
243300
643300
643300
242300
242300
244300
3cc300
010300
033e00
000000
000000
ENDCHAR
STARTCHAR 2347
ENCODING 9031
SWIDTH 954 0
DWIDTH 18 0
BBX 18 19 0 -1
BITMAP
000000
002000
0c3000
103000
523000
42ff00
423300
423300
423300
7e3300
423300
422300
422300
420300
424300
408300
401e00
000000
000000
ENDCHAR
STARTCHAR 2348
ENCODING 9032
SWIDTH 954 0
DWIDTH 18 0
BBX 18 19 0 -1
BITMAP
000000
001000
40d800
401000
411000
443f00
461300
449300
5fd300
449300
449300
449300
449300
4cb300
48b300
570300
a35e00
000000
000000
ENDCHAR
STARTCHAR 2349
ENCODING 9033
SWIDTH 954 0
DWIDTH 18 0
BBX 18 19 0 -1
BITMAP
000000
021000
ff1800
021000
241000
181300
1cff00
221300
431300
0c1300
081300
7f3300
083300
082300
082300
f0c300
409e00
000000
000000
ENDCHAR
STARTCHAR 234a
ENCODING 9034
SWIDTH 954 0
DWIDTH 18 0
BBX 18 19 0 -1
BITMAP
000000
400200
7fff00
400000
440c00
440c00
440c00
440c00
440c00
440800
421000
430c00
460400
400000
400000
ffff00
400000
000000
000000
ENDCHAR
STARTCHAR 234b
ENCODING 9035
SWIDTH 954 0
DWIDTH 18 0
BBX 18 19 0 -1
BITMAP
000000
400200
7fff00
422000
431000
420c00
440400
480200
500800
420800
420800
420800
420800
400000
400000
ffff00
400000
000000
000000
ENDCHAR
STARTCHAR 234c
ENCODING 9036
SWIDTH 954 0
DWIDTH 18 0
BBX 18 19 0 -1
BITMAP
000000
001000
011800
111000
111000
311000
311c00
031300
4f1300
001000
411000
411000
411000
411000
411000
7f1000
411000
000000
000000
ENDCHAR
STARTCHAR 234d
ENCODING 9037
SWIDTH 954 0
DWIDTH 18 0
BBX 18 19 0 -1
BITMAP
000000
000000
00c000
008400
00fe00
008000
008200
202200
203200
222200
214200
214200
232200
241200
281200
3ffe00
200200
000000
000000
ENDCHAR
STARTCHAR 234e
ENCODING 9038
SWIDTH 954 0
DWIDTH 18 0
BBX 18 19 0 -1
BITMAP
000000
000000
112300
093300
0d3300
233300
333300
323300
323300
74b300
74f300
fc7300
f93300
313200
313000
2f3000
403000
000000
000000
ENDCHAR
STARTCHAR 234f
ENCODING 9039
SWIDTH 954 0
DWIDTH 18 0
BBX 18 19 0 -1
BITMAP
000000
000000
00c000
ffff00
008000
1ffc00
108c00
108c00
1ffc00
008000
008800
080800
041000
032000
01c000
0c1c00
300f00
000000
000000
ENDCHAR
STARTCHAR 2350
ENCODING 9040
SWIDTH 954 0
DWIDTH 18 0
BBX 18 19 0 -1
BITMAP
000000
200400
3ffe00
303400
37f400
343400
37f400
340400
33f400
000000
000800
040800
001000
014000
00c000
0c1c00
300f00
000000
000000
ENDCHAR
STARTCHAR 2351
ENCODING 9041
SWIDTH 954 0
DWIDTH 18 0
BBX 18 19 0 -1
BITMAP
000000
002000
003000
7c3000
4d3300
4f3300
4f3200
4c3000
4c3000
4c2800
4c2800
4c4800
4c4900
48c900
408900
030f00
020f00
000000
000000
ENDCHAR
STARTCHAR 2352
ENCODING 9042
SWIDTH 954 0
DWIDTH 18 0
BBX 18 19 0 -1
BITMAP
000000
000000
000300
7c1000
4c1000
4c1300
4cff00
4c9300
4c9300
4c9300
4c9300
4c9300
4c9300
489300
409700
001000
001000
000000
000000
ENDCHAR
STARTCHAR 2353
ENCODING 9043
SWIDTH 954 0
DWIDTH 18 0
BBX 18 19 0 -1
BITMAP
000000
000c00
003e00
7c2000
4c2000
4c2400
4ffe00
4c2000
4c2000
4c2300
4fff00
4c2000
4c2100
482100
402100
003f00
003f00
000000
000000
ENDCHAR
STARTCHAR 2354
ENCODING 9044
SWIDTH 954 0
DWIDTH 18 0
BBX 18 19 0 -1
BITMAP
000000
000600
001f00
7c3000
4c3000
4c3000
4c3000
4fff00
4c3000
4c2000
4c2000
4c4800
4ccc00
488400
410400
020300
040300
000000
000000
ENDCHAR
STARTCHAR 2355
ENCODING 9045
SWIDTH 954 0
DWIDTH 18 0
BBX 18 19 0 -1
BITMAP
000000
000000
00c000
7c8300
4cff00
4d0300
4e4300
4c4300
4c4300
4cc300
4c9300
4d0b00
4f3f00
490f00
400300
000300
003e00
000000
000000
ENDCHAR
STARTCHAR 2356
ENCODING 9046
SWIDTH 954 0
DWIDTH 18 0
BBX 18 19 0 -1
BITMAP
000000
003000
000000
7cc800
4ccc00
4c0600
4d0300
4dfd00
4c4000
4cc000
4cc400
4c8400
4c0400
480400
400400
000c00
007c00
000000
000000
ENDCHAR
STARTCHAR 2357
ENCODING 9047
SWIDTH 954 0
DWIDTH 18 0
BBX 18 19 0 -1
BITMAP
000000
000600
001f00
7c8000
4c8000
4cff00
4c8300
4c8300
4c8300
4cff00
4c8200
4c8000
7d0000
430000
030000
040000
0c0000
000000
000000
ENDCHAR
STARTCHAR 2358
ENCODING 9048
SWIDTH 954 0
DWIDTH 18 0
BBX 18 19 0 -1
BITMAP
000000
000000
010300
7d0000
4d0000
4d0200
4dff00
4d0200
4d0200
4d2200
4d2400
4d3c00
4d1c00
4b1800
423c00
004200
04c300
000000
000000
ENDCHAR
STARTCHAR 2359
ENCODING 9049
SWIDTH 954 0
DWIDTH 18 0
BBX 18 19 0 -1
BITMAP
000000
000000
008c00
fcc200
c88300
cb0100
ca0400
c80400
c88400
c8cc00
c84800
c83000
c83000
c0c800
808c00
030300
040300
000000
000000
ENDCHAR
STARTCHAR 235a
ENCODING 9050
SWIDTH 954 0
DWIDTH 18 0
BBX 18 19 0 -1
BITMAP
000000
003800
21fc00
30c000
30c000
3ffe00
304000
303000
331000
380e00
100400
1ffc00
100c00
100c00
100c00
1ffc00
100800
000000
000000
ENDCHAR
STARTCHAR 235b
ENCODING 9051
SWIDTH 954 0
DWIDTH 18 0
BBX 18 19 0 -1
BITMAP
000000
000000
100c00
100c00
100c00
100c00
1ffc00
000000
000c00
008000
008000
008800
1ffc00
008000
008000
008300
ffff00
000000
000000
ENDCHAR
STARTCHAR 235c
ENCODING 9052
SWIDTH 954 0
DWIDTH 18 0
BBX 18 19 0 -1
BITMAP
000000
000000
000200
88cc00
fccc00
c8cc00
c8cc00
c8cc00
c8cf00
c8cc00
c8cc00
c8cc00
f8cc00
808c00
008c00
030c00
020c00
000000
000000
ENDCHAR
STARTCHAR 235d
ENCODING 9053
SWIDTH 954 0
DWIDTH 18 0
BBX 18 19 0 -1
BITMAP
000000
084000
0c6000
084000
104200
284000
484000
084100
084100
083f00
000000
1ffc00
100c00
100c00
100c00
100c00
1ffc00
000000
000000
ENDCHAR
STARTCHAR 235e
ENCODING 9054
SWIDTH 954 0
DWIDTH 18 0
BBX 18 19 0 -1
BITMAP
000000
200800
30cc00
308c00
308c00
3bff00
fc8c00
308c00
308c00
308d00
37ff00
308c00
308c00
3d0c00
e10c00
020c00
000c00
000000
000000
ENDCHAR
STARTCHAR 235f
ENCODING 9055
SWIDTH 954 0
DWIDTH 18 0
BBX 18 19 0 -1
BITMAP
000000
004000
202000
303000
323300
333300
333300
332300
332300
334b00
334f00
338700
330700
f30300
430300
030300
030f00
000000
000000
ENDCHAR
STARTCHAR 2360
ENCODING 9056
SWIDTH 954 0
DWIDTH 18 0
BBX 18 19 0 -1
BITMAP
000000
000400
3ffe00
108000
108200
114000
034100
044100
087f00
c00000
00c000
008c00
3ffc00
008000
008000
008300
ffff00
000000
000000
ENDCHAR
STARTCHAR 2361
ENCODING 9057
SWIDTH 954 0
DWIDTH 18 0
BBX 18 19 0 -1
BITMAP
000000
000200
7fff00
0cc600
08c400
310800
223000
108c00
08c400
084000
000000
008000
008400
008000
008000
008300
ffff00
000000
000000
ENDCHAR
STARTCHAR 2362
ENCODING 9058
SWIDTH 954 0
DWIDTH 18 0
BBX 18 19 0 -1
BITMAP
000000
020000
030000
ffff00
020000
0c0800
080c00
200200
dffc00
108c00
108c00
1ffc00
100000
100200
100200
1fff00
0ffe00
000000
000000
ENDCHAR
STARTCHAR 2363
ENCODING 9059
SWIDTH 954 0
DWIDTH 18 0
BBX 18 19 0 -1
BITMAP
000000
020000
030000
ffff00
022000
0c0c00
100700
c08000
008400
008000
108800
108c00
108c00
108a00
008200
00ff00
00fe00
000000
000000
ENDCHAR
STARTCHAR 2364
ENCODING 9060
SWIDTH 954 0
DWIDTH 18 0
BBX 18 19 0 -1
BITMAP
000000
010000
018000
ffff00
030000
040800
0ccc00
234300
c23000
0c0c00
142300
c43100
043000
043000
0c3000
083000
003000
000000
000000
ENDCHAR
STARTCHAR 2365
ENCODING 9061
SWIDTH 954 0
DWIDTH 18 0
BBX 18 19 0 -1
BITMAP
000000
000000
00c000
008300
ffff00
008000
209000
008800
188c00
249200
056200
030000
032000
041000
0c0800
100600
200300
000000
000000
ENDCHAR
STARTCHAR 2366
ENCODING 9062
SWIDTH 954 0
DWIDTH 18 0
BBX 18 19 0 -1
BITMAP
000000
000000
00c000
010300
ffff00
041000
0c0800
200300
dffe00
023000
03f000
043000
0c3000
0ff000
082000
002400
3ffe00
000000
000000
ENDCHAR
STARTCHAR 2367
ENCODING 9063
SWIDTH 954 0
DWIDTH 18 0
BBX 18 19 0 -1
BITMAP
000000
001000
301800
2c1000
2c1200
ec1000
2c1000
2c1000
2c1100
4c1000
481000
e83800
702c00
3c4400
2c4000
400300
810300
000000
000000
ENDCHAR
STARTCHAR 2368
ENCODING 9064
SWIDTH 954 0
DWIDTH 18 0
BBX 18 19 0 -1
BITMAP
000000
000000
040000
242300
242200
24ff00
242200
242200
ff4200
244400
24c400
24bc00
240800
241400
243200
ff4300
00c100
000000
000000
ENDCHAR
STARTCHAR 2369
ENCODING 9065
SWIDTH 954 0
DWIDTH 18 0
BBX 18 19 0 -1
BITMAP
000000
000000
300300
2c9300
2c9300
ec9300
2c9300
2c9300
2c9300
4c8200
488000
e88000
708100
3c8100
2c8100
40ff00
80ff00
000000
000000
ENDCHAR
STARTCHAR 236a
ENCODING 9066
SWIDTH 954 0
DWIDTH 18 0
BBX 18 19 0 -1
BITMAP
000000
001000
301800
281000
2c1300
fc9300
ec9300
2c9300
2c9300
4c9300
4cff00
681000
101000
3c1000
341000
401000
801000
000000
000000
ENDCHAR
STARTCHAR 236b
ENCODING 9067
SWIDTH 954 0
DWIDTH 18 0
BBX 18 19 0 -1
BITMAP
000000
008c00
30fc00
28cc00
2ccc00
fccc00
ec8f00
2d0000
2e0400
4c4400
4c4400
680c00
102c00
3c1000
343800
404600
808300
000000
000000
ENDCHAR
STARTCHAR 236c
ENCODING 9068
SWIDTH 954 0
DWIDTH 18 0
BBX 18 19 0 -1
BITMAP
000000
000000
0c1c00
01e000
00c000
0e1c00
390c00
030300
ffff00
040800
0ffc00
103000
206000
1fff00
004000
004000
03c000
000000
000000
ENDCHAR
STARTCHAR 236d
ENCODING 9069
SWIDTH 954 0
DWIDTH 18 0
BBX 18 19 0 -1
BITMAP
000000
040000
fe0200
0c0200
084400
103000
101000
11ff00
1c1300
d01200
501000
101000
101000
101000
101000
101000
70f000
000000
000000
ENDCHAR
STARTCHAR 236e
ENCODING 9070
SWIDTH 954 0
DWIDTH 18 0
BBX 18 19 0 -1
BITMAP
000000
010000
008000
3fff00
400300
400000
3ffe00
008000
108400
108400
108400
3ffc00
100400
000400
000c00
000c00
00f800
000000
000000
ENDCHAR
STARTCHAR 236f
ENCODING 9071
SWIDTH 954 0
DWIDTH 18 0
BBX 18 19 0 -1
BITMAP
000000
010000
008000
3fff00
400300
c0d000
008800
008800
008200
008000
014000
030000
032000
041000
0c0800
100600
200300
000000
000000
ENDCHAR
STARTCHAR 2370
ENCODING 9072
SWIDTH 954 0
DWIDTH 18 0
BBX 18 19 0 -1
BITMAP
000000
010000
008000
3fff00
408300
40c000
010000
021000
0c0c00
263200
c43000
043000
043000
0c3000
0c3000
103000
303000
000000
000000
ENDCHAR
STARTCHAR 2371
ENCODING 9073
SWIDTH 954 0
DWIDTH 18 0
BBX 18 19 0 -1
BITMAP
000000
000800
040c00
000c00
000c00
00ff00
000c00
ff0c00
344c00
342c00
340c00
340c00
340d00
240900
240100
47ff00
43ff00
000000
000000
ENDCHAR
STARTCHAR 2372
ENCODING 9074
SWIDTH 954 0
DWIDTH 18 0
BBX 18 19 0 -1
BITMAP
000000
000000
00c000
0c8800
188c00
308200
208300
800000
000000
00c000
008400
114c00
094800
023000
041000
080c00
300700
000000
000000
ENDCHAR
STARTCHAR 2373
ENCODING 9075
SWIDTH 954 0
DWIDTH 18 0
BBX 18 19 0 -1
BITMAP
000000
000000
0c0c00
080800
080900
ff0800
141800
143800
142800
144b00
344900
340800
240800
240900
040100
47ff00
43ff00
000000
000000
ENDCHAR
STARTCHAR 2374
ENCODING 9076
SWIDTH 954 0
DWIDTH 18 0
BBX 18 19 0 -1
BITMAP
000000
100000
180000
103000
103000
ff3200
3c3400
3cf000
3cf800
3cb400
3cb200
3d3200
3e3000
2c2100
0c0100
4fff00
47ff00
000000
000000
ENDCHAR
STARTCHAR 2375
ENCODING 9077
SWIDTH 954 0
DWIDTH 18 0
BBX 18 19 0 -1
BITMAP
000000
000000
00c000
308600
308400
3ffc00
230400
040000
0c0000
604000
004200
000000
043000
0c0c00
0c0400
300300
200300
000000
000000
ENDCHAR
STARTCHAR 2376
ENCODING 9078
SWIDTH 954 0
DWIDTH 18 0
BBX 18 19 0 -1
BITMAP
000000
000000
00c000
308600
308400
3ffc00
220400
080400
3ffe00
008000
008000
008c00
3ffc00
008000
008000
008300
ffff00
000000
000000
ENDCHAR
STARTCHAR 2377
ENCODING 9079
SWIDTH 954 0
DWIDTH 18 0
BBX 18 19 0 -1
BITMAP
000000
000000
20c400
308400
308400
210400
030000
003000
0c1000
300c00
200600
820b00
020800
040800
0c0800
101800
20f000
000000
000000
ENDCHAR
STARTCHAR 2378
ENCODING 9080
SWIDTH 954 0
DWIDTH 18 0
BBX 18 19 0 -1
BITMAP
000000
108000
18c000
10c200
10ff00
529000
501000
501000
501000
51ff00
501000
501000
501000
501000
7c1000
001000
001000
000000
000000
ENDCHAR
STARTCHAR 2379
ENCODING 9081
SWIDTH 954 0
DWIDTH 18 0
BBX 18 19 0 -1
BITMAP
000000
000000
00c000
308600
308400
3ffc00
200400
000000
100c00
100c00
100c00
100c00
1ffc00
100c00
100c00
1ffc00
100800
000000
000000
ENDCHAR
STARTCHAR 237a
ENCODING 9082
SWIDTH 954 0
DWIDTH 18 0
BBX 18 19 0 -1
BITMAP
000000
000000
00c000
308600
308400
3ffc00
200400
024200
0f7f00
204200
204200
204200
204200
264200
3c4200
304400
004000
000000
000000
ENDCHAR
STARTCHAR 237b
ENCODING 9083
SWIDTH 954 0
DWIDTH 18 0
BBX 18 19 0 -1
BITMAP
000000
000000
20c400
308400
308400
200400
020000
008000
000c00
000c00
001800
006000
00c000
060000
0c0000
2e0000
03ff00
000000
000000
ENDCHAR
STARTCHAR 237c
ENCODING 9084
SWIDTH 954 0
DWIDTH 18 0
BBX 18 19 0 -1
BITMAP
000000
002000
0c3000
083000
083000
4ab200
6bb400
4a7800
4a7000
4a3000
4a2000
4a2800
4a4c00
4ac400
fec400
010300
030300
000000
000000
ENDCHAR
STARTCHAR 237d
ENCODING 9085
SWIDTH 954 0
DWIDTH 18 0
BBX 18 19 0 -1
BITMAP
000000
000000
20c400
308400
308400
200400
000000
20fc00
3f0000
300000
300200
302000
302000
202000
202000
402000
402000
000000
000000
ENDCHAR
STARTCHAR 237e
ENCODING 9086
SWIDTH 954 0
DWIDTH 18 0
BBX 18 19 0 -1
BITMAP
000000
200400
3ffe00
300400
300400
300400
300400
3ffc00
200400
100800
18cc00
310800
231000
231000
310800
108c00
08c400
000000
000000
ENDCHAR
STARTCHAR 2421
ENCODING 9249
SWIDTH 954 0
DWIDTH 18 0
BBX 18 19 0 -1
BITMAP
000000
201000
301800
301000
b49400
b4d200
b49300
b51100
b51000
b41300
b41300
b40400
b40c00
bc1000
b03000
30c000
310000
000000
000000
ENDCHAR
STARTCHAR 2422
ENCODING 9250
SWIDTH 954 0
DWIDTH 18 0
BBX 18 19 0 -1
BITMAP
000000
100000
180400
10c400
50c400
50cc00
50cc00
50ff00
50e300
50e300
50f200
50d400
509400
5c0800
551c00
132200
124300
000000
000000
ENDCHAR
STARTCHAR 2423
ENCODING 9251
SWIDTH 954 0
DWIDTH 18 0
BBX 18 19 0 -1
BITMAP
000000
001c00
20fe00
300000
300200
300200
300200
3ffe00
304000
384200
3fff00
3c4200
3c4200
2c4200
0c4200
484400
804000
000000
000000
ENDCHAR
STARTCHAR 2424
ENCODING 9252
SWIDTH 954 0
DWIDTH 18 0
BBX 18 19 0 -1
BITMAP
000000
200000
303000
302000
b42c00
b42000
b42000
b42000
b42200
b45000
b45000
b4d000
bcc800
308c00
310c00
320300
300300
000000
000000
ENDCHAR
STARTCHAR 2425
ENCODING 9253
SWIDTH 954 0
DWIDTH 18 0
BBX 18 19 0 -1
BITMAP
000000
000000
00c400
308400
108c00
0c8000
089000
3fff00
208200
238200
22a200
249200
2c9a00
208a00
308200
208200
209e00
000000
000000
ENDCHAR
STARTCHAR 2426
ENCODING 9254
SWIDTH 954 0
DWIDTH 18 0
BBX 18 19 0 -1
BITMAP
000000
000400
3ffe00
008000
008300
008000
008000
3ffe00
308400
308400
3ffc00
308400
308400
208400
008000
008000
008000
000000
000000
ENDCHAR
STARTCHAR 2427
ENCODING 9255
SWIDTH 954 0
DWIDTH 18 0
BBX 18 19 0 -1
BITMAP
000000
001000
101800
101000
301000
24d200
26d300
c49100
cc9100
391200
0a1300
341200
300400
430800
cf1000
422000
00c000
000000
000000
ENDCHAR
STARTCHAR 2428
ENCODING 9256
SWIDTH 954 0
DWIDTH 18 0
BBX 18 19 0 -1
BITMAP
000000
008000
00c000
3fff00
204000
204000
20e000
210800
230c00
250300
2d8900
210800
210800
210800
030800
400800
440800
000000
000000
ENDCHAR
STARTCHAR 2429
ENCODING 9257
SWIDTH 954 0
DWIDTH 18 0
BBX 18 19 0 -1
BITMAP
000000
001000
001800
fc1000
081000
10d000
309200
789000
089000
089000
089000
889000
509300
300000
380000
07ff00
43ff00
000000
000000
ENDCHAR
STARTCHAR 242a
ENCODING 9258
SWIDTH 954 0
DWIDTH 18 0
BBX 18 19 0 -1
BITMAP
000000
030000
030c00
060c00
0d0800
2cf000
044000
030000
0c0000
081800
0c1000
0c1300
ffff00
081000
081000
301000
201000
000000
000000
ENDCHAR
STARTCHAR 242b
ENCODING 9259
SWIDTH 954 0
DWIDTH 18 0
BBX 18 19 0 -1
BITMAP
000000
002000
033000
223000
223200
223000
22ff00
7e3000
023000
023000
3e3000
221000
221100
220900
220d00
420300
420300
000000
000000
ENDCHAR
STARTCHAR 242c
ENCODING 9260
SWIDTH 954 0
DWIDTH 18 0
BBX 18 19 0 -1
BITMAP
000000
100000
180300
303000
203000
403000
8c3000
103000
103200
303000
303000
b03000
303000
303000
303000
33ff00
300000
000000
000000
ENDCHAR
STARTCHAR 242d
ENCODING 9261
SWIDTH 954 0
DWIDTH 18 0
BBX 18 19 0 -1
BITMAP
000000
202000
303000
303000
303200
783000
7c3000
f03000
f03000
33ff00
303000
302000
304800
30c400
308400
330300
320300
000000
000000
ENDCHAR
STARTCHAR 242e
ENCODING 9262
SWIDTH 954 0
DWIDTH 18 0
BBX 18 19 0 -1
BITMAP
000000
202000
303000
303300
33ff00
783000
7e3300
f33300
f33300
333300
333300
333300
333300
333f00
323200
303000
303000
000000
000000
ENDCHAR
STARTCHAR 242f
ENCODING 9263
SWIDTH 954 0
DWIDTH 18 0
BBX 18 19 0 -1
BITMAP
000000
200000
300200
308800
308800
788800
7d0800
f10b00
f3ff00
303800
302800
304800
30c800
310800
330800
340800
307800
000000
000000
ENDCHAR
STARTCHAR 2430
ENCODING 9264
SWIDTH 954 0
DWIDTH 18 0
BBX 18 19 0 -1
BITMAP
000000
200000
320300
330000
330000
7b0000
7f0200
f34200
f34200
334400
330400
332c00
333800
323800
302c00
38c200
310300
000000
000000
ENDCHAR
STARTCHAR 2431
ENCODING 9265
SWIDTH 954 0
DWIDTH 18 0
BBX 18 19 0 -1
BITMAP
000000
000000
031000
021300
7fff00
0c3000
083000
00c000
00b000
0c0c00
300400
08c000
0c4800
2c0200
2c0300
cffb00
c7f000
000000
000000
ENDCHAR
STARTCHAR 2432
ENCODING 9266
SWIDTH 954 0
DWIDTH 18 0
BBX 18 19 0 -1
BITMAP
000000
200400
330600
304800
303000
78cc00
7d0400
f00000
f00400
b00400
308c00
305000
303000
305000
30c800
310600
320300
000000
000000
ENDCHAR
STARTCHAR 2433
ENCODING 9267
SWIDTH 954 0
DWIDTH 18 0
BBX 18 19 0 -1
BITMAP
000000
200c00
303e00
332000
302000
782000
7c2000
f02300
b7ff00
305000
305000
30c800
308800
310400
330400
340300
3c0300
000000
000000
ENDCHAR
STARTCHAR 2434
ENCODING 9268
SWIDTH 954 0
DWIDTH 18 0
BBX 18 19 0 -1
BITMAP
000000
003000
03fc00
200200
3fff00
200200
200200
200000
280400
2c0400
2c0400
2ffc00
2c0400
0c0200
4c0200
4fff00
87fe00
000000
000000
ENDCHAR
STARTCHAR 2435
ENCODING 9269
SWIDTH 954 0
DWIDTH 18 0
BBX 18 19 0 -1
BITMAP
000000
202000
303000
303200
33ff00
303000
303000
303000
31fe00
3c3000
f03000
303100
33ff00
303000
303000
303000
f03000
000000
000000
ENDCHAR
STARTCHAR 2436
ENCODING 9270
SWIDTH 954 0
DWIDTH 18 0
BBX 18 19 0 -1
BITMAP
000000
202000
303000
303100
33ff00
303000
303000
31ff00
313200
3d3200
f13200
313200
313200
313200
313e00
303000
f03000
000000
000000
ENDCHAR
STARTCHAR 2437
ENCODING 9271
SWIDTH 954 0
DWIDTH 18 0
BBX 18 19 0 -1
BITMAP
000000
210000
318300
310b00
310b00
310b00
37cb00
310b00
310b00
3d0b00
f10b00
310b00
310b00
31d300
319300
300300
f05e00
000000
000000
ENDCHAR
STARTCHAR 2438
ENCODING 9272
SWIDTH 954 0
DWIDTH 18 0
BBX 18 19 0 -1
BITMAP
000000
200000
303000
302200
303f00
fc2000
302000
33fe00
300400
3c0400
f08c00
304800
305000
303000
305000
308e00
f30300
000000
000000
ENDCHAR
STARTCHAR 2439
ENCODING 9273
SWIDTH 954 0
DWIDTH 18 0
BBX 18 19 0 -1
BITMAP
000000
204000
302000
303000
323300
333300
333300
332b00
330b00
3f4f00
f3c700
330300
330300
330300
330300
330300
f30f00
000000
000000
ENDCHAR
STARTCHAR 243a
ENCODING 9274
SWIDTH 954 0
DWIDTH 18 0
BBX 18 19 0 -1
BITMAP
000000
210000
318000
31ff00
330000
320400
31fe00
300000
300c00
3c0c00
f00c00
300c00
300c00
300c00
300400
300200
f00300
000000
000000
ENDCHAR
STARTCHAR 243b
ENCODING 9275
SWIDTH 954 0
DWIDTH 18 0
BBX 18 19 0 -1
BITMAP
000000
201000
30d800
309000
311000
311000
331200
311000
311000
391000
f11000
311000
311100
311100
311100
311f00
f10f00
000000
000000
ENDCHAR
STARTCHAR 243c
ENCODING 9276
SWIDTH 954 0
DWIDTH 18 0
BBX 18 19 0 -1
BITMAP
000000
200000
300200
303000
343000
303000
303000
33ff00
303000
3c2c00
f02800
304800
304900
30c900
308900
330f00
f20f00
000000
000000
ENDCHAR
STARTCHAR 243d
ENCODING 9277
SWIDTH 954 0
DWIDTH 18 0
BBX 18 19 0 -1
BITMAP
000000
008000
008200
008000
008c00
0c0800
041000
01c000
03e000
0c0f00
30c200
3ffc00
308400
308400
308400
30bc00
208c00
000000
000000
ENDCHAR
STARTCHAR 243e
ENCODING 9278
SWIDTH 954 0
DWIDTH 18 0
BBX 18 19 0 -1
BITMAP
000000
002000
023000
083000
082000
083f00
084200
09a200
ff2200
082400
082400
081c00
081c00
081800
083c00
084200
08c300
000000
000000
ENDCHAR
STARTCHAR 243f
ENCODING 9279
SWIDTH 954 0
DWIDTH 18 0
BBX 18 19 0 -1
BITMAP
000000
000000
003000
7f2000
424000
427f00
424400
428400
7e0400
400400
402c00
402800
401800
443800
482c00
20c200
010300
000000
000000
ENDCHAR
STARTCHAR 2440
ENCODING 9280
SWIDTH 954 0
DWIDTH 18 0
BBX 18 19 0 -1
BITMAP
000000
002000
303000
3f3000
402000
803f00
020200
026200
04a200
082400
102400
221c00
421c00
c21800
c33c00
7e4200
00c300
000000
000000
ENDCHAR
STARTCHAR 2441
ENCODING 9281
SWIDTH 954 0
DWIDTH 18 0
BBX 18 19 0 -1
BITMAP
000000
200400
300600
304400
322400
323400
220400
328400
524400
8c2400
040400
0c0500
09ff00
100400
100400
000400
400400
000000
000000
ENDCHAR
STARTCHAR 2442
ENCODING 9282
SWIDTH 954 0
DWIDTH 18 0
BBX 18 19 0 -1
BITMAP
000000
201000
101800
023800
ff3c00
204200
20c300
3d1800
241000
241000
241000
241000
241000
241000
041000
4c1000
7c1000
000000
000000
ENDCHAR
STARTCHAR 2443
ENCODING 9283
SWIDTH 954 0
DWIDTH 18 0
BBX 18 19 0 -1
BITMAP
000000
000000
100c00
100c00
100c00
1ffc00
100c00
100c00
1ffc00
081000
0c1800
0c1300
ffff00
0c1000
081000
301000
201000
000000
000000
ENDCHAR
STARTCHAR 2444
ENCODING 9284
SWIDTH 954 0
DWIDTH 18 0
BBX 18 19 0 -1
BITMAP
000000
000000
200400
300400
300400
300400
300400
300400
210000
008300
ffff00
100000
100000
100000
100000
1ffe00
0fff00
000000
000000
ENDCHAR
STARTCHAR 2445
ENCODING 9285
SWIDTH 954 0
DWIDTH 18 0
BBX 18 19 0 -1
BITMAP
000000
204000
306000
304000
304000
33fe00
304400
304400
384400
7cc400
f06400
b0d400
30d400
308400
310400
320700
340300
000000
000000
ENDCHAR
STARTCHAR 2446
ENCODING 9286
SWIDTH 954 0
DWIDTH 18 0
BBX 18 19 0 -1
BITMAP
000000
000000
00c000
008000
008400
008000
208800
088800
088000
ffff00
018000
02a000
02b000
0c8c00
088e00
208000
c08000
000000
000000
ENDCHAR
STARTCHAR 2447
ENCODING 9287
SWIDTH 954 0
DWIDTH 18 0
BBX 18 19 0 -1
BITMAP
000000
100000
180200
100200
100200
fec200
108200
308200
3cfe00
128000
528000
d08000
908000
108100
108100
10ff00
10ff00
000000
000000
ENDCHAR
STARTCHAR 2448
ENCODING 9288
SWIDTH 954 0
DWIDTH 18 0
BBX 18 19 0 -1
BITMAP
000000
100000
182000
103000
103000
fe2300
102200
30c400
38cc00
123000
101000
503000
902200
10c100
108700
13e100
110000
000000
000000
ENDCHAR
STARTCHAR 2449
ENCODING 9289
SWIDTH 954 0
DWIDTH 18 0
BBX 18 19 0 -1
BITMAP
000000
001000
083800
036000
01c000
0c0c00
300c00
009000
009000
ffff00
018000
02a000
04b000
088c00
108700
c08000
008000
000000
000000
ENDCHAR
STARTCHAR 244a
ENCODING 9290
SWIDTH 954 0
DWIDTH 18 0
BBX 18 19 0 -1
BITMAP
000000
004000
006000
fe4000
044300
04d300
049200
441000
7d1000
401000
403800
403800
402c00
4c4400
584400
208300
010300
000000
000000
ENDCHAR
STARTCHAR 244b
ENCODING 9291
SWIDTH 954 0
DWIDTH 18 0
BBX 18 19 0 -1
BITMAP
000000
000000
003000
7f2000
424300
425300
42d200
7e9000
421000
401000
403800
403800
402c00
404400
404400
808300
010300
000000
000000
ENDCHAR
STARTCHAR 244c
ENCODING 9292
SWIDTH 954 0
DWIDTH 18 0
BBX 18 19 0 -1
BITMAP
000000
002000
003000
fe3000
203000
2c3300
3dff00
2c3000
4c3000
7c3000
982000
104800
104c00
30c400
208200
430300
820100
000000
000000
ENDCHAR
STARTCHAR 244d
ENCODING 9293
SWIDTH 954 0
DWIDTH 18 0
BBX 18 19 0 -1
BITMAP
000000
000000
0c0000
0f0200
08ff00
284200
2a4200
224400
220400
722c00
522800
041800
043800
0c4400
08c400
310300
230300
000000
000000
ENDCHAR
STARTCHAR 244e
ENCODING 9294
SWIDTH 954 0
DWIDTH 18 0
BBX 18 19 0 -1
BITMAP
000000
040000
0e0000
10fe00
10c400
14c400
fec400
10c400
10c400
14c400
fec400
10c400
10fc00
108100
100100
1fff00
0fff00
000000
000000
ENDCHAR
STARTCHAR 244f
ENCODING 9295
SWIDTH 954 0
DWIDTH 18 0
BBX 18 19 0 -1
BITMAP
000000
000300
03ff00
122000
123000
023000
8a3000
423000
423000
122000
322800
222800
e04c00
444400
44c400
2c8300
290300
000000
000000
ENDCHAR
STARTCHAR 2450
ENCODING 9296
SWIDTH 954 0
DWIDTH 18 0
BBX 18 19 0 -1
BITMAP
000000
002000
003000
103000
103000
003000
883000
41b000
413200
113000
313000
233000
e33000
42f000
427000
243f00
240e00
000000
000000
ENDCHAR
STARTCHAR 2451
ENCODING 9297
SWIDTH 954 0
DWIDTH 18 0
BBX 18 19 0 -1
BITMAP
000000
000000
200300
081000
001000
003000
442000
287000
087800
00b200
113300
323100
f03100
203000
203000
303000
303000
000000
000000
ENDCHAR
STARTCHAR 2452
ENCODING 9298
SWIDTH 954 0
DWIDTH 18 0
BBX 18 19 0 -1
BITMAP
000000
000000
0ff800
008000
008000
7fff00
008000
008000
000000
208400
108600
0d4800
094000
022000
043000
080c00
300700
000000
000000
ENDCHAR
STARTCHAR 2453
ENCODING 9299
SWIDTH 954 0
DWIDTH 18 0
BBX 18 19 0 -1
BITMAP
000000
000000
00c000
008300
ffff00
030000
023000
080c00
30c700
008800
108c00
0d1000
094000
021000
040c00
100600
200300
000000
000000
ENDCHAR
STARTCHAR 2454
ENCODING 9300
SWIDTH 954 0
DWIDTH 18 0
BBX 18 19 0 -1
BITMAP
000000
100000
183000
102000
102000
102300
122200
102c00
10a800
1c2000
f05000
104000
10c800
108c00
108400
130200
720300
000000
000000
ENDCHAR
STARTCHAR 2455
ENCODING 9301
SWIDTH 954 0
DWIDTH 18 0
BBX 18 19 0 -1
BITMAP
000000
110000
19a300
513200
513200
7d3200
513200
913200
113200
1d3200
f13200
113200
113200
133200
133200
100200
140200
000000
000000
ENDCHAR
STARTCHAR 2456
ENCODING 9302
SWIDTH 954 0
DWIDTH 18 0
BBX 18 19 0 -1
BITMAP
000000
000000
8c3000
302000
302200
302200
202200
482200
982200
3bff00
284000
084800
48cc00
088200
088300
1b0100
f20100
000000
000000
ENDCHAR
STARTCHAR 2457
ENCODING 9303
SWIDTH 954 0
DWIDTH 18 0
BBX 18 19 0 -1
BITMAP
000000
010000
8d8c00
310800
310800
310800
210a00
490800
990800
390800
290800
090800
490900
090900
090900
19cf00
f08f00
000000
000000
ENDCHAR
STARTCHAR 2458
ENCODING 9304
SWIDTH 954 0
DWIDTH 18 0
BBX 18 19 0 -1
BITMAP
000000
000000
8c0200
308200
308200
308200
208200
488200
988200
388200
288200
088200
488200
088200
088200
18fe00
f08000
000000
000000
ENDCHAR
STARTCHAR 2459
ENCODING 9305
SWIDTH 954 0
DWIDTH 18 0
BBX 18 19 0 -1
BITMAP
000000
000400
8d0e00
311000
311000
311000
211000
49ff00
991000
391000
291000
090800
490800
090d00
090500
19c300
f08300
000000
000000
ENDCHAR
STARTCHAR 245a
ENCODING 9306
SWIDTH 954 0
DWIDTH 18 0
BBX 18 19 0 -1
BITMAP
000000
002000
8c3000
303000
313300
333300
223200
483000
983000
383800
281000
085000
48d100
089100
089100
1b1f00
f20f00
000000
000000
ENDCHAR
STARTCHAR 245b
ENCODING 9307
SWIDTH 954 0
DWIDTH 18 0
BBX 18 19 0 -1
BITMAP
000000
080000
4d0200
393200
193200
193200
393200
4d3200
8d3200
1d0000
1d0000
2d0000
0d0100
0d0100
0d0100
0dff00
78ff00
000000
000000
ENDCHAR
STARTCHAR 245c
ENCODING 9308
SWIDTH 954 0
DWIDTH 18 0
BBX 18 19 0 -1
BITMAP
000000
000000
000c00
fccc00
30cc00
30cc00
30cc00
34cc00
fcec00
30cc00
30cc00
30cc00
30cd00
30cd00
3ccd00
40cf00
00c700
000000
000000
ENDCHAR
STARTCHAR 245d
ENCODING 9309
SWIDTH 954 0
DWIDTH 18 0
BBX 18 19 0 -1
BITMAP
000000
002000
003000
fc3000
303000
303000
303000
3bff00
fc3000
303000
303000
303000
303000
3c3000
f03000
003300
03ff00
000000
000000
ENDCHAR
STARTCHAR 245e
ENCODING 9310
SWIDTH 954 0
DWIDTH 18 0
BBX 18 19 0 -1
BITMAP
000000
000000
000200
fcc000
10c000
10cc00
10fc00
10cc00
10cc00
10fc00
10dc00
109c00
108c00
108d00
10b500
738300
310300
000000
000000
ENDCHAR
STARTCHAR 245f
ENCODING 9311
SWIDTH 954 0
DWIDTH 18 0
BBX 18 19 0 -1
BITMAP
000000
000000
000000
7f3300
423300
422200
424400
42cc00
42cc00
428800
42cc00
424400
422200
423300
7e3300
400000
000000
000000
000000
ENDCHAR
STARTCHAR 2460
ENCODING 9312
SWIDTH 954 0
DWIDTH 18 0
BBX 18 19 0 -1
BITMAP
000000
00c000
004000
1fff00
900000
500c00
33fc00
110c00
110800
109000
309000
506000
106000
309000
310800
220600
040300
000000
000000
ENDCHAR
STARTCHAR 2461
ENCODING 9313
SWIDTH 954 0
DWIDTH 18 0
BBX 18 19 0 -1
BITMAP
000000
00c000
004000
1fff00
100000
500c00
520c00
130c00
130c00
130c00
330c00
d3fc00
520c00
300c00
300c00
200c00
000c00
000000
000000
ENDCHAR
STARTCHAR 2462
ENCODING 9314
SWIDTH 954 0
DWIDTH 18 0
BBX 18 19 0 -1
BITMAP
000000
00c000
004000
1fff00
100000
500200
57ff00
10c000
108000
110400
33fe00
d00400
500400
300400
300c00
000c00
40f800
000000
000000
ENDCHAR
STARTCHAR 2463
ENCODING 9315
SWIDTH 954 0
DWIDTH 18 0
BBX 18 19 0 -1
BITMAP
000000
000800
028c00
026300
222400
1c1000
080800
300700
2ff200
081000
081000
081000
09f000
080000
080000
0ffe00
0ffc00
000000
000000
ENDCHAR
STARTCHAR 2464
ENCODING 9316
SWIDTH 954 0
DWIDTH 18 0
BBX 18 19 0 -1
BITMAP
000000
000000
440300
44c200
44c200
44c200
44c200
44c200
44c200
44c200
44c200
44c200
44c200
448200
440200
440200
400200
000000
000000
ENDCHAR
STARTCHAR 2465
ENCODING 9317
SWIDTH 954 0
DWIDTH 18 0
BBX 18 19 0 -1
BITMAP
000000
000000
0c0000
080300
0fff00
100300
302300
282300
482300
082300
082300
082300
082300
0fe300
080300
000600
003c00
000000
000000
ENDCHAR
STARTCHAR 2466
ENCODING 9318
SWIDTH 954 0
DWIDTH 18 0
BBX 18 19 0 -1
BITMAP
000000
000c00
0ffc00
080c00
0ffc00
080c00
0ffc00
080c00
0ffc00
0c0000
080000
0ffc00
080000
080200
080200
0fff00
0ffe00
000000
000000
ENDCHAR
STARTCHAR 2467
ENCODING 9319
SWIDTH 954 0
DWIDTH 18 0
BBX 18 19 0 -1
BITMAP
000000
000000
000400
fe8400
308400
308400
308400
248400
3e8400
648400
a4bc00
248000
248200
3c8200
248200
00ff00
00fe00
000000
000000
ENDCHAR
STARTCHAR 2468
ENCODING 9320
SWIDTH 954 0
DWIDTH 18 0
BBX 18 19 0 -1
BITMAP
000000
003800
01fc00
008000
008000
7fff00
018000
02b000
0c8c00
200300
c00300
00c000
008000
032000
023000
080c00
300700
000000
000000
ENDCHAR
STARTCHAR 2469
ENCODING 9321
SWIDTH 954 0
DWIDTH 18 0
BBX 18 19 0 -1
BITMAP
000000
010000
008000
3fff00
422300
442000
0c3f00
600000
000000
ffff00
008000
008000
008000
008000
008000
008000
078000
000000
000000
ENDCHAR
STARTCHAR 246a
ENCODING 9322
SWIDTH 954 0
DWIDTH 18 0
BBX 18 19 0 -1
BITMAP
000000
000000
000200
222200
222200
222200
3ffe00
000000
000300
008000
008000
008000
008000
008000
008000
008000
078000
000000
000000
ENDCHAR
STARTCHAR 246b
ENCODING 9323
SWIDTH 954 0
DWIDTH 18 0
BBX 18 19 0 -1
BITMAP
000000
200400
3ffe00
30c400
308400
332400
323400
300c00
210400
00c000
008200
100000
100000
100000
100000
1ffe00
0fff00
000000
000000
ENDCHAR
STARTCHAR 246c
ENCODING 9324
SWIDTH 954 0
DWIDTH 18 0
BBX 18 19 0 -1
BITMAP
000000
081000
0c1800
0c1200
7c1f00
0c1000
08d000
008c00
3ffc00
008000
008000
008300
ffff00
008000
008000
008000
008000
000000
000000
ENDCHAR
STARTCHAR 246d
ENCODING 9325
SWIDTH 954 0
DWIDTH 18 0
BBX 18 19 0 -1
BITMAP
000000
000000
020000
24ff00
240200
240400
3c0c00
240800
241000
3c3000
242000
244000
24c100
2c8100
f48100
04ff00
04ff00
000000
000000
ENDCHAR
STARTCHAR 246e
ENCODING 9326
SWIDTH 954 0
DWIDTH 18 0
BBX 18 19 0 -1
BITMAP
000000
4c0200
7dff00
4c3000
4c3000
7c3000
5c3000
4c3300
4fff00
4c3000
5c3000
4c3000
4c3000
4c3000
4c3000
4c3000
bcf000
000000
000000
ENDCHAR
STARTCHAR 246f
ENCODING 9327
SWIDTH 954 0
DWIDTH 18 0
BBX 18 19 0 -1
BITMAP
000000
4c0000
7c0c00
4c8c00
4c8c00
7c8c00
5ccc00
4cac00
4cbc00
4c9c00
5c8c00
4c8c00
4c8d00
4d0d00
4d0d00
8d0f00
be0700
000000
000000
ENDCHAR
STARTCHAR 2470
ENCODING 9328
SWIDTH 954 0
DWIDTH 18 0
BBX 18 19 0 -1
BITMAP
000000
000000
4c0000
4c3200
4c9200
4c8200
7cc200
4c4200
4c4400
4c2400
5c2c00
4c1800
4c1800
4c3c00
4c2600
8cc300
bd0100
000000
000000
ENDCHAR
STARTCHAR 2471
ENCODING 9329
SWIDTH 954 0
DWIDTH 18 0
BBX 18 19 0 -1
BITMAP
000000
000000
000400
20c000
20c000
20c000
28cc00
2c0c00
2c0c00
2c0c00
2c0c00
28c800
20c000
20c000
20c000
7fff00
000000
000000
000000
ENDCHAR
STARTCHAR 2472
ENCODING 9330
SWIDTH 954 0
DWIDTH 18 0
BBX 18 19 0 -1
BITMAP
000000
000000
000200
020000
020000
1c0c00
1ffc00
100c00
100c00
100c00
100c00
100c00
1ffc00
100c00
100c00
1ffc00
100800
000000
000000
ENDCHAR
STARTCHAR 2473
ENCODING 9331
SWIDTH 954 0
DWIDTH 18 0
BBX 18 19 0 -1
BITMAP
000000
000000
0c3000
332000
7f2000
432000
432000
7f2000
432000
432000
432000
7f2000
432100
432100
432100
7f3f00
423f00
000000
000000
ENDCHAR
STARTCHAR 2474
ENCODING 9332
SWIDTH 954 0
DWIDTH 18 0
BBX 18 19 0 -1
BITMAP
000000
030000
030000
380400
30fe00
300400
300400
300400
300400
3f7c00
300400
300400
300400
300400
300400
3f7c00
300400
000000
000000
ENDCHAR
STARTCHAR 2475
ENCODING 9333
SWIDTH 954 0
DWIDTH 18 0
BBX 18 19 0 -1
BITMAP
000000
000000
0c0c00
ff7f00
080800
000000
000000
008000
008000
008000
008300
008000
008000
008000
008000
008000
008000
000000
000000
ENDCHAR
STARTCHAR 2476
ENCODING 9334
SWIDTH 954 0
DWIDTH 18 0
BBX 18 19 0 -1
BITMAP
000000
000000
0c0c00
ff7f00
080800
000000
000000
041000
041000
041000
045000
041000
041100
041100
041100
041f00
040f00
000000
000000
ENDCHAR
STARTCHAR 2477
ENCODING 9335
SWIDTH 954 0
DWIDTH 18 0
BBX 18 19 0 -1
BITMAP
000000
000000
0c0c00
ff7f00
080800
00c000
00c000
00c200
7fff00
00c000
01c000
02c000
04c000
08c000
10c000
c0c000
00c000
000000
000000
ENDCHAR
STARTCHAR 2478
ENCODING 9336
SWIDTH 954 0
DWIDTH 18 0
BBX 18 19 0 -1
BITMAP
000000
000000
0c0c00
ff7f00
080800
000000
000200
022000
022000
022000
022000
042000
042000
0c2100
082100
303f00
203f00
000000
000000
ENDCHAR
STARTCHAR 2479
ENCODING 9337
SWIDTH 954 0
DWIDTH 18 0
BBX 18 19 0 -1
BITMAP
000000
000000
0c0c00
ff7f00
080800
000000
00c000
008000
008300
008000
008000
014000
032000
041000
0c0800
100600
200300
000000
000000
ENDCHAR
STARTCHAR 247a
ENCODING 9338
SWIDTH 954 0
DWIDTH 18 0
BBX 18 19 0 -1
BITMAP
000000
000000
0c0c00
ff7f00
080800
000000
000000
100c00
1ffc00
100c00
100c00
100c00
100c00
100c00
100c00
100c00
100800
000000
000000
ENDCHAR
STARTCHAR 247b
ENCODING 9339
SWIDTH 954 0
DWIDTH 18 0
BBX 18 19 0 -1
BITMAP
000000
000000
0c0c00
ff7f00
080800
00c000
008000
3ffe00
308400
308400
308400
308400
308400
308400
30bc00
008000
008000
000000
000000
ENDCHAR
STARTCHAR 247c
ENCODING 9340
SWIDTH 954 0
DWIDTH 18 0
BBX 18 19 0 -1
BITMAP
000000
000000
0c0c00
ff7f00
080800
000000
003c00
3f0000
010000
010000
010300
010000
010000
010200
010200
01ff00
00fe00
000000
000000
ENDCHAR
STARTCHAR 247d
ENCODING 9341
SWIDTH 954 0
DWIDTH 18 0
BBX 18 19 0 -1
BITMAP
000000
080800
0a0900
080800
000800
080200
0fff00
300000
200c00
400c00
003000
00c000
030000
0c0200
080200
1fff00
0ffe00
000000
000000
ENDCHAR
STARTCHAR 247e
ENCODING 9342
SWIDTH 954 0
DWIDTH 18 0
BBX 18 19 0 -1
BITMAP
000000
004000
002000
201000
301200
010000
310000
310000
310000
010000
790000
110000
110000
30ff00
200000
cc0000
07ff00
000000
000000
ENDCHAR
STARTCHAR 2521
ENCODING 9505
SWIDTH 954 0
DWIDTH 18 0
BBX 18 19 0 -1
BITMAP
000000
000000
000200
203000
303000
003000
303000
33ff00
303000
003000
783000
103000
103000
303000
203000
cc0000
07ff00
000000
000000
ENDCHAR
STARTCHAR 2522
ENCODING 9506
SWIDTH 954 0
DWIDTH 18 0
BBX 18 19 0 -1
BITMAP
000000
000000
000000
23ff00
30cc00
00cc00
30cc00
30cc00
30cc00
00cc00
78cc00
108c00
108c00
310c00
210c00
cc0000
07ff00
000000
000000
ENDCHAR
STARTCHAR 2523
ENCODING 9507
SWIDTH 954 0
DWIDTH 18 0
BBX 18 19 0 -1
BITMAP
000000
000000
400400
300000
300000
03ff00
10c000
108200
11ff00
200200
780200
080400
080c00
101000
300000
ce0000
03ff00
000000
000000
ENDCHAR
STARTCHAR 2524
ENCODING 9508
SWIDTH 954 0
DWIDTH 18 0
BBX 18 19 0 -1
BITMAP
000000
000000
400000
31fe00
310400
010400
110400
110400
11fc00
210000
790200
090200
090300
10fe00
300000
ce0000
03ff00
000000
000000
ENDCHAR
STARTCHAR 2525
ENCODING 9509
SWIDTH 954 0
DWIDTH 18 0
BBX 18 19 0 -1
BITMAP
000000
002200
033f00
133200
133200
133400
133800
133200
fff300
333100
333100
333100
333100
333f00
333200
fff000
003000
000000
000000
ENDCHAR
STARTCHAR 2526
ENCODING 9510
SWIDTH 954 0
DWIDTH 18 0
BBX 18 19 0 -1
BITMAP
000000
082300
0c3f00
0c3200
0d3200
0c3400
0c3800
0d3200
7fb300
013100
233100
123100
0c3100
0a3f00
133200
213000
413000
000000
000000
ENDCHAR
STARTCHAR 2527
ENCODING 9511
SWIDTH 954 0
DWIDTH 18 0
BBX 18 19 0 -1
BITMAP
000000
082300
0c3f00
0cb200
fff200
0c3400
4cb800
4cb200
4cb300
4cb100
4cb100
4cb100
4cb100
4d3f00
4c3200
0c3000
0c3000
000000
000000
ENDCHAR
STARTCHAR 2528
ENCODING 9512
SWIDTH 954 0
DWIDTH 18 0
BBX 18 19 0 -1
BITMAP
000000
042200
063f00
043200
043200
34b400
34f800
247200
247300
85b100
053100
033100
023100
0c3f00
083200
203000
c03000
000000
000000
ENDCHAR
STARTCHAR 2529
ENCODING 9513
SWIDTH 954 0
DWIDTH 18 0
BBX 18 19 0 -1
BITMAP
000000
002300
003f00
fff200
083200
123400
133800
223000
623200
1c3300
0c3100
123100
313100
47bf00
fcb200
403000
003000
000000
000000
ENDCHAR
STARTCHAR 252a
ENCODING 9514
SWIDTH 954 0
DWIDTH 18 0
BBX 18 19 0 -1
BITMAP
000000
002300
023f00
783200
083200
083400
083800
093000
ffb200
083300
083100
083100
083100
0f3f00
fc3200
003000
003000
000000
000000
ENDCHAR
STARTCHAR 252b
ENCODING 9515
SWIDTH 954 0
DWIDTH 18 0
BBX 18 19 0 -1
BITMAP
000000
080800
0ffc00
0c0000
0c1000
0c0000
0c0000
0ff800
0c0000
0c0200
7fff00
070000
041000
080c00
100400
7fc200
3c0200
000000
000000
ENDCHAR
STARTCHAR 252c
ENCODING 9516
SWIDTH 954 0
DWIDTH 18 0
BBX 18 19 0 -1
BITMAP
000000
880000
fcc000
c8ff00
c90000
d10400
e3fe00
d00000
c80400
cc0c00
cc0800
cc2000
cc4200
d08200
c10200
c3ff00
c1fe00
000000
000000
ENDCHAR
STARTCHAR 252d
ENCODING 9517
SWIDTH 954 0
DWIDTH 18 0
BBX 18 19 0 -1
BITMAP
000000
880000
fc8c00
c8cc00
c8cc00
d0cc00
e08c00
d10700
ca0000
cdfe00
cc8400
cc4c00
cc4c00
d03000
c03000
c0cc00
c10700
000000
000000
ENDCHAR
STARTCHAR 252e
ENCODING 9518
SWIDTH 954 0
DWIDTH 18 0
BBX 18 19 0 -1
BITMAP
000000
4c2000
7c3000
4c3000
4c3000
40b300
53f300
48f000
4cf400
44f800
44bc00
44b400
4d3400
4b3300
423300
483000
40f000
000000
000000
ENDCHAR
STARTCHAR 252f
ENCODING 9519
SWIDTH 954 0
DWIDTH 18 0
BBX 18 19 0 -1
BITMAP
000000
200400
300600
322400
322400
322400
322400
300400
300400
300400
320400
322400
322400
222400
222400
422400
400400
000000
000000
ENDCHAR
STARTCHAR 2530
ENCODING 9520
SWIDTH 954 0
DWIDTH 18 0
BBX 18 19 0 -1
BITMAP
000000
100000
083000
ff2000
002000
022000
242000
192000
ff2000
082000
082000
7f2000
082100
082100
082100
083f00
083f00
000000
000000
ENDCHAR
STARTCHAR 2531
ENCODING 9521
SWIDTH 954 0
DWIDTH 18 0
BBX 18 19 0 -1
BITMAP
000000
000200
0c8f00
ffc000
08c300
0ec400
f8c400
088400
080400
120400
001000
003000
00c000
020200
0c0200
300300
3fff00
000000
000000
ENDCHAR
STARTCHAR 2532
ENCODING 9522
SWIDTH 954 0
DWIDTH 18 0
BBX 18 19 0 -1
BITMAP
000000
000200
7fff00
101000
181800
303000
243400
244400
3c2c00
081800
141000
222300
4f4f00
c3c100
404000
000300
ffff00
000000
000000
ENDCHAR
STARTCHAR 2533
ENCODING 9523
SWIDTH 954 0
DWIDTH 18 0
BBX 18 19 0 -1
BITMAP
000000
000000
00c000
008400
3ffe00
208000
3ffe00
308400
318400
22ac00
0cb000
208700
c08200
3ffc00
000000
000300
ffff00
000000
000000
ENDCHAR
STARTCHAR 2534
ENCODING 9524
SWIDTH 954 0
DWIDTH 18 0
BBX 18 19 0 -1
BITMAP
000000
020000
010000
00c000
008300
000000
000000
3fff00
200200
27f200
243200
243200
243200
242200
200200
3ffe00
200200
000000
000000
ENDCHAR
STARTCHAR 2535
ENCODING 9525
SWIDTH 954 0
DWIDTH 18 0
BBX 18 19 0 -1
BITMAP
000000
000000
0c0c00
080800
080800
141400
323200
020100
404100
0c0c00
080800
080800
180800
101400
323400
030300
424300
000000
000000
ENDCHAR
STARTCHAR 2536
ENCODING 9526
SWIDTH 954 0
DWIDTH 18 0
BBX 18 19 0 -1
BITMAP
000000
000000
0c0c00
180b00
100900
300800
300800
300800
73e800
308800
308800
308c00
308c00
370400
320400
300300
300100
000000
000000
ENDCHAR
STARTCHAR 2537
ENCODING 9527
SWIDTH 954 0
DWIDTH 18 0
BBX 18 19 0 -1
BITMAP
000000
002000
0c3200
183100
103000
303000
313000
313300
713200
37f200
313400
311400
331c00
320900
301d00
302300
30c300
000000
000000
ENDCHAR
STARTCHAR 2538
ENCODING 9528
SWIDTH 954 0
DWIDTH 18 0
BBX 18 19 0 -1
BITMAP
000000
002000
0c3000
183200
103f00
303000
303000
33ff00
703000
313000
31b400
313200
333300
303100
343000
303000
30f000
000000
000000
ENDCHAR
STARTCHAR 2539
ENCODING 9529
SWIDTH 954 0
DWIDTH 18 0
BBX 18 19 0 -1
BITMAP
000000
008000
0ccc00
18c800
10c800
33ff00
32cb00
32cb00
72cb00
32cb00
33ff00
32cb00
32cb00
32cb00
32cb00
33ff00
320300
000000
000000
ENDCHAR
STARTCHAR 253a
ENCODING 9530
SWIDTH 954 0
DWIDTH 18 0
BBX 18 19 0 -1
BITMAP
000000
211000
319800
391000
3d1000
2d3f00
2d2200
6d1200
ad5200
2d1200
2d1000
2f0400
290c00
211400
211000
210300
214300
000000
000000
ENDCHAR
STARTCHAR 253b
ENCODING 9531
SWIDTH 954 0
DWIDTH 18 0
BBX 18 19 0 -1
BITMAP
000000
004000
0c2000
122300
13ff00
340200
240000
700800
700b00
300800
300800
300800
308800
30c800
300800
300800
30f800
000000
000000
ENDCHAR
STARTCHAR 253c
ENCODING 9532
SWIDTH 954 0
DWIDTH 18 0
BBX 18 19 0 -1
BITMAP
000000
120300
1bff00
130000
330200
331000
231000
731000
731000
331000
331000
331000
331000
33ff00
330000
330300
33ff00
000000
000000
ENDCHAR
STARTCHAR 253d
ENCODING 9533
SWIDTH 954 0
DWIDTH 18 0
BBX 18 19 0 -1
BITMAP
000000
120000
1b0000
130200
13ff00
340000
260400
732400
732400
332500
3fff00
322400
324400
324500
37ff00
300c00
303c00
000000
000000
ENDCHAR
STARTCHAR 253e
ENCODING 9534
SWIDTH 954 0
DWIDTH 18 0
BBX 18 19 0 -1
BITMAP
000000
00c000
018000
022000
043000
082c00
17fe00
c00200
000c00
008000
008000
0c9000
08f800
088000
088000
088300
ffff00
000000
000000
ENDCHAR
STARTCHAR 253f
ENCODING 9535
SWIDTH 954 0
DWIDTH 18 0
BBX 18 19 0 -1
BITMAP
000000
000000
0c0c00
080800
888a00
c8c800
c8c800
c8c800
cac900
888800
080800
0c1400
141400
143400
342400
06c700
408300
000000
000000
ENDCHAR
STARTCHAR 2540
ENCODING 9536
SWIDTH 954 0
DWIDTH 18 0
BBX 18 19 0 -1
BITMAP
000000
000000
403000
23fe00
302400
002500
07ff00
002400
102400
302400
302000
e3fc00
402000
202200
27ff00
202000
202000
000000
000000
ENDCHAR
STARTCHAR 2541
ENCODING 9537
SWIDTH 954 0
DWIDTH 18 0
BBX 18 19 0 -1
BITMAP
000000
000000
40c000
31fe00
390400
0a8c00
004800
103000
107000
308c00
210300
edfc00
410400
610400
210400
21fc00
210400
000000
000000
ENDCHAR
STARTCHAR 2542
ENCODING 9538
SWIDTH 954 0
DWIDTH 18 0
BBX 18 19 0 -1
BITMAP
000000
000000
400200
220200
320200
0a2200
0a2200
02fa00
122200
322200
325200
e24a00
42ca00
228a00
220200
220200
23fe00
000000
000000
ENDCHAR
STARTCHAR 2543
ENCODING 9539
SWIDTH 954 0
DWIDTH 18 0
BBX 18 19 0 -1
BITMAP
000000
000000
40c000
21fc00
310800
081000
082400
004400
104400
3fff00
304400
e04400
43fc00
204000
204000
204000
23c000
000000
000000
ENDCHAR
STARTCHAR 2544
ENCODING 9540
SWIDTH 954 0
DWIDTH 18 0
BBX 18 19 0 -1
BITMAP
000000
000000
200400
300400
330400
323400
33f400
348400
388400
3ffc00
308400
36b400
34b400
24b200
24b200
442300
400100
000000
000000
ENDCHAR
STARTCHAR 2545
ENCODING 9541
SWIDTH 954 0
DWIDTH 18 0
BBX 18 19 0 -1
BITMAP
000000
200c00
3ffc00
300c00
302c00
310c00
330c00
37fc00
342c00
342c00
342c00
342c00
342d00
242d00
27e500
440300
400300
000000
000000
ENDCHAR
STARTCHAR 2546
ENCODING 9542
SWIDTH 954 0
DWIDTH 18 0
BBX 18 19 0 -1
BITMAP
000000
020000
434c00
144c00
0c4c00
334c00
424c00
094c00
ffcc00
104c00
144c00
344d00
3c4d00
094d00
53cd00
108f00
010700
000000
000000
ENDCHAR
STARTCHAR 2547
ENCODING 9543
SWIDTH 954 0
DWIDTH 18 0
BBX 18 19 0 -1
BITMAP
000000
080200
0c0300
0c1300
0c9b00
0c1300
0c1300
0c1300
0c1300
001300
001300
7f9300
411300
411300
410300
7f0300
410f00
000000
000000
ENDCHAR
STARTCHAR 2548
ENCODING 9544
SWIDTH 954 0
DWIDTH 18 0
BBX 18 19 0 -1
BITMAP
000000
080200
0c0300
0a1300
091b00
10d300
20d300
411300
bf9300
001300
001300
3f9300
211300
211300
210300
3f0300
210f00
000000
000000
ENDCHAR
STARTCHAR 2549
ENCODING 9545
SWIDTH 954 0
DWIDTH 18 0
BBX 18 19 0 -1
BITMAP
000000
020200
0f0300
0b0300
4b0f00
2b4b00
3b8b00
0b0b00
0b0b00
0b8b00
1bcb00
cb0b00
4b0b00
130300
130300
23e300
41cf00
000000
000000
ENDCHAR
STARTCHAR 254a
ENCODING 9546
SWIDTH 954 0
DWIDTH 18 0
BBX 18 19 0 -1
BITMAP
000000
000200
300300
201300
3f9b00
4c1300
4c1300
0c1300
0c9300
0c1300
0c1300
6cd300
4c9300
4c9300
4c8300
ff8300
400f00
000000
000000
ENDCHAR
STARTCHAR 254b
ENCODING 9547
SWIDTH 954 0
DWIDTH 18 0
BBX 18 19 0 -1
BITMAP
000000
000200
0c0300
1fd300
309b00
131300
4a1300
0c1300
081300
c4d300
0fd300
10d300
309300
0f1300
060300
080300
300f00
000000
000000
ENDCHAR
STARTCHAR 254c
ENCODING 9548
SWIDTH 954 0
DWIDTH 18 0
BBX 18 19 0 -1
BITMAP
000000
000200
0c0300
1fd300
109b00
311300
0b1300
861300
0f1300
10d300
30d300
ff9300
309300
309300
308300
3f8300
300f00
000000
000000
ENDCHAR
STARTCHAR 254d
ENCODING 9549
SWIDTH 954 0
DWIDTH 18 0
BBX 18 19 0 -1
BITMAP
000000
080200
0c0300
0c1300
121b00
311300
209300
7f5300
8c1300
0c1300
0c1300
3f1300
0c1300
0c1300
0c0300
0f8300
f80f00
000000
000000
ENDCHAR
STARTCHAR 254e
ENCODING 9550
SWIDTH 954 0
DWIDTH 18 0
BBX 18 19 0 -1
BITMAP
000000
080200
0c0300
0a0300
0b1300
309300
22d300
801300
001300
009300
7fd300
081300
121300
311300
308300
7cc300
308f00
000000
000000
ENDCHAR
STARTCHAR 254f
ENCODING 9551
SWIDTH 954 0
DWIDTH 18 0
BBX 18 19 0 -1
BITMAP
000000
021000
431800
301000
141000
327f00
321300
321300
321300
ff9300
321300
323300
323300
322300
222300
024300
429e00
000000
000000
ENDCHAR
STARTCHAR 2550
ENCODING 9552
SWIDTH 954 0
DWIDTH 18 0
BBX 18 19 0 -1
BITMAP
000000
000000
008300
083200
093200
313200
233200
0c2200
0c0200
220400
c30000
7ffe00
020400
040400
0c0400
100c00
20fc00
000000
000000
ENDCHAR
STARTCHAR 2551
ENCODING 9553
SWIDTH 954 0
DWIDTH 18 0
BBX 18 19 0 -1
BITMAP
000000
100000
180000
100200
3fff00
230200
030200
8c4200
083200
2fd200
c00200
0fc200
084200
084200
0fc600
000c00
01fc00
000000
000000
ENDCHAR
STARTCHAR 2552
ENCODING 9554
SWIDTH 954 0
DWIDTH 18 0
BBX 18 19 0 -1
BITMAP
000000
200000
300000
300200
3fff00
020200
442200
082200
0b2200
082200
7ffa00
0b2200
092200
102200
20c600
000c00
00fc00
000000
000000
ENDCHAR
STARTCHAR 2553
ENCODING 9555
SWIDTH 954 0
DWIDTH 18 0
BBX 18 19 0 -1
BITMAP
000000
000000
200400
308400
308400
3ffc00
308400
308400
3ffc00
066000
0c4000
304300
ffff00
004000
004000
004000
004000
000000
000000
ENDCHAR
STARTCHAR 2554
ENCODING 9556
SWIDTH 954 0
DWIDTH 18 0
BBX 18 19 0 -1
BITMAP
000000
008000
00c000
00fe00
30c000
2ffe00
2c0400
2e1c00
2d1400
2ce400
2c4400
2cb400
2d3400
2c0400
2ffc00
200300
7fff00
000000
000000
ENDCHAR
STARTCHAR 2555
ENCODING 9557
SWIDTH 954 0
DWIDTH 18 0
BBX 18 19 0 -1
BITMAP
000000
020800
0f0c00
0b0c00
8b3c00
4b4c00
2b4c00
0b0f00
0b0d00
2b0d00
cbcc00
0b2c00
132c00
332c00
332c00
03fc00
41ec00
000000
000000
ENDCHAR
STARTCHAR 2556
ENCODING 9558
SWIDTH 954 0
DWIDTH 18 0
BBX 18 19 0 -1
BITMAP
000000
020300
237f00
0c3300
0a3300
213300
c93300
0c3300
0cb300
083300
083300
3c3300
3d3f00
48b000
48b000
3ef000
18b000
000000
000000
ENDCHAR
STARTCHAR 2557
ENCODING 9559
SWIDTH 954 0
DWIDTH 18 0
BBX 18 19 0 -1
BITMAP
000000
200000
300000
213f00
3fb300
4c3300
8c3300
0cb300
fff300
0c3300
4c3300
4cb300
4cb300
4cbf00
4cb200
ffb000
403000
000000
000000
ENDCHAR
STARTCHAR 2558
ENCODING 9560
SWIDTH 954 0
DWIDTH 18 0
BBX 18 19 0 -1
BITMAP
000000
000000
000300
208000
20c000
20c400
20fe00
20c000
20c300
204000
204000
234000
224c00
044200
484300
504000
83c000
000000
000000
ENDCHAR
STARTCHAR 2559
ENCODING 9561
SWIDTH 954 0
DWIDTH 18 0
BBX 18 19 0 -1
BITMAP
000000
000000
00c000
ffff00
008000
3ffe00
308400
3ffc00
308400
3ffc00
210400
030000
031000
040800
0c0c00
1fc600
0c0600
000000
000000
ENDCHAR
STARTCHAR 255a
ENCODING 9562
SWIDTH 954 0
DWIDTH 18 0
BBX 18 19 0 -1
BITMAP
000000
000000
408000
40bf00
40a300
7fa300
442300
441200
549200
549400
548400
548c00
548c00
549400
57b200
844300
84c300
000000
000000
ENDCHAR
STARTCHAR 255b
ENCODING 9563
SWIDTH 954 0
DWIDTH 18 0
BBX 18 19 0 -1
BITMAP
000000
004000
002000
fc2200
cbff00
c83000
c83000
c83000
c83000
c9fe00
c83000
c83000
c83000
c03000
803000
07ff00
000000
000000
000000
ENDCHAR
STARTCHAR 255c
ENCODING 9564
SWIDTH 954 0
DWIDTH 18 0
BBX 18 19 0 -1
BITMAP
000000
000000
00c400
f8c400
d0c400
d0c400
d3c400
d20400
d20400
d7cc00
d0cc00
d0c800
d0ca00
d0d100
80d100
01b900
0f3100
000000
000000
ENDCHAR
STARTCHAR 255d
ENCODING 9565
SWIDTH 954 0
DWIDTH 18 0
BBX 18 19 0 -1
BITMAP
000000
004800
006400
7c4000
4c4100
4c4000
4c4000
4c4300
4ce200
4ce400
4ca400
4c9c00
4d1c00
4b1800
423c00
044200
008300
000000
000000
ENDCHAR
STARTCHAR 255e
ENCODING 9566
SWIDTH 954 0
DWIDTH 18 0
BBX 18 19 0 -1
BITMAP
000000
000000
000200
7c2200
4c2200
4c4200
4c4200
4c8600
4d3c00
4c0000
4d0200
4d0200
4d0200
490200
410200
01fe00
010000
000000
000000
ENDCHAR
STARTCHAR 255f
ENCODING 9567
SWIDTH 954 0
DWIDTH 18 0
BBX 18 19 0 -1
BITMAP
000000
000000
000200
7c8200
4c8200
4c8200
4c8200
4c8200
4c8200
4cfe00
4c8000
4c0000
4c8400
488200
410300
020100
0c0100
000000
000000
ENDCHAR
STARTCHAR 2560
ENCODING 9568
SWIDTH 954 0
DWIDTH 18 0
BBX 18 19 0 -1
BITMAP
000000
010000
018c00
fd6800
c94800
cb4b00
cb4f00
cfcb00
cb4b00
cb4a00
cb4800
cb4800
cb4900
c34100
834100
037f00
033f00
000000
000000
ENDCHAR
STARTCHAR 2561
ENCODING 9569
SWIDTH 954 0
DWIDTH 18 0
BBX 18 19 0 -1
BITMAP
000000
002000
003000
fc2000
c84800
c88400
c92200
cc3100
c83000
c8f400
c8b000
c93300
c93300
c03100
843100
003000
00f000
000000
000000
ENDCHAR
STARTCHAR 2562
ENCODING 9570
SWIDTH 954 0
DWIDTH 18 0
BBX 18 19 0 -1
BITMAP
000000
002000
003000
fc3200
cbff00
c83000
c83000
c8e600
c88400
c88400
cbff00
c88400
c88400
c10400
830400
040400
0c0400
000000
000000
ENDCHAR
STARTCHAR 2563
ENCODING 9571
SWIDTH 954 0
DWIDTH 18 0
BBX 18 19 0 -1
BITMAP
000000
000000
000300
4c0300
7c0300
4dff00
4c0300
4c1300
4cfb00
4c9300
4c9300
4c9300
4cf300
480300
400300
000300
000f00
000000
000000
ENDCHAR
STARTCHAR 2564
ENCODING 9572
SWIDTH 954 0
DWIDTH 18 0
BBX 18 19 0 -1
BITMAP
000000
000400
000e00
8bc000
ff0300
cb0300
cb0300
cbff00
cb0200
cbfc00
cb0c00
cb1000
fb3000
824100
02c100
0cff00
087f00
000000
000000
ENDCHAR
STARTCHAR 2565
ENCODING 9573
SWIDTH 954 0
DWIDTH 18 0
BBX 18 19 0 -1
BITMAP
000000
202000
303000
31ff00
330300
fe0000
300000
33ff00
301000
301000
301000
301000
301000
3c1000
e01000
001000
00f000
000000
000000
ENDCHAR
STARTCHAR 2566
ENCODING 9574
SWIDTH 954 0
DWIDTH 18 0
BBX 18 19 0 -1
BITMAP
000000
202000
303000
33ff00
320100
fc2200
301000
30c000
30c800
30c800
30cc00
308c00
308400
f10400
c30200
000300
040300
000000
000000
ENDCHAR
STARTCHAR 2567
ENCODING 9575
SWIDTH 954 0
DWIDTH 18 0
BBX 18 19 0 -1
BITMAP
000000
202000
303000
303000
303100
fc3000
303000
303000
303200
303000
303000
30f800
30bc00
e33600
c23300
083100
003000
000000
000000
ENDCHAR
STARTCHAR 2568
ENCODING 9576
SWIDTH 954 0
DWIDTH 18 0
BBX 18 19 0 -1
BITMAP
000000
208000
30c800
30c400
30c100
fcc000
30c000
30e300
30e200
30a200
30a400
311c00
311c00
e23800
c02c00
08c200
010300
000000
000000
ENDCHAR
STARTCHAR 2569
ENCODING 9577
SWIDTH 954 0
DWIDTH 18 0
BBX 18 19 0 -1
BITMAP
000000
200200
323f00
332400
332400
ff2400
332400
332400
332400
332400
334000
334200
334200
f2ca00
c28f00
04cf00
048900
000000
000000
ENDCHAR
STARTCHAR 256a
ENCODING 9578
SWIDTH 954 0
DWIDTH 18 0
BBX 18 19 0 -1
BITMAP
000000
060000
041000
080c00
10fc00
310200
018000
030300
ffff00
0c0c00
08c600
208100
c08c00
008000
008000
008300
ffff00
000000
000000
ENDCHAR
STARTCHAR 256b
ENCODING 9579
SWIDTH 954 0
DWIDTH 18 0
BBX 18 19 0 -1
BITMAP
000000
000800
1ffc00
008000
088800
049000
04a000
3ffe00
008000
008000
000000
008000
008c00
008000
008000
008300
ffff00
000000
000000
ENDCHAR
STARTCHAR 256c
ENCODING 9580
SWIDTH 954 0
DWIDTH 18 0
BBX 18 19 0 -1
BITMAP
000000
000000
0c0000
08fe00
7e8400
088400
088400
ff4c00
004c00
0c0800
082800
7f3000
083000
082800
084c00
f08300
410300
000000
000000
ENDCHAR
STARTCHAR 256d
ENCODING 9581
SWIDTH 954 0
DWIDTH 18 0
BBX 18 19 0 -1
BITMAP
000000
220200
33ff00
330200
330200
3bfe00
ff0000
333000
332000
33fc00
332c00
332c00
332c00
e24d00
424d00
048f00
080700
000000
000000
ENDCHAR
STARTCHAR 256e
ENCODING 9582
SWIDTH 954 0
DWIDTH 18 0
BBX 18 19 0 -1
BITMAP
000000
200000
324300
334b00
334b00
3b4b00
ff4b00
334b00
334b00
334b00
337b00
330300
330300
3f0300
f30300
03ff00
030300
000000
000000
ENDCHAR
STARTCHAR 256f
ENCODING 9583
SWIDTH 954 0
DWIDTH 18 0
BBX 18 19 0 -1
BITMAP
000000
000200
7fff00
00c800
108c00
0d0800
0b5000
0c0c00
100600
c30300
020000
07fc00
0c0800
333000
40c000
021800
0c0f00
000000
000000
ENDCHAR
STARTCHAR 2570
ENCODING 9584
SWIDTH 954 0
DWIDTH 18 0
BBX 18 19 0 -1
BITMAP
000000
001000
301800
20d000
209000
3cff00
4c9000
4d1000
4e1000
7c1000
981200
081000
101000
301000
301000
001300
43ff00
000000
000000
ENDCHAR
STARTCHAR 2571
ENCODING 9585
SWIDTH 954 0
DWIDTH 18 0
BBX 18 19 0 -1
BITMAP
000000
010000
018000
ffff00
033000
040800
0c0c00
141300
223100
3ffc00
008000
008000
008400
008000
008000
008000
008000
000000
000000
ENDCHAR
STARTCHAR 2572
ENCODING 9586
SWIDTH 954 0
DWIDTH 18 0
BBX 18 19 0 -1
BITMAP
000000
010000
018000
ffff00
023000
0c0800
080c00
300300
3ffd00
080000
080800
080800
080800
0ff800
080000
080200
7fff00
000000
000000
ENDCHAR
STARTCHAR 2573
ENCODING 9587
SWIDTH 954 0
DWIDTH 18 0
BBX 18 19 0 -1
BITMAP
000000
010000
018000
ffff00
033000
040800
0c0c00
101300
2ff900
0c1000
0c1000
0c1000
0c1000
0ff000
0c1000
0c1300
ffff00
000000
000000
ENDCHAR
STARTCHAR 2574
ENCODING 9588
SWIDTH 954 0
DWIDTH 18 0
BBX 18 19 0 -1
BITMAP
000000
010000
018000
ffff00
033000
040800
0d8c00
121300
240100
1f8c00
080c00
043000
043200
043000
0c3000
103000
303000
000000
000000
ENDCHAR
STARTCHAR 2575
ENCODING 9589
SWIDTH 954 0
DWIDTH 18 0
BBX 18 19 0 -1
BITMAP
000000
020000
030000
ffff00
021000
0c0c00
081600
2fc100
c84000
084400
0ffe00
082000
082000
081200
090a00
0c1700
0df300
000000
000000
ENDCHAR
STARTCHAR 2576
ENCODING 9590
SWIDTH 954 0
DWIDTH 18 0
BBX 18 19 0 -1
BITMAP
000000
010000
018000
ffff00
033000
040800
0c0c00
10fb00
2f8100
088000
088000
088000
108800
110c00
332400
04f300
4f9300
000000
000000
ENDCHAR
STARTCHAR 2577
ENCODING 9591
SWIDTH 954 0
DWIDTH 18 0
BBX 18 19 0 -1
BITMAP
000000
010000
018000
120c00
1ffc00
100c00
100c00
100c00
100c00
1ffc00
110800
010300
ffff00
023000
041000
080e00
300700
000000
000000
ENDCHAR
STARTCHAR 2578
ENCODING 9592
SWIDTH 954 0
DWIDTH 18 0
BBX 18 19 0 -1
BITMAP
000000
000000
0c0c00
080800
0a0a00
080800
080800
0a0900
ffff00
080800
080800
141400
101400
323000
322200
00c300
408300
000000
000000
ENDCHAR
STARTCHAR 2579
ENCODING 9593
SWIDTH 954 0
DWIDTH 18 0
BBX 18 19 0 -1
BITMAP
000000
010000
018000
010300
ffff00
133300
0a1200
0ffc00
080600
200b00
dffc00
020000
040c00
040c00
000c00
001800
00f000
000000
000000
ENDCHAR
STARTCHAR 257a
ENCODING 9594
SWIDTH 954 0
DWIDTH 18 0
BBX 18 19 0 -1
BITMAP
000000
000000
0c3000
0a2200
0f2200
28ff00
282200
242200
044200
74c400
54c400
0dec00
08b800
103400
102200
20c300
010100
000000
000000
ENDCHAR
STARTCHAR 257b
ENCODING 9595
SWIDTH 954 0
DWIDTH 18 0
BBX 18 19 0 -1
BITMAP
000000
001000
301800
2c1000
2c1000
ec1f00
2c1000
2c1000
2c1000
4cff00
488300
e88300
708300
3c8300
2c8300
40ff00
808200
000000
000000
ENDCHAR
STARTCHAR 257c
ENCODING 9596
SWIDTH 954 0
DWIDTH 18 0
BBX 18 19 0 -1
BITMAP
000000
000000
300c00
208800
2c8800
fd3f00
ed4b00
2e4b00
2fcb00
4c8b00
4c8b00
690b00
114b00
3ed300
371300
402300
805e00
000000
000000
ENDCHAR
STARTCHAR 257d
ENCODING 9597
SWIDTH 954 0
DWIDTH 18 0
BBX 18 19 0 -1
BITMAP
000000
001000
301a00
2c1100
2d1000
ed1000
2d1000
2d1300
2d1300
4d0b00
490a00
e90c00
710c00
3d4c00
2dcc00
403300
802100
000000
000000
ENDCHAR
STARTCHAR 257e
ENCODING 9598
SWIDTH 954 0
DWIDTH 18 0
BBX 18 19 0 -1
BITMAP
000000
001000
301a00
289300
2c9300
fc0200
ec0000
2dff00
2d0000
4d0000
4d0000
690000
110000
3d0000
350000
430000
820000
000000
000000
ENDCHAR
STARTCHAR 2621
ENCODING 9761
SWIDTH 954 0
DWIDTH 18 0
BBX 18 19 0 -1
BITMAP
000000
008000
32c000
231f00
2b5300
ff5300
ef5300
2f5300
2f5300
4f5300
4f5300
eb5300
73d300
3d5200
34d000
409000
811000
000000
000000
ENDCHAR
STARTCHAR 2622
ENCODING 9762
SWIDTH 954 0
DWIDTH 18 0
BBX 18 19 0 -1
BITMAP
000000
002000
023000
023000
042000
084300
08c100
09f900
08c100
f80000
488300
08c300
08c300
08c300
08c300
08ff00
78c200
000000
000000
ENDCHAR
STARTCHAR 2623
ENCODING 9763
SWIDTH 954 0
DWIDTH 18 0
BBX 18 19 0 -1
BITMAP
000000
000000
10c800
0c8800
0c9000
7fff00
400300
c01000
1ff800
002000
00c000
ffff00
008000
008000
008000
008000
0f8000
000000
000000
ENDCHAR
STARTCHAR 2624
ENCODING 9764
SWIDTH 954 0
DWIDTH 18 0
BBX 18 19 0 -1
BITMAP
000000
002000
0c3000
ffb000
083000
493000
7fb000
c13000
023000
023000
043000
0d3000
0e3100
6c3100
0c3100
0c3f00
3c1f00
000000
000000
ENDCHAR
STARTCHAR 2625
ENCODING 9765
SWIDTH 954 0
DWIDTH 18 0
BBX 18 19 0 -1
BITMAP
000000
020000
010000
000300
3fff00
c01200
5ff800
020000
021000
041000
041000
0c3000
08b000
002000
002000
004300
ffff00
000000
000000
ENDCHAR
STARTCHAR 2626
ENCODING 9766
SWIDTH 954 0
DWIDTH 18 0
BBX 18 19 0 -1
BITMAP
000000
000000
100c00
100c00
100c00
100c00
100c00
000000
000c00
001000
001000
ffff00
001000
0c1000
0c1000
001000
01f000
000000
000000
ENDCHAR
STARTCHAR 2627
ENCODING 9767
SWIDTH 954 0
DWIDTH 18 0
BBX 18 19 0 -1
BITMAP
000000
100000
180c00
108b00
10ff00
ffca00
14c800
14fe00
14e200
14e200
34d400
348800
249400
252200
04c000
47ff00
c3ff00
000000
000000
ENDCHAR
STARTCHAR 2628
ENCODING 9768
SWIDTH 954 0
DWIDTH 18 0
BBX 18 19 0 -1
BITMAP
000000
100000
184000
104000
104000
feff00
3c4000
3cc000
3cfe00
3c9000
3c1000
3e1000
2cff00
2c0100
0c0100
4fff00
47ff00
000000
000000
ENDCHAR
STARTCHAR 2629
ENCODING 9769
SWIDTH 954 0
DWIDTH 18 0
BBX 18 19 0 -1
BITMAP
000000
040000
200000
33fe00
231000
411000
a41000
347c00
341000
341000
341000
341200
34ff00
240100
040100
47ff00
43ff00
000000
000000
ENDCHAR
STARTCHAR 262a
ENCODING 9770
SWIDTH 954 0
DWIDTH 18 0
BBX 18 19 0 -1
BITMAP
000000
200200
3fff00
300200
300200
300000
300c00
3fc000
300000
30cc00
3ffc00
303000
306000
218000
230000
5fff00
90ff00
000000
000000
ENDCHAR
STARTCHAR 262b
ENCODING 9771
SWIDTH 954 0
DWIDTH 18 0
BBX 18 19 0 -1
BITMAP
000000
000200
3fff00
200200
200200
220000
231000
2d0600
298300
290800
2ffc00
271000
2d3000
20c000
00a000
420c00
4c0700
000000
000000
ENDCHAR
STARTCHAR 262c
ENCODING 9772
SWIDTH 954 0
DWIDTH 18 0
BBX 18 19 0 -1
BITMAP
000000
000200
3fff00
200200
200200
3ffe00
204000
204c00
247c00
244000
244000
2fff00
24c200
014200
434200
4c5c00
904c00
000000
000000
ENDCHAR
STARTCHAR 262d
ENCODING 9773
SWIDTH 954 0
DWIDTH 18 0
BBX 18 19 0 -1
BITMAP
000000
000000
20c400
310400
330400
240400
080000
5ffc00
100c00
108c00
100f00
300c00
330c00
310e00
3fff00
001800
00f000
000000
000000
ENDCHAR
STARTCHAR 262e
ENCODING 9774
SWIDTH 954 0
DWIDTH 18 0
BBX 18 19 0 -1
BITMAP
000000
201000
301800
301300
301100
b4ff00
b49000
b49100
b49100
b48b00
b48b00
b48a00
b48c00
b4ac00
fccc00
80b200
002300
000000
000000
ENDCHAR
STARTCHAR 262f
ENCODING 9775
SWIDTH 954 0
DWIDTH 18 0
BBX 18 19 0 -1
BITMAP
000000
200000
310200
310200
310200
b50200
b50200
b50200
b5fe00
b44800
b44800
b44800
b4c900
b48900
fc8900
830f00
020f00
000000
000000
ENDCHAR
STARTCHAR 2630
ENCODING 9776
SWIDTH 954 0
DWIDTH 18 0
BBX 18 19 0 -1
BITMAP
000000
200200
301f00
308300
30ff00
b48300
b48300
b48000
b48200
b48200
b48400
b48800
b49000
b4a000
fc4000
817f00
023f00
000000
000000
ENDCHAR
STARTCHAR 2631
ENCODING 9777
SWIDTH 954 0
DWIDTH 18 0
BBX 18 19 0 -1
BITMAP
000000
000000
20c400
308400
3ffc00
000800
0ffc00
080800
080800
000000
000300
0c0000
080800
000800
000800
001000
03f000
000000
000000
ENDCHAR
STARTCHAR 2632
ENCODING 9778
SWIDTH 954 0
DWIDTH 18 0
BBX 18 19 0 -1
BITMAP
000000
000000
000800
001000
003000
04c300
7ec400
04d000
0cc800
10c600
33c300
c00000
000000
308300
208200
208200
7ffe00
000000
000000
ENDCHAR
STARTCHAR 2633
ENCODING 9779
SWIDTH 954 0
DWIDTH 18 0
BBX 18 19 0 -1
BITMAP
000000
000000
20c400
308400
308400
200400
000000
3ffe00
200000
240800
27fc00
240800
240800
240000
240000
200200
7fff00
000000
000000
ENDCHAR
STARTCHAR 2634
ENCODING 9780
SWIDTH 954 0
DWIDTH 18 0
BBX 18 19 0 -1
BITMAP
000000
000000
00c000
308600
308400
308400
3ffc00
000000
000000
3ffe00
308400
308400
308400
308400
308400
308400
3ffc00
000000
000000
ENDCHAR
STARTCHAR 2635
ENCODING 9781
SWIDTH 954 0
DWIDTH 18 0
BBX 18 19 0 -1
BITMAP
000000
201000
300800
30ff00
b48100
b40200
b40000
b4ff00
b40800
b40800
b40800
b40800
b40800
bc0800
b40800
300800
307800
000000
000000
ENDCHAR
STARTCHAR 2636
ENCODING 9782
SWIDTH 954 0
DWIDTH 18 0
BBX 18 19 0 -1
BITMAP
000000
204000
306000
304200
b47f00
b48400
b40400
b43800
b41000
b42c00
b44600
b49900
b70c00
bc0000
b42000
300c00
300c00
000000
000000
ENDCHAR
STARTCHAR 2637
ENCODING 9783
SWIDTH 954 0
DWIDTH 18 0
BBX 18 19 0 -1
BITMAP
000000
300000
324400
224400
024400
945c00
044d00
084100
107f00
c0c000
008000
3ffe00
308400
308400
308400
30bc00
208c00
000000
000000
ENDCHAR
STARTCHAR 2638
ENCODING 9784
SWIDTH 954 0
DWIDTH 18 0
BBX 18 19 0 -1
BITMAP
000000
008000
00c000
3fff00
200000
204000
204000
2fff00
200000
200c00
220c00
210800
210800
209000
00b000
4fff00
400000
000000
000000
ENDCHAR
STARTCHAR 2639
ENCODING 9785
SWIDTH 954 0
DWIDTH 18 0
BBX 18 19 0 -1
BITMAP
000000
008000
00c000
3fff00
200000
218c00
210800
2fff00
210400
210400
238c00
234800
225000
243000
044800
410600
520300
000000
000000
ENDCHAR
STARTCHAR 263a
ENCODING 9786
SWIDTH 954 0
DWIDTH 18 0
BBX 18 19 0 -1
BITMAP
000000
008000
00c000
3fff00
200000
240400
27fe00
240400
240400
27fc00
240400
240400
240400
240400
000000
400300
5fff00
000000
000000
ENDCHAR
STARTCHAR 263b
ENCODING 9787
SWIDTH 954 0
DWIDTH 18 0
BBX 18 19 0 -1
BITMAP
000000
008000
00c000
3fff00
200000
200000
200400
220400
220400
220400
220400
23fc00
200400
210800
030400
440300
4c0300
000000
000000
ENDCHAR
STARTCHAR 263c
ENCODING 9788
SWIDTH 954 0
DWIDTH 18 0
BBX 18 19 0 -1
BITMAP
000000
008000
00c000
3fff00
200000
230000
220000
23ff00
204000
244000
287e00
204000
204000
204000
004000
404000
404000
000000
000000
ENDCHAR
STARTCHAR 263d
ENCODING 9789
SWIDTH 954 0
DWIDTH 18 0
BBX 18 19 0 -1
BITMAP
000000
008000
00c000
3fff00
200000
206000
204000
208800
210c00
220300
240200
23fc00
200c00
211000
00f000
403000
403000
000000
000000
ENDCHAR
STARTCHAR 263e
ENCODING 9790
SWIDTH 954 0
DWIDTH 18 0
BBX 18 19 0 -1
BITMAP
000000
008000
00c000
3fff00
200000
230000
230c00
224000
224000
284000
204000
2fff00
20d000
010c00
430400
440300
880300
000000
000000
ENDCHAR
STARTCHAR 263f
ENCODING 9791
SWIDTH 954 0
DWIDTH 18 0
BBX 18 19 0 -1
BITMAP
000000
000000
00c000
3ffc00
008000
008200
7fff00
043000
083f00
480000
0c1000
0c1300
ffff00
0c1000
081000
301000
201000
000000
000000
ENDCHAR
STARTCHAR 2640
ENCODING 9792
SWIDTH 954 0
DWIDTH 18 0
BBX 18 19 0 -1
BITMAP
000000
000000
0c0300
0c8300
0c8300
4c8300
7cff00
409000
c09000
fcff00
0c9000
0c9000
0c8800
0c8d00
0c8d00
08a300
f0c300
000000
000000
ENDCHAR
STARTCHAR 2641
ENCODING 9793
SWIDTH 954 0
DWIDTH 18 0
BBX 18 19 0 -1
BITMAP
000000
001000
0c1800
0c1300
0cff00
4c9200
7c9000
409000
c0fe00
fca200
0ca200
0c9400
0c9400
0c0800
0d1c00
0a2200
f04300
000000
000000
ENDCHAR
STARTCHAR 2642
ENCODING 9794
SWIDTH 954 0
DWIDTH 18 0
BBX 18 19 0 -1
BITMAP
000000
060000
041000
0c1000
083000
002000
002300
130000
328000
4cc400
8ffe00
38c400
28c400
08c400
08c400
00cc00
00c000
000000
000000
ENDCHAR
STARTCHAR 2643
ENCODING 9795
SWIDTH 954 0
DWIDTH 18 0
BBX 18 19 0 -1
BITMAP
000000
000000
0c0000
080400
080c00
0f1000
083200
080200
080400
4b0800
7f1100
43c300
430200
430c00
430800
7f2000
42c000
000000
000000
ENDCHAR
STARTCHAR 2644
ENCODING 9796
SWIDTH 954 0
DWIDTH 18 0
BBX 18 19 0 -1
BITMAP
000000
000c00
107e00
100000
100000
1fff00
103000
103000
303000
203000
003000
88c000
0c4000
0c0300
4c0100
cff900
07f000
000000
000000
ENDCHAR
STARTCHAR 2645
ENCODING 9797
SWIDTH 954 0
DWIDTH 18 0
BBX 18 19 0 -1
BITMAP
000000
00c000
018000
022000
043000
142700
263200
043000
043000
083000
003000
088000
0cc000
2c0000
0c0200
cff900
47f100
000000
000000
ENDCHAR
STARTCHAR 2646
ENCODING 9798
SWIDTH 954 0
DWIDTH 18 0
BBX 18 19 0 -1
BITMAP
000000
200000
302000
321300
33ff00
720200
780000
fbff00
f03000
303000
303000
303000
303000
303000
303000
303000
30f000
000000
000000
ENDCHAR
STARTCHAR 2647
ENCODING 9799
SWIDTH 954 0
DWIDTH 18 0
BBX 18 19 0 -1
BITMAP
000000
202000
303000
303000
303300
703000
783000
f83000
f03200
303000
303000
30f400
30f400
313300
333300
343000
303000
000000
000000
ENDCHAR
STARTCHAR 2648
ENCODING 9800
SWIDTH 954 0
DWIDTH 18 0
BBX 18 19 0 -1
BITMAP
000000
202000
303000
303000
303000
7bff00
7c2000
f04800
f0cc00
313200
323300
303000
31fe00
303000
303000
303000
303000
000000
000000
ENDCHAR
STARTCHAR 2649
ENCODING 9801
SWIDTH 954 0
DWIDTH 18 0
BBX 18 19 0 -1
BITMAP
000000
200000
303000
302300
33ff00
78c000
7cc400
f10200
f31f00
33d300
30d000
30d000
30d100
309100
311100
321f00
340f00
000000
000000
ENDCHAR
STARTCHAR 264a
ENCODING 9802
SWIDTH 954 0
DWIDTH 18 0
BBX 18 19 0 -1
BITMAP
000000
200000
320300
333300
333300
7b3300
7fff00
f33300
f33300
33ff00
333200
303000
303000
303000
303000
303000
303000
000000
000000
ENDCHAR
STARTCHAR 264b
ENCODING 9803
SWIDTH 954 0
DWIDTH 18 0
BBX 18 19 0 -1
BITMAP
000000
200000
300200
308200
308200
789200
7c9200
f08200
f3ff00
310200
313200
311200
310200
33ff00
310400
300c00
30f800
000000
000000
ENDCHAR
STARTCHAR 264c
ENCODING 9804
SWIDTH 954 0
DWIDTH 18 0
BBX 18 19 0 -1
BITMAP
000000
202000
303000
31b300
313200
793200
7d3200
f3fe00
f13000
303000
323200
333300
333300
333300
333300
33ff00
320300
000000
000000
ENDCHAR
STARTCHAR 264d
ENCODING 9805
SWIDTH 954 0
DWIDTH 18 0
BBX 18 19 0 -1
BITMAP
000000
204000
306000
304200
30ff00
788400
7c0400
f23800
f01000
302c00
304600
311900
320c00
300000
302000
300c00
300c00
000000
000000
ENDCHAR
STARTCHAR 264e
ENCODING 9806
SWIDTH 954 0
DWIDTH 18 0
BBX 18 19 0 -1
BITMAP
000000
208000
30c300
30c200
308200
793f00
7d8200
f28200
f0a200
309200
308a00
308200
308200
308200
308200
308200
30be00
000000
000000
ENDCHAR
STARTCHAR 264f
ENCODING 9807
SWIDTH 954 0
DWIDTH 18 0
BBX 18 19 0 -1
BITMAP
000000
200000
300200
31f000
311000
791000
7d1000
f1ff00
f11000
311000
311000
310900
310900
314d00
31c500
300b00
31fd00
000000
000000
ENDCHAR
STARTCHAR 2650
ENCODING 9808
SWIDTH 954 0
DWIDTH 18 0
BBX 18 19 0 -1
BITMAP
000000
000200
7fff00
030000
030800
020800
020800
040800
040b00
000000
010000
0cc000
0cc400
2c0200
2c0300
4ffb00
47f000
000000
000000
ENDCHAR
STARTCHAR 2651
ENCODING 9809
SWIDTH 954 0
DWIDTH 18 0
BBX 18 19 0 -1
BITMAP
000000
204000
302000
305000
30c800
790600
7f0300
f40000
b00400
302000
302000
302000
302000
302000
302000
302300
37ff00
000000
000000
ENDCHAR
STARTCHAR 2652
ENCODING 9810
SWIDTH 954 0
DWIDTH 18 0
BBX 18 19 0 -1
BITMAP
000000
000000
300200
243200
203200
ff3200
20fe00
243200
263200
34fe00
3c3200
383200
183200
1a2200
3a0200
064300
428300
000000
000000
ENDCHAR
STARTCHAR 2653
ENCODING 9811
SWIDTH 954 0
DWIDTH 18 0
BBX 18 19 0 -1
BITMAP
000000
002000
003400
003300
003200
003000
0c3000
0a3300
113300
20f300
dfb200
011400
3f8c00
010800
031c00
002200
044300
000000
000000
ENDCHAR
STARTCHAR 2654
ENCODING 9812
SWIDTH 954 0
DWIDTH 18 0
BBX 18 19 0 -1
BITMAP
000000
211000
319800
311300
239100
405000
845000
001000
001000
001200
001200
001400
000c00
001800
003c00
004200
008300
000000
000000
ENDCHAR
STARTCHAR 2655
ENCODING 9813
SWIDTH 954 0
DWIDTH 18 0
BBX 18 19 0 -1
BITMAP
000000
000c00
00fe00
200000
200200
200200
200200
3ffe00
208000
20c000
20c200
20c000
24c800
0cc000
08c200
50c300
a0c000
000000
000000
ENDCHAR
STARTCHAR 2656
ENCODING 9814
SWIDTH 954 0
DWIDTH 18 0
BBX 18 19 0 -1
BITMAP
000000
000c00
00fe00
200000
200200
200200
200200
3ffe00
200000
240800
241000
27fc00
250400
24c800
0c3000
40cc00
530700
000000
000000
ENDCHAR
STARTCHAR 2657
ENCODING 9815
SWIDTH 954 0
DWIDTH 18 0
BBX 18 19 0 -1
BITMAP
000000
040000
060200
24f000
241000
241000
241200
041000
041000
3c1000
241100
241000
241000
241000
241000
441000
44f000
000000
000000
ENDCHAR
STARTCHAR 2658
ENCODING 9816
SWIDTH 954 0
DWIDTH 18 0
BBX 18 19 0 -1
BITMAP
000000
200000
303000
311300
31ff00
320200
321000
300000
308000
3cc800
f0c800
308c00
308c00
310400
330200
320300
f00100
000000
000000
ENDCHAR
STARTCHAR 2659
ENCODING 9817
SWIDTH 954 0
DWIDTH 18 0
BBX 18 19 0 -1
BITMAP
000000
200000
300000
301000
301000
304200
306200
304400
314c00
3d4a00
f14900
335100
327100
30c000
30c000
337e00
f43c00
000000
000000
ENDCHAR
STARTCHAR 265a
ENCODING 9818
SWIDTH 954 0
DWIDTH 18 0
BBX 18 19 0 -1
BITMAP
000000
000000
0c0c00
090800
ff0900
080800
7f0800
4b0b00
4b7f00
4b0300
4b2300
4b1200
4b1400
4f0c00
4a1c00
082300
08c300
000000
000000
ENDCHAR
STARTCHAR 265b
ENCODING 9819
SWIDTH 954 0
DWIDTH 18 0
BBX 18 19 0 -1
BITMAP
000000
081000
4c1800
4c1000
4c1200
4c1000
4c1000
4c1200
4cff00
4c0200
4c0200
4c2400
4c3c00
4d1800
4d3c00
674200
00c300
000000
000000
ENDCHAR
STARTCHAR 265c
ENCODING 9820
SWIDTH 954 0
DWIDTH 18 0
BBX 18 19 0 -1
BITMAP
000000
002000
0c3000
483000
492000
c93f00
890200
086200
08a200
142400
142400
141c00
341c00
249800
253c00
424200
80c300
000000
000000
ENDCHAR
STARTCHAR 265d
ENCODING 9821
SWIDTH 954 0
DWIDTH 18 0
BBX 18 19 0 -1
BITMAP
000000
082000
4c3000
4c3000
4c2000
4c3f00
4f0200
4c6200
4ca200
4c2400
4c2400
4c1c00
4c1c00
4c9800
4fbc00
204200
00c300
000000
000000
ENDCHAR
STARTCHAR 265e
ENCODING 9822
SWIDTH 954 0
DWIDTH 18 0
BBX 18 19 0 -1
BITMAP
000000
102000
183000
183000
342000
233f00
030200
be6200
00a200
022400
7f2400
021c00
021c00
041800
0c3c00
004200
10c300
000000
000000
ENDCHAR
STARTCHAR 265f
ENCODING 9823
SWIDTH 954 0
DWIDTH 18 0
BBX 18 19 0 -1
BITMAP
000000
001000
301800
3f1000
401300
821000
7f1000
001200
04ff00
040200
0c0200
102400
303c00
401800
c03c00
fe4200
7cc300
000000
000000
ENDCHAR
STARTCHAR 2660
ENCODING 9824
SWIDTH 954 0
DWIDTH 18 0
BBX 18 19 0 -1
BITMAP
000000
001000
0c1800
0b1000
ff1300
081000
4a1000
4b1200
4bff00
4b0200
4b0200
4a2400
083c00
081800
093400
0c4200
0c8300
000000
000000
ENDCHAR
STARTCHAR 2661
ENCODING 9825
SWIDTH 954 0
DWIDTH 18 0
BBX 18 19 0 -1
BITMAP
000000
001000
000800
7c6c00
4c4400
4cc000
4cc200
4c3300
7d3100
4c3000
4c2000
4c4000
4c4800
7cc000
488200
03e300
018300
000000
000000
ENDCHAR
STARTCHAR 2662
ENCODING 9826
SWIDTH 954 0
DWIDTH 18 0
BBX 18 19 0 -1
BITMAP
000000
000000
00c000
208200
208200
008000
008000
ffff00
000000
100c00
1ffc00
100c00
100c00
100c00
100c00
1ffc00
100c00
000000
000000
ENDCHAR
STARTCHAR 2663
ENCODING 9827
SWIDTH 954 0
DWIDTH 18 0
BBX 18 19 0 -1
BITMAP
000000
100000
180000
3fff00
333200
422200
844200
108400
213c00
0c0000
000800
080800
080800
0ff800
080800
080800
0ff800
000000
000000
ENDCHAR
STARTCHAR 2664
ENCODING 9828
SWIDTH 954 0
DWIDTH 18 0
BBX 18 19 0 -1
BITMAP
000000
4c0000
7c0200
4c2000
4c2000
4c2000
7c2000
4c2c00
4dfc00
4c4c00
4c4c00
4c4c00
4c4c00
4ccc00
4ccc00
cccf00
bfff00
000000
000000
ENDCHAR
STARTCHAR 2665
ENCODING 9829
SWIDTH 954 0
DWIDTH 18 0
BBX 18 19 0 -1
BITMAP
000000
004000
306000
234200
3f7f00
204100
204100
2c7f00
383f00
00c000
008000
ffff00
008000
0c9000
088c00
208300
c08300
000000
000000
ENDCHAR
STARTCHAR 2666
ENCODING 9830
SWIDTH 954 0
DWIDTH 18 0
BBX 18 19 0 -1
BITMAP
000000
200200
303300
303300
303300
303300
313300
312300
790300
7b3300
b3f300
303300
303300
303300
303300
302300
33c300
000000
000000
ENDCHAR
STARTCHAR 2667
ENCODING 9831
SWIDTH 954 0
DWIDTH 18 0
BBX 18 19 0 -1
BITMAP
000000
200000
300600
31ec00
312c00
312c00
312c00
312c00
712c00
7d2c00
b92c00
312400
312400
332000
322200
302300
340100
000000
000000
ENDCHAR
STARTCHAR 2668
ENCODING 9832
SWIDTH 954 0
DWIDTH 18 0
BBX 18 19 0 -1
BITMAP
000000
081000
0c1800
fc1f00
0c1000
081000
00c000
008000
008300
018000
03c000
04b000
0c9000
108c00
308600
c08200
008000
000000
000000
ENDCHAR
STARTCHAR 2669
ENCODING 9833
SWIDTH 954 0
DWIDTH 18 0
BBX 18 19 0 -1
BITMAP
000000
202000
303000
303300
33ff00
fc3000
303000
33ff00
333300
7f3300
7b3300
b33300
b33300
333300
333f00
303000
303000
000000
000000
ENDCHAR
STARTCHAR 266a
ENCODING 9834
SWIDTH 954 0
DWIDTH 18 0
BBX 18 19 0 -1
BITMAP
000000
200000
300800
308c00
308c00
fc8c00
308c00
308c00
308c00
7d8c00
b94c00
310800
330800
331200
321200
342300
340100
000000
000000
ENDCHAR
STARTCHAR 266b
ENCODING 9835
SWIDTH 954 0
DWIDTH 18 0
BBX 18 19 0 -1
BITMAP
000000
000000
00c000
188c00
10fc00
108000
108000
7fff00
000000
00c000
008300
008000
08a000
0c8800
188c00
208200
408000
000000
000000
ENDCHAR
STARTCHAR 266c
ENCODING 9836
SWIDTH 954 0
DWIDTH 18 0
BBX 18 19 0 -1
BITMAP
000000
004000
006000
2c4000
2c4300
2cd300
2cd300
2c1000
fe1000
2c1000
2c3800
2c3800
2c2c00
2c4400
0c4000
4c8300
4d0300
000000
000000
ENDCHAR
STARTCHAR 266d
ENCODING 9837
SWIDTH 954 0
DWIDTH 18 0
BBX 18 19 0 -1
BITMAP
000000
004000
306000
3f4000
204300
405300
7e5200
009000
041000
041000
0c3800
103800
302c00
404400
424400
3c8300
010300
000000
000000
ENDCHAR
STARTCHAR 266e
ENCODING 9838
SWIDTH 954 0
DWIDTH 18 0
BBX 18 19 0 -1
BITMAP
000000
202000
303000
303000
232300
0b0b00
4a4b00
888800
080800
080800
141400
101400
323400
232200
232200
40c300
808300
000000
000000
ENDCHAR
STARTCHAR 266f
ENCODING 9839
SWIDTH 954 0
DWIDTH 18 0
BBX 18 19 0 -1
BITMAP
000000
080000
243000
322000
224300
435300
80d300
7e1000
301000
301000
223800
023c00
022400
024400
024000
048300
3d0300
000000
000000
ENDCHAR
STARTCHAR 2670
ENCODING 9840
SWIDTH 954 0
DWIDTH 18 0
BBX 18 19 0 -1
BITMAP
000000
004000
0c6000
144000
104300
335300
235200
409000
a41000
341000
343800
343c00
342400
244400
244000
448300
450300
000000
000000
ENDCHAR
STARTCHAR 2671
ENCODING 9841
SWIDTH 954 0
DWIDTH 18 0
BBX 18 19 0 -1
BITMAP
000000
100000
183000
102000
102000
103f00
105300
12d200
ff9000
021000
021000
0a3800
323c00
422400
064000
0c8300
3d0300
000000
000000
ENDCHAR
STARTCHAR 2672
ENCODING 9842
SWIDTH 954 0
DWIDTH 18 0
BBX 18 19 0 -1
BITMAP
000000
000000
100c00
100800
100800
100800
100800
136a00
724f00
124800
124800
124800
124800
174800
1c4800
404b00
01ff00
000000
000000
ENDCHAR
STARTCHAR 2673
ENCODING 9843
SWIDTH 954 0
DWIDTH 18 0
BBX 18 19 0 -1
BITMAP
000000
000000
003000
fe2000
202400
2c2400
3c2400
2c2400
4c2400
7c2500
9bff00
105000
10c800
308400
210200
420100
840100
000000
000000
ENDCHAR
STARTCHAR 2674
ENCODING 9844
SWIDTH 954 0
DWIDTH 18 0
BBX 18 19 0 -1
BITMAP
000000
002000
003000
fe3000
203300
2c3000
3c3000
2c3400
4dfe00
7c8400
98c400
104c00
102800
303000
204800
408600
830300
000000
000000
ENDCHAR
STARTCHAR 2675
ENCODING 9845
SWIDTH 954 0
DWIDTH 18 0
BBX 18 19 0 -1
BITMAP
000000
001000
021800
201000
201000
3e1000
241000
04df00
249000
4c9000
8c9000
089000
089000
109000
109000
013f00
421f00
000000
000000
ENDCHAR
STARTCHAR 2676
ENCODING 9846
SWIDTH 954 0
DWIDTH 18 0
BBX 18 19 0 -1
BITMAP
000000
000600
000f00
fe8000
208000
2c8000
3c8300
2c8c00
4c8c00
7c8c00
988c00
108c00
110c00
310c00
210c00
420c00
800c00
000000
000000
ENDCHAR
STARTCHAR 2677
ENCODING 9847
SWIDTH 954 0
DWIDTH 18 0
BBX 18 19 0 -1
BITMAP
000000
040000
fc0000
218300
210b00
3d0b00
2d4b00
4d2b00
4d2300
bd1300
193b00
090700
114700
310300
310300
03ff00
410300
000000
000000
ENDCHAR
STARTCHAR 2678
ENCODING 9848
SWIDTH 954 0
DWIDTH 18 0
BBX 18 19 0 -1
BITMAP
000000
100000
184400
104400
104400
7f4400
d24400
108300
100000
100200
3c0200
3c2400
3c2c00
2c1800
2f3c00
444200
808300
000000
000000
ENDCHAR
STARTCHAR 2679
ENCODING 9849
SWIDTH 954 0
DWIDTH 18 0
BBX 18 19 0 -1
BITMAP
000000
100000
180c00
10f000
103000
103000
10fe00
103000
fe3300
043000
043000
2c3100
283100
101f00
380000
03ff00
41fe00
000000
000000
ENDCHAR
STARTCHAR 267a
ENCODING 9850
SWIDTH 954 0
DWIDTH 18 0
BBX 18 19 0 -1
BITMAP
000000
040000
460400
44f000
443000
443000
443000
443000
403000
443000
7e3200
443000
443000
443100
443100
c43f00
841f00
000000
000000
ENDCHAR
STARTCHAR 267b
ENCODING 9851
SWIDTH 954 0
DWIDTH 18 0
BBX 18 19 0 -1
BITMAP
000000
020300
03ff00
130300
130300
0b0200
8b0000
432000
532c00
332c00
332c00
232d00
e32d00
424d00
424d00
248f00
280700
000000
000000
ENDCHAR
STARTCHAR 267c
ENCODING 9852
SWIDTH 954 0
DWIDTH 18 0
BBX 18 19 0 -1
BITMAP
000000
010000
018000
110200
11ff00
050000
850000
29ff00
08ff00
001000
101800
301200
61ff00
301000
301000
301300
33ff00
000000
000000
ENDCHAR
STARTCHAR 267d
ENCODING 9853
SWIDTH 954 0
DWIDTH 18 0
BBX 18 19 0 -1
BITMAP
000000
000000
003000
102200
13ff00
882000
492800
410c00
110c00
310f00
3fff00
210c00
c10c00
410c00
210c00
220c00
200c00
000000
000000
ENDCHAR
STARTCHAR 267e
ENCODING 9854
SWIDTH 954 0
DWIDTH 18 0
BBX 18 19 0 -1
BITMAP
000000
011000
419800
311000
211000
811000
411000
039000
115000
355000
251000
291000
c11100
411100
411100
211f00
210f00
000000
000000
ENDCHAR
STARTCHAR 2721
ENCODING 10017
SWIDTH 954 0
DWIDTH 18 0
BBX 18 19 0 -1
BITMAP
000000
000000
000300
120300
120300
8a0b00
4aff00
028b00
02cb00
125300
323300
225300
e2cb00
230700
320300
33ff00
320300
000000
000000
ENDCHAR
STARTCHAR 2722
ENCODING 10018
SWIDTH 954 0
DWIDTH 18 0
BBX 18 19 0 -1
BITMAP
000000
000000
003000
102200
13ff00
004000
88c400
408200
410f00
13c800
30c800
20c800
e0c800
408900
410900
220f00
240f00
000000
000000
ENDCHAR
STARTCHAR 2723
ENCODING 10019
SWIDTH 954 0
DWIDTH 18 0
BBX 18 19 0 -1
BITMAP
000000
000c00
003e00
103000
103000
883000
483300
403000
003000
107800
30fc00
20b400
e13200
423100
443000
203000
203000
000000
000000
ENDCHAR
STARTCHAR 2724
ENCODING 10020
SWIDTH 954 0
DWIDTH 18 0
BBX 18 19 0 -1
BITMAP
000000
020200
03ff00
130200
130200
8bfe00
4b0000
434c00
037c00
134c00
334c00
234c00
c34c00
224d00
22cd00
308f00
340700
000000
000000
ENDCHAR
STARTCHAR 2725
ENCODING 10021
SWIDTH 954 0
DWIDTH 18 0
BBX 18 19 0 -1
BITMAP
000000
000000
003000
102000
122400
0b2400
8b2400
432400
53fc00
332400
232400
4fff00
c30400
430400
230400
230400
231c00
000000
000000
ENDCHAR
STARTCHAR 2726
ENCODING 10022
SWIDTH 954 0
DWIDTH 18 0
BBX 18 19 0 -1
BITMAP
000000
000000
00c000
108000
108300
093300
893300
423000
403000
10f800
30b400
20b200
c13300
413100
233100
203000
20f000
000000
000000
ENDCHAR
STARTCHAR 2727
ENCODING 10023
SWIDTH 954 0
DWIDTH 18 0
BBX 18 19 0 -1
BITMAP
000000
204000
302000
303000
313300
b51300
fd1300
711b00
713b00
312f00
314700
318700
210300
2d0300
050300
410300
810f00
000000
000000
ENDCHAR
STARTCHAR 2728
ENCODING 10024
SWIDTH 954 0
DWIDTH 18 0
BBX 18 19 0 -1
BITMAP
000000
200000
30c000
308000
310300
b54b00
ff4b00
70cb00
70cb00
309300
309300
313300
233300
2c4300
04c200
430600
843c00
000000
000000
ENDCHAR
STARTCHAR 2729
ENCODING 10025
SWIDTH 954 0
DWIDTH 18 0
BBX 18 19 0 -1
BITMAP
000000
081000
0c1800
0c1000
0c1300
0c1000
0c1000
0ff000
0c1000
00c000
008400
108c00
094800
032000
023000
0c0c00
300f00
000000
000000
ENDCHAR
STARTCHAR 272a
ENCODING 10026
SWIDTH 954 0
DWIDTH 18 0
BBX 18 19 0 -1
BITMAP
000000
000000
00c000
7ecc00
049000
0c9000
088800
238700
c10200
000000
20c400
108c00
088800
033000
020800
080600
300300
000000
000000
ENDCHAR
STARTCHAR 272b
ENCODING 10027
SWIDTH 954 0
DWIDTH 18 0
BBX 18 19 0 -1
BITMAP
000000
000000
20c400
108c00
008800
033000
020c00
080300
380300
0c8000
088000
38ff00
288000
888100
088100
08ff00
08ff00
000000
000000
ENDCHAR
STARTCHAR 272c
ENCODING 10028
SWIDTH 954 0
DWIDTH 18 0
BBX 18 19 0 -1
BITMAP
000000
001c00
007c00
3e0800
000c00
108800
089000
082000
000800
008000
008000
008200
7fff00
008000
008000
008c00
3ffc00
000000
000000
ENDCHAR
STARTCHAR 272d
ENCODING 10029
SWIDTH 954 0
DWIDTH 18 0
BBX 18 19 0 -1
BITMAP
000000
082000
4c3000
4c3000
4c3000
4cf300
4ff300
4cf000
0cfc00
4cfc00
7cb400
4cb000
4d3200
4e3300
4c3100
8c3000
8cf000
000000
000000
ENDCHAR
STARTCHAR 272e
ENCODING 10030
SWIDTH 954 0
DWIDTH 18 0
BBX 18 19 0 -1
BITMAP
000000
008c00
34fc00
24cc00
24cc00
248c00
248f00
250000
220400
244400
3e4400
240c00
240c00
241800
243c00
444300
448300
000000
000000
ENDCHAR
STARTCHAR 272f
ENCODING 10031
SWIDTH 954 0
DWIDTH 18 0
BBX 18 19 0 -1
BITMAP
000000
000800
0c0c00
688c00
484c00
7e2c00
480c00
880c00
08cc00
0e4c00
f80c00
080f00
09ff00
080c00
080c00
080c00
080c00
000000
000000
ENDCHAR
STARTCHAR 2730
ENCODING 10032
SWIDTH 954 0
DWIDTH 18 0
BBX 18 19 0 -1
BITMAP
000000
102000
183000
503000
513300
7d3300
533200
903000
103000
1c5000
f05000
105000
10d100
109100
109100
131f00
100f00
000000
000000
ENDCHAR
STARTCHAR 2731
ENCODING 10033
SWIDTH 954 0
DWIDTH 18 0
BBX 18 19 0 -1
BITMAP
000000
100000
183400
502300
502200
7c2300
53ff00
902000
102200
1c2300
f02200
103c00
101800
103900
102d00
108300
130300
000000
000000
ENDCHAR
STARTCHAR 2732
ENCODING 10034
SWIDTH 954 0
DWIDTH 18 0
BBX 18 19 0 -1
BITMAP
000000
103000
181000
50c800
50c800
7c8400
508600
930200
100400
1c4400
f04400
104400
104400
10c400
10c400
110c00
133c00
000000
000000
ENDCHAR
STARTCHAR 2733
ENCODING 10035
SWIDTH 954 0
DWIDTH 18 0
BBX 18 19 0 -1
BITMAP
000000
001000
0c1800
481000
481300
7e1000
481000
88ff00
089300
1c9300
f89300
089300
089300
089700
081200
081000
081000
000000
000000
ENDCHAR
STARTCHAR 2734
ENCODING 10036
SWIDTH 954 0
DWIDTH 18 0
BBX 18 19 0 -1
BITMAP
000000
002000
0c3000
083400
0a3200
0a3200
083000
083000
083000
083000
142000
122800
122800
334400
22c400
408300
400300
000000
000000
ENDCHAR
STARTCHAR 2735
ENCODING 10037
SWIDTH 954 0
DWIDTH 18 0
BBX 18 19 0 -1
BITMAP
000000
080400
8d1e00
291000
311000
311000
211000
49ff00
991000
391000
291000
090800
490900
093500
09c500
180300
f1fd00
000000
000000
ENDCHAR
STARTCHAR 2736
ENCODING 10038
SWIDTH 954 0
DWIDTH 18 0
BBX 18 19 0 -1
BITMAP
000000
000000
8d0c00
310800
310800
313f00
234b00
4a4b00
9b4b00
388b00
288b00
094b00
4b0b00
0bd300
0b1300
182300
f00e00
000000
000000
ENDCHAR
STARTCHAR 2737
ENCODING 10039
SWIDTH 954 0
DWIDTH 18 0
BBX 18 19 0 -1
BITMAP
000000
001000
0c1800
091200
ff1300
081000
081000
7fff00
4b1000
4b1000
4b3800
4b3c00
4b2400
4b4400
4b4200
088300
090300
000000
000000
ENDCHAR
STARTCHAR 2738
ENCODING 10040
SWIDTH 954 0
DWIDTH 18 0
BBX 18 19 0 -1
BITMAP
000000
082000
8c3000
283300
303200
303300
23ff00
483000
983400
38b400
28b400
08b400
48b400
093700
093300
183000
f03000
000000
000000
ENDCHAR
STARTCHAR 2739
ENCODING 10041
SWIDTH 954 0
DWIDTH 18 0
BBX 18 19 0 -1
BITMAP
000000
020000
8f0000
530000
330000
3fef00
534b00
934b00
334b00
334b00
134b00
534b00
934b00
124b00
124f00
34c000
f7c000
000000
000000
ENDCHAR
STARTCHAR 273a
ENCODING 10042
SWIDTH 954 0
DWIDTH 18 0
BBX 18 19 0 -1
BITMAP
000000
002000
8c3000
303000
303000
31ff00
213200
493200
993200
393200
293200
082000
482000
084400
08c200
190100
f30100
000000
000000
ENDCHAR
STARTCHAR 273b
ENCODING 10043
SWIDTH 954 0
DWIDTH 18 0
BBX 18 19 0 -1
BITMAP
000000
000000
003000
fc2200
302300
302000
302300
382000
fc2000
305000
305000
30c800
30c800
3c8c00
e10400
020300
040300
000000
000000
ENDCHAR
STARTCHAR 273c
ENCODING 10044
SWIDTH 954 0
DWIDTH 18 0
BBX 18 19 0 -1
BITMAP
000000
004000
006000
fc7f00
304200
30c200
308200
343c00
fd0c00
31fe00
308400
304c00
304c00
e03000
402800
00c600
010300
000000
000000
ENDCHAR
STARTCHAR 273d
ENCODING 10045
SWIDTH 954 0
DWIDTH 18 0
BBX 18 19 0 -1
BITMAP
000000
019000
010800
ffff00
010000
00c100
003100
000700
000000
ffff00
0c0000
0ffc00
0c0800
088900
080900
13cf00
7c0f00
000000
000000
ENDCHAR
STARTCHAR 273e
ENCODING 10046
SWIDTH 954 0
DWIDTH 18 0
BBX 18 19 0 -1
BITMAP
000000
000000
040200
241000
241000
251000
ff1000
241000
241300
241000
3c1000
241000
241000
241000
241000
241000
041000
000000
000000
ENDCHAR
STARTCHAR 273f
ENCODING 10047
SWIDTH 954 0
DWIDTH 18 0
BBX 18 19 0 -1
BITMAP
000000
000000
000200
fe1000
d41000
d41000
d41000
d41000
d41300
d41000
d41000
d41000
d41000
d41000
fc1000
801000
001000
000000
000000
ENDCHAR
STARTCHAR 2740
ENCODING 10048
SWIDTH 954 0
DWIDTH 18 0
BBX 18 19 0 -1
BITMAP
000000
108000
18c000
90c000
fec300
d0c300
d08300
fc0300
d14300
d03300
d01300
d00300
900300
100300
100300
100600
103c00
000000
000000
ENDCHAR
STARTCHAR 2741
ENCODING 10049
SWIDTH 954 0
DWIDTH 18 0
BBX 18 19 0 -1
BITMAP
000000
000000
00c000
1ffc00
108c00
108c00
1ffc00
108c00
108c00
142000
063000
043300
ffff00
0c3000
0c3000
103000
303000
000000
000000
ENDCHAR
STARTCHAR 2742
ENCODING 10050
SWIDTH 954 0
DWIDTH 18 0
BBX 18 19 0 -1
BITMAP
000000
000000
000000
7e8100
40cd00
409300
409300
413000
412400
424800
412400
409200
409300
40c900
7cc900
400000
000000
000000
000000
ENDCHAR
STARTCHAR 2743
ENCODING 10051
SWIDTH 954 0
DWIDTH 18 0
BBX 18 19 0 -1
BITMAP
000000
00c000
004000
1fff00
900000
500200
57ff00
104000
104000
306000
505000
504c00
104400
304000
304000
004000
404000
000000
000000
ENDCHAR
STARTCHAR 2744
ENCODING 10052
SWIDTH 954 0
DWIDTH 18 0
BBX 18 19 0 -1
BITMAP
000000
00c000
004000
1fff00
100000
507c00
53c000
104000
104000
104200
17ff00
504000
d04000
104200
304200
207f00
003e00
000000
000000
ENDCHAR
STARTCHAR 2745
ENCODING 10053
SWIDTH 954 0
DWIDTH 18 0
BBX 18 19 0 -1
BITMAP
000000
00c000
004000
1fff00
100000
50c000
508000
108800
17fc00
108800
308800
d14800
114900
332900
330900
240f00
0c0f00
000000
000000
ENDCHAR
STARTCHAR 2746
ENCODING 10054
SWIDTH 954 0
DWIDTH 18 0
BBX 18 19 0 -1
BITMAP
000000
002000
0c3000
4b3000
7f3000
4a3400
48fe00
4a3400
7f3400
427400
622400
443400
4c2500
4a0500
434500
b08700
a00300
000000
000000
ENDCHAR
STARTCHAR 2747
ENCODING 10055
SWIDTH 954 0
DWIDTH 18 0
BBX 18 19 0 -1
BITMAP
000000
010000
008000
008300
ffff00
080000
080000
080000
0ffc00
000000
000000
1ffc00
134c00
134c00
134c00
134f00
ffff00
000000
000000
ENDCHAR
STARTCHAR 2748
ENCODING 10056
SWIDTH 954 0
DWIDTH 18 0
BBX 18 19 0 -1
BITMAP
000000
000800
1ffc00
008000
008000
008000
008200
008000
008000
008000
008000
100c00
1ffc00
134c00
134c00
134f00
ffff00
000000
000000
ENDCHAR
STARTCHAR 2749
ENCODING 10057
SWIDTH 954 0
DWIDTH 18 0
BBX 18 19 0 -1
BITMAP
000000
000000
000400
008000
008000
008000
008000
008200
7fff00
000000
000000
1ffc00
134c00
134c00
134c00
134f00
ffff00
000000
000000
ENDCHAR
STARTCHAR 274a
ENCODING 10058
SWIDTH 954 0
DWIDTH 18 0
BBX 18 19 0 -1
BITMAP
000000
000000
4c0300
4c3300
4c3300
4c3300
4d3300
4cf300
4c7300
4c3300
4c3300
4c2300
4c2300
4c4300
4cc300
490300
433e00
000000
000000
ENDCHAR
STARTCHAR 274b
ENCODING 10059
SWIDTH 954 0
DWIDTH 18 0
BBX 18 19 0 -1
BITMAP
000000
000000
4c0c00
4c8c00
4c8c00
4c8c00
4c8c00
4ccc00
4c8c00
4cbc00
4cac00
4c8c00
4c8d00
4c8d00
4d0d00
4b0f00
420700
000000
000000
ENDCHAR
STARTCHAR 274c
ENCODING 10060
SWIDTH 954 0
DWIDTH 18 0
BBX 18 19 0 -1
BITMAP
000000
008000
4cc000
4cc000
4cc000
4ffc00
4ccc00
4ccc00
4ccc00
4cec00
4cfc00
4ccc00
4ccd00
4c8d00
4c8d00
490f00
420700
000000
000000
ENDCHAR
STARTCHAR 274d
ENCODING 10061
SWIDTH 954 0
DWIDTH 18 0
BBX 18 19 0 -1
BITMAP
000000
000000
4c0c00
4df000
4c3000
4c3000
4c3000
4c3000
4c3300
4c3000
4c3000
4c3000
4c3000
4c3000
4c3000
483000
403000
000000
000000
ENDCHAR
STARTCHAR 274e
ENCODING 10062
SWIDTH 954 0
DWIDTH 18 0
BBX 18 19 0 -1
BITMAP
000000
000000
440300
440c00
440800
442000
44c200
440300
440400
441000
442000
440200
440300
440c00
440800
442000
40c000
000000
000000
ENDCHAR
STARTCHAR 274f
ENCODING 10063
SWIDTH 954 0
DWIDTH 18 0
BBX 18 19 0 -1
BITMAP
000000
000000
4c0400
4c0400
4c0400
4c2400
4c3400
4c8c00
4c8c00
4cc800
4c4800
4c1000
4c3000
4c5000
4cc800
490600
420300
000000
000000
ENDCHAR
STARTCHAR 2750
ENCODING 10064
SWIDTH 954 0
DWIDTH 18 0
BBX 18 19 0 -1
BITMAP
000000
000800
0ffc00
080800
0ff800
080800
0ff800
080800
0ff800
063000
043000
ffff00
043000
0c3000
0c3000
103000
203000
000000
000000
ENDCHAR
STARTCHAR 2751
ENCODING 10065
SWIDTH 954 0
DWIDTH 18 0
BBX 18 19 0 -1
BITMAP
000000
020000
7f3000
042000
0c2300
104300
124300
128300
300300
303300
101300
500300
900300
100300
100300
100600
703c00
000000
000000
ENDCHAR
STARTCHAR 2752
ENCODING 10066
SWIDTH 954 0
DWIDTH 18 0
BBX 18 19 0 -1
BITMAP
000000
0c4000
fc6000
0c4200
0cff00
4c9000
7c9000
411000
c01000
fdff00
8c1000
0c3800
0c3400
0c2200
0c4300
0c8100
790100
000000
000000
ENDCHAR
STARTCHAR 2753
ENCODING 10067
SWIDTH 954 0
DWIDTH 18 0
BBX 18 19 0 -1
BITMAP
000000
000000
000200
fe0200
300200
30b200
309200
2cc400
3c4400
6c4c00
ac0800
2c3000
2c3000
2c4800
3ccc00
010300
020300
000000
000000
ENDCHAR
STARTCHAR 2754
ENCODING 10068
SWIDTH 954 0
DWIDTH 18 0
BBX 18 19 0 -1
BITMAP
000000
000000
044000
303000
303000
301300
33ff00
2c8000
3c8000
6c8000
ac8000
2c8000
2c8000
2c8000
3c8000
00ff00
000000
000000
000000
ENDCHAR
STARTCHAR 2755
ENCODING 10069
SWIDTH 954 0
DWIDTH 18 0
BBX 18 19 0 -1
BITMAP
000000
0c0000
1c0200
100200
100400
100800
101000
101000
301000
141c00
15f000
501000
901000
101000
101000
101000
10f000
000000
000000
ENDCHAR
STARTCHAR 2756
ENCODING 10070
SWIDTH 954 0
DWIDTH 18 0
BBX 18 19 0 -1
BITMAP
000000
0c8000
1cc000
10c000
108300
140300
fd0300
320300
388300
142300
543300
500300
900300
100300
100300
100600
107c00
000000
000000
ENDCHAR
STARTCHAR 2757
ENCODING 10071
SWIDTH 954 0
DWIDTH 18 0
BBX 18 19 0 -1
BITMAP
000000
0c4000
0c6000
50c300
10ff00
140000
fd0000
30ff00
380200
140c00
540800
903000
902100
10c100
108100
10ff00
10ff00
000000
000000
ENDCHAR
STARTCHAR 2758
ENCODING 10072
SWIDTH 954 0
DWIDTH 18 0
BBX 18 19 0 -1
BITMAP
000000
010000
008000
3fff00
422300
c42000
0c3f00
620000
010000
000300
ffff00
100000
100000
100000
100000
1ffc00
0ffe00
000000
000000
ENDCHAR
STARTCHAR 2759
ENCODING 10073
SWIDTH 954 0
DWIDTH 18 0
BBX 18 19 0 -1
BITMAP
000000
010000
008000
3fff00
422300
c42000
0c3f00
60c000
008000
008000
008c00
008000
008000
008000
008000
008300
ffff00
000000
000000
ENDCHAR
STARTCHAR 275a
ENCODING 10074
SWIDTH 954 0
DWIDTH 18 0
BBX 18 19 0 -1
BITMAP
000000
030000
018000
7fff00
c22300
042000
0c3000
301f00
c30000
023300
ffff00
043000
0c2000
3fc000
10b000
020c00
0c0600
000000
000000
ENDCHAR
STARTCHAR 275b
ENCODING 10075
SWIDTH 954 0
DWIDTH 18 0
BBX 18 19 0 -1
BITMAP
000000
010000
008000
7fff00
000000
0c1000
041000
ffff00
042000
043000
043000
ffff00
043000
0c3000
083000
303000
203000
000000
000000
ENDCHAR
STARTCHAR 275c
ENCODING 10076
SWIDTH 954 0
DWIDTH 18 0
BBX 18 19 0 -1
BITMAP
000000
104000
186000
304000
304000
244c00
4dfc00
284c00
104c00
304c00
284c00
4ccc00
f4cc00
088d00
540d00
510f00
d20700
000000
000000
ENDCHAR
STARTCHAR 275d
ENCODING 10077
SWIDTH 954 0
DWIDTH 18 0
BBX 18 19 0 -1
BITMAP
000000
000000
000200
222200
222200
3ffe00
200000
300200
3fff00
200200
000200
820200
030200
008200
000200
000400
00fc00
000000
000000
ENDCHAR
STARTCHAR 275e
ENCODING 10078
SWIDTH 954 0
DWIDTH 18 0
BBX 18 19 0 -1
BITMAP
000000
000200
3fff00
222200
222200
3ffe00
000000
008000
00c000
7fff00
100000
100000
100000
100000
100000
0fff00
000000
000000
000000
ENDCHAR
STARTCHAR 275f
ENCODING 10079
SWIDTH 954 0
DWIDTH 18 0
BBX 18 19 0 -1
BITMAP
000000
010000
018000
013700
3ffc00
011000
013300
004000
00c000
070000
0f0200
c2d200
04d200
00b200
013200
0cc600
013c00
000000
000000
ENDCHAR
STARTCHAR 2760
ENCODING 10080
SWIDTH 954 0
DWIDTH 18 0
BBX 18 19 0 -1
BITMAP
000000
000000
00c000
1ff600
008c00
00b300
ffff00
010000
023000
37c000
c08000
008000
008000
008100
008100
00ff00
00ff00
000000
000000
ENDCHAR
STARTCHAR 2761
ENCODING 10081
SWIDTH 954 0
DWIDTH 18 0
BBX 18 19 0 -1
BITMAP
000000
100000
180300
141000
1e1000
101000
141000
101000
101000
fe1000
301000
181000
141000
501000
501000
101000
10f000
000000
000000
ENDCHAR
STARTCHAR 2762
ENCODING 10082
SWIDTH 954 0
DWIDTH 18 0
BBX 18 19 0 -1
BITMAP
000000
4c3200
7cf300
4c3300
4c3300
7c3300
5cf300
4c8300
4d0300
4ff300
5d3300
4c3300
4c3300
4c3300
4c3300
cc3300
bde300
000000
000000
ENDCHAR
STARTCHAR 2763
ENCODING 10083
SWIDTH 954 0
DWIDTH 18 0
BBX 18 19 0 -1
BITMAP
000000
480000
7c0300
4b2c00
4b2c00
6b2c00
5b2c00
4b2c00
4b2c00
4b4c00
5b4f00
4b8000
4b0000
4b0000
4b0000
49ff00
780000
000000
000000
ENDCHAR
STARTCHAR 2764
ENCODING 10084
SWIDTH 954 0
DWIDTH 18 0
BBX 18 19 0 -1
BITMAP
000000
4c4000
7c6000
4c4000
4cc300
7cf300
5cb300
4d3000
4e3000
4c3000
5c2000
4c2800
4c4800
4cc400
4cc400
8d0300
bd0300
000000
000000
ENDCHAR
STARTCHAR 2765
ENCODING 10085
SWIDTH 954 0
DWIDTH 18 0
BBX 18 19 0 -1
BITMAP
000000
4c2000
7c3000
4c3000
4d3300
7f3300
5f3200
4c3000
4c3000
4c2800
5c2800
4c4800
4c4900
4cc900
4cc900
4d0f00
bd0f00
000000
000000
ENDCHAR
STARTCHAR 2766
ENCODING 10086
SWIDTH 954 0
DWIDTH 18 0
BBX 18 19 0 -1
BITMAP
000000
4c0000
7c0400
4c2400
4c2400
7c2400
5c2400
4c2400
4c2500
4c4400
5c4400
4c4400
4c4400
4c4400
4c4400
4c4400
bdff00
000000
000000
ENDCHAR
STARTCHAR 2767
ENCODING 10087
SWIDTH 954 0
DWIDTH 18 0
BBX 18 19 0 -1
BITMAP
000000
4c8000
7cc000
4cff00
4c8000
7dff00
5e0000
4cfe00
4c0400
4c0800
5c1000
4c2000
4c4000
4c8100
4d0100
4dff00
bcff00
000000
000000
ENDCHAR
STARTCHAR 2768
ENCODING 10088
SWIDTH 954 0
DWIDTH 18 0
BBX 18 19 0 -1
BITMAP
000000
4c0000
7c0400
4c1000
4c1000
7c1000
5c1000
4c1000
4c1300
4c1000
5c1000
4c1000
4c1000
4c1000
4c1000
4c1200
bcff00
000000
000000
ENDCHAR
STARTCHAR 2769
ENCODING 10089
SWIDTH 954 0
DWIDTH 18 0
BBX 18 19 0 -1
BITMAP
000000
4c4800
7c6400
4cc200
4c8300
7d0100
5efe00
4c2000
4c4000
4cc200
5cff00
4c0200
4c0200
4c0200
4c0200
4c0600
bc3c00
000000
000000
ENDCHAR
STARTCHAR 276a
ENCODING 10090
SWIDTH 954 0
DWIDTH 18 0
BBX 18 19 0 -1
BITMAP
000000
000000
00c000
00fe00
008000
3fff00
400300
400a00
0ff800
0b0800
08c800
080800
083800
0b0800
030800
100800
207800
000000
000000
ENDCHAR
STARTCHAR 276b
ENCODING 10091
SWIDTH 954 0
DWIDTH 18 0
BBX 18 19 0 -1
BITMAP
000000
104000
18c000
130c00
109000
104800
10c400
13c200
130200
11fc00
110400
113400
111400
310c00
333400
008400
443c00
000000
000000
ENDCHAR
STARTCHAR 276c
ENCODING 10092
SWIDTH 954 0
DWIDTH 18 0
BBX 18 19 0 -1
BITMAP
000000
000000
430000
4c7f00
4c0200
4c0200
4c0200
7fa200
412400
412400
411c00
4d0800
4c0800
4c3c00
4c3400
ff4300
40c300
000000
000000
ENDCHAR
STARTCHAR 276d
ENCODING 10093
SWIDTH 954 0
DWIDTH 18 0
BBX 18 19 0 -1
BITMAP
000000
000000
030000
07fc00
040800
081000
10f000
0f0400
383e00
300400
300400
3e3c00
300400
300400
300400
3ffc00
300400
000000
000000
ENDCHAR
STARTCHAR 276e
ENCODING 10094
SWIDTH 954 0
DWIDTH 18 0
BBX 18 19 0 -1
BITMAP
000000
000200
020300
083300
082300
082300
092300
082300
082300
082300
4b2300
432300
437f00
430300
430300
7f0300
420300
000000
000000
ENDCHAR
STARTCHAR 276f
ENCODING 10095
SWIDTH 954 0
DWIDTH 18 0
BBX 18 19 0 -1
BITMAP
000000
180000
100300
640300
7e0200
440c00
740800
540800
440800
f40800
c40800
740800
540800
440800
440800
440800
5c7800
000000
000000
ENDCHAR
STARTCHAR 2770
ENCODING 10096
SWIDTH 954 0
DWIDTH 18 0
BBX 18 19 0 -1
BITMAP
000000
080200
0c0300
0b2300
3f3300
233300
2b3300
2b3300
233300
f33300
e33300
2b3300
2f3300
232300
030300
430300
4f1f00
000000
000000
ENDCHAR
STARTCHAR 2771
ENCODING 10097
SWIDTH 954 0
DWIDTH 18 0
BBX 18 19 0 -1
BITMAP
000000
001000
0c1800
121000
3f1000
221000
321000
2a1000
221000
f23800
e23800
323400
222400
224400
224000
428300
4e0300
000000
000000
ENDCHAR
STARTCHAR 2772
ENCODING 10098
SWIDTH 954 0
DWIDTH 18 0
BBX 18 19 0 -1
BITMAP
000000
000000
0c0c00
ff7f00
080800
00c000
008000
3fff00
408300
408200
016000
034000
034000
044100
0c4100
107f00
203f00
000000
000000
ENDCHAR
STARTCHAR 2773
ENCODING 10099
SWIDTH 954 0
DWIDTH 18 0
BBX 18 19 0 -1
BITMAP
000000
000000
0c0c00
ff7f00
080800
000000
010400
010400
010400
3f0400
300400
208400
7fc400
008400
008400
010400
3f0400
000000
000000
ENDCHAR
STARTCHAR 2774
ENCODING 10100
SWIDTH 954 0
DWIDTH 18 0
BBX 18 19 0 -1
BITMAP
000000
000000
0c0c00
ff7f00
080800
000000
000400
008000
008000
008300
ffff00
014000
030000
043000
0c1000
100c00
200700
000000
000000
ENDCHAR
STARTCHAR 2775
ENCODING 10101
SWIDTH 954 0
DWIDTH 18 0
BBX 18 19 0 -1
BITMAP
000000
000000
0c0c00
ff7f00
080800
000000
000200
040000
040000
07f800
041000
0c1000
0c1000
083000
003000
003300
ffff00
000000
000000
ENDCHAR
STARTCHAR 2776
ENCODING 10102
SWIDTH 954 0
DWIDTH 18 0
BBX 18 19 0 -1
BITMAP
000000
000000
0c0c00
ff7f00
080800
000000
000200
200200
203200
203200
223200
214200
20c200
231a00
240a00
200200
203e00
000000
000000
ENDCHAR
STARTCHAR 2777
ENCODING 10103
SWIDTH 954 0
DWIDTH 18 0
BBX 18 19 0 -1
BITMAP
000000
000000
0c0c00
ff7f00
080800
000000
00c000
008200
3fff00
208200
208200
3ffe00
008000
008000
008000
008000
008000
000000
000000
ENDCHAR
STARTCHAR 2778
ENCODING 10104
SWIDTH 954 0
DWIDTH 18 0
BBX 18 19 0 -1
BITMAP
000000
000000
0c0c00
ff7f00
080800
000000
000000
082000
102000
303000
302c00
502300
902300
102000
102000
102000
102000
000000
000000
ENDCHAR
STARTCHAR 2779
ENCODING 10105
SWIDTH 954 0
DWIDTH 18 0
BBX 18 19 0 -1
BITMAP
000000
0c0c00
080800
080800
080800
10c000
188000
108800
37fc00
208800
308800
b00800
310900
310900
330900
300f00
340f00
000000
000000
ENDCHAR
STARTCHAR 277a
ENCODING 10106
SWIDTH 954 0
DWIDTH 18 0
BBX 18 19 0 -1
BITMAP
000000
0c0c00
0a0900
080800
080000
100c00
1bfc00
108c00
308800
209f00
308300
b08300
310300
310300
330300
300600
347c00
000000
000000
ENDCHAR
STARTCHAR 277b
ENCODING 10107
SWIDTH 954 0
DWIDTH 18 0
BBX 18 19 0 -1
BITMAP
000000
0c0c00
080900
080800
080800
000300
3fff00
200000
240c00
240c00
240c00
240c00
247c00
240100
040100
47ff00
43ff00
000000
000000
ENDCHAR
STARTCHAR 277c
ENCODING 10108
SWIDTH 954 0
DWIDTH 18 0
BBX 18 19 0 -1
BITMAP
000000
000000
0c0c00
ff7f00
080800
000000
000600
1f8000
108000
108800
108800
108c00
108c00
308400
308400
008300
400300
000000
000000
ENDCHAR
STARTCHAR 277d
ENCODING 10109
SWIDTH 954 0
DWIDTH 18 0
BBX 18 19 0 -1
BITMAP
000000
080800
0a0900
080800
080800
002000
003000
040800
0c0c00
118300
210200
030000
021000
0c0c00
080400
3f8200
3e0200
000000
000000
ENDCHAR
STARTCHAR 277e
ENCODING 10110
SWIDTH 954 0
DWIDTH 18 0
BBX 18 19 0 -1
BITMAP
000000
000000
0c0c00
ff7f00
080800
000000
001000
081000
081000
081000
081800
103800
123c00
312400
214400
008300
410300
000000
000000
ENDCHAR
STARTCHAR 2821
ENCODING 10273
SWIDTH 954 0
DWIDTH 18 0
BBX 18 19 0 -1
BITMAP
000000
000000
0c0c00
ff7f00
080800
00c000
008000
00fc00
3f8000
008c00
3ffc00
008000
008300
008000
008000
008000
008000
000000
000000
ENDCHAR
STARTCHAR 2822
ENCODING 10274
SWIDTH 954 0
DWIDTH 18 0
BBX 18 19 0 -1
BITMAP
000000
000000
000200
200000
208000
20c000
28cc00
2ccc00
2ccc00
2ccc00
2ffc00
20c400
20c000
2f8200
2c0000
7fff00
000000
000000
000000
ENDCHAR
STARTCHAR 2823
ENCODING 10275
SWIDTH 954 0
DWIDTH 18 0
BBX 18 19 0 -1
BITMAP
000000
220000
330200
230000
230000
5b4000
97e300
334400
334400
334400
734400
b34400
335400
325400
307400
340400
381c00
000000
000000
ENDCHAR
STARTCHAR 2824
ENCODING 10276
SWIDTH 954 0
DWIDTH 18 0
BBX 18 19 0 -1
BITMAP
000000
200000
300200
218000
010000
990000
110300
310400
310400
338400
73c400
b24400
320400
303400
342400
380400
301c00
000000
000000
ENDCHAR
STARTCHAR 2825
ENCODING 10277
SWIDTH 954 0
DWIDTH 18 0
BBX 18 19 0 -1
BITMAP
000000
000000
000400
202400
302400
03fc00
332400
322200
37ff00
002200
782200
102600
103c00
302000
202000
cc0000
07ff00
000000
000000
ENDCHAR
STARTCHAR 2826
ENCODING 10278
SWIDTH 954 0
DWIDTH 18 0
BBX 18 19 0 -1
BITMAP
000000
000000
000400
200000
300000
000200
33ff00
302000
304000
00c400
78c000
111f00
13f300
310000
200000
cc0000
07ff00
000000
000000
ENDCHAR
STARTCHAR 2827
ENCODING 10279
SWIDTH 954 0
DWIDTH 18 0
BBX 18 19 0 -1
BITMAP
000000
000000
003000
27ff00
302000
022400
33fe00
332400
332400
032400
7b2400
132c00
122c00
302000
202000
cc0000
07ff00
000000
000000
ENDCHAR
STARTCHAR 2828
ENCODING 10280
SWIDTH 954 0
DWIDTH 18 0
BBX 18 19 0 -1
BITMAP
000000
000000
400000
308800
308800
008a00
13ff00
108800
108800
208800
788800
088800
088800
108000
300000
ce0000
03ff00
000000
000000
ENDCHAR
STARTCHAR 2829
ENCODING 10281
SWIDTH 954 0
DWIDTH 18 0
BBX 18 19 0 -1
BITMAP
000000
002300
013f00
203200
203200
203400
233800
233200
233300
233100
233100
3f3100
223100
203f00
203200
213000
ffb000
000000
000000
ENDCHAR
STARTCHAR 282a
ENCODING 10282
SWIDTH 954 0
DWIDTH 18 0
BBX 18 19 0 -1
BITMAP
000000
101300
1b1f00
129300
7fd200
129000
129400
7f9200
521300
d21100
92d100
b2d100
32d100
32d700
239200
421000
421000
000000
000000
ENDCHAR
STARTCHAR 282b
ENCODING 10283
SWIDTH 954 0
DWIDTH 18 0
BBX 18 19 0 -1
BITMAP
000000
082300
0c3f00
0c3200
0c3200
4cb400
7ff800
4cb200
4cb300
4cb100
7fb100
4cb100
4cb100
4cbf00
4cb200
403000
403000
000000
000000
ENDCHAR
STARTCHAR 282c
ENCODING 10284
SWIDTH 954 0
DWIDTH 18 0
BBX 18 19 0 -1
BITMAP
000000
002300
0c3f00
123200
113200
30b400
27b800
203200
123300
133100
133100
fff100
133100
333f00
333200
033000
433000
000000
000000
ENDCHAR
STARTCHAR 282d
ENCODING 10285
SWIDTH 954 0
DWIDTH 18 0
BBX 18 19 0 -1
BITMAP
000000
002300
303f00
213200
3fb200
413400
4d3800
2d3200
2d3300
3d3100
213100
2f3100
223100
203f00
203200
3fb000
3f3000
000000
000000
ENDCHAR
STARTCHAR 282e
ENCODING 10286
SWIDTH 954 0
DWIDTH 18 0
BBX 18 19 0 -1
BITMAP
000000
002300
003f00
003300
103200
323000
323400
323200
323200
323300
323100
323100
323100
323f00
33f200
403000
003000
000000
000000
ENDCHAR
STARTCHAR 282f
ENCODING 10287
SWIDTH 954 0
DWIDTH 18 0
BBX 18 19 0 -1
BITMAP
000000
081300
0c1f00
0d1200
3f9200
2d1400
2d1800
ffd000
2d1200
2d1300
2d1100
ffd100
211100
211f00
211200
211000
231000
000000
000000
ENDCHAR
STARTCHAR 2830
ENCODING 10288
SWIDTH 954 0
DWIDTH 18 0
BBX 18 19 0 -1
BITMAP
000000
920200
fbff00
d30200
d30200
e3fe00
c30000
f33000
d32000
cbfc00
cb2c00
cb2c00
db2c00
f30d00
c24d00
c08f00
c40700
000000
000000
ENDCHAR
STARTCHAR 2831
ENCODING 10289
SWIDTH 954 0
DWIDTH 18 0
BBX 18 19 0 -1
BITMAP
000000
480000
7cc000
488300
49ff00
530300
620300
501300
48fb00
4c9300
4c9300
4c9300
4cf300
500300
400300
400300
401e00
000000
000000
ENDCHAR
STARTCHAR 2832
ENCODING 10290
SWIDTH 954 0
DWIDTH 18 0
BBX 18 19 0 -1
BITMAP
000000
4c0000
7c0300
4c2300
4c2300
402300
504300
48c300
4c9e00
450000
448300
44c300
4cc300
48c300
40c300
40ff00
40c200
000000
000000
ENDCHAR
STARTCHAR 2833
ENCODING 10291
SWIDTH 954 0
DWIDTH 18 0
BBX 18 19 0 -1
BITMAP
000000
4c0600
7d1f00
4d0000
4d0200
410200
510200
49fe00
4d0000
457e00
450400
450800
4d1000
492100
434100
427f00
403f00
000000
000000
ENDCHAR
STARTCHAR 2834
ENCODING 10292
SWIDTH 954 0
DWIDTH 18 0
BBX 18 19 0 -1
BITMAP
000000
000800
0ffc00
080800
080800
000000
200400
308400
308400
3ffc00
308400
308400
3ffc00
008100
008100
00ff00
00ff00
000000
000000
ENDCHAR
STARTCHAR 2835
ENCODING 10293
SWIDTH 954 0
DWIDTH 18 0
BBX 18 19 0 -1
BITMAP
000000
000000
0f3000
092000
082000
082400
08fe00
8b2400
4a2400
0c2400
082400
1a2400
2b2400
494400
084400
088700
380300
000000
000000
ENDCHAR
STARTCHAR 2836
ENCODING 10294
SWIDTH 954 0
DWIDTH 18 0
BBX 18 19 0 -1
BITMAP
000000
200000
340c00
320800
324800
214a00
294b00
6b4900
a24800
228a00
200b00
240200
2c0400
2c0800
241000
242000
24c000
000000
000000
ENDCHAR
STARTCHAR 2837
ENCODING 10295
SWIDTH 954 0
DWIDTH 18 0
BBX 18 19 0 -1
BITMAP
000000
100000
183000
132400
312400
205000
30c800
710600
730300
30cc00
308c00
308d00
37ff00
308c00
310c00
320c00
300c00
000000
000000
ENDCHAR
STARTCHAR 2838
ENCODING 10296
SWIDTH 954 0
DWIDTH 18 0
BBX 18 19 0 -1
BITMAP
000000
000000
0c3000
0bff00
102000
322300
33ff00
340a00
71fc00
b01000
303000
302300
33ff00
302000
302000
302000
31e000
000000
000000
ENDCHAR
STARTCHAR 2839
ENCODING 10297
SWIDTH 954 0
DWIDTH 18 0
BBX 18 19 0 -1
BITMAP
000000
100000
180300
134000
334c00
234800
33c800
734800
734800
33c800
334800
334800
334900
33c900
374900
304f00
304f00
000000
000000
ENDCHAR
STARTCHAR 283a
ENCODING 10298
SWIDTH 954 0
DWIDTH 18 0
BBX 18 19 0 -1
BITMAP
000000
120000
1b0300
133c00
333000
2ff000
333100
733200
733200
33f200
3f3200
333200
333200
332200
332200
334200
3f4200
000000
000000
ENDCHAR
STARTCHAR 283b
ENCODING 10299
SWIDTH 954 0
DWIDTH 18 0
BBX 18 19 0 -1
BITMAP
000000
102000
1a3200
133300
333300
220200
300c00
708c00
708c00
308a00
30ff00
310200
312400
331800
321800
342600
38c300
000000
000000
ENDCHAR
STARTCHAR 283c
ENCODING 10300
SWIDTH 954 0
DWIDTH 18 0
BBX 18 19 0 -1
BITMAP
000000
100000
180400
11f000
310000
210200
31ff00
710c00
710c00
310c00
310c00
37ff00
300000
308400
310200
320300
340100
000000
000000
ENDCHAR
STARTCHAR 283d
ENCODING 10301
SWIDTH 954 0
DWIDTH 18 0
BBX 18 19 0 -1
BITMAP
000000
200000
300200
309000
309000
289300
0fff00
6c9300
ac9300
2c5b00
2d5f00
2f2700
2e2300
2c4300
2c0300
2c0300
2c0f00
000000
000000
ENDCHAR
STARTCHAR 283e
ENCODING 10302
SWIDTH 954 0
DWIDTH 18 0
BBX 18 19 0 -1
BITMAP
000000
120400
1bfe00
132400
332400
232400
232400
73fc00
b24400
304000
304200
30c200
30c200
308200
308200
330600
323c00
000000
000000
ENDCHAR
STARTCHAR 283f
ENCODING 10303
SWIDTH 954 0
DWIDTH 18 0
BBX 18 19 0 -1
BITMAP
000000
100000
18c000
110200
31ff00
328c00
204800
703000
705000
332700
343200
308c00
331000
30c300
330400
303000
30c000
000000
000000
ENDCHAR
STARTCHAR 2840
ENCODING 10304
SWIDTH 954 0
DWIDTH 18 0
BBX 18 19 0 -1
BITMAP
000000
022000
7f3000
003000
002400
032200
ff4e00
344000
340000
347e00
344400
344400
344400
344500
244100
47ff00
43ff00
000000
000000
ENDCHAR
STARTCHAR 2841
ENCODING 10305
SWIDTH 954 0
DWIDTH 18 0
BBX 18 19 0 -1
BITMAP
000000
000000
403000
302300
3bff00
0a2400
032600
022400
132c00
34a300
289100
c05000
40c000
208c00
210400
220300
240300
000000
000000
ENDCHAR
STARTCHAR 2842
ENCODING 10306
SWIDTH 954 0
DWIDTH 18 0
BBX 18 19 0 -1
BITMAP
000000
000300
43ff00
301200
389300
0b2400
024c00
112000
113200
309300
200000
e03000
403000
603000
203000
203300
23ff00
000000
000000
ENDCHAR
STARTCHAR 2843
ENCODING 10307
SWIDTH 954 0
DWIDTH 18 0
BBX 18 19 0 -1
BITMAP
000000
000200
43ff00
200200
37ff00
080200
0bfe00
000300
13ff00
3c0200
340c00
e00c00
400c00
205000
203000
208c00
230300
000000
000000
ENDCHAR
STARTCHAR 2844
ENCODING 10308
SWIDTH 954 0
DWIDTH 18 0
BBX 18 19 0 -1
BITMAP
000000
008200
3fc300
008300
ffcf00
008b00
3f8b00
404b00
7feb00
804b00
3f0b00
110b00
130b00
0c0300
0a0300
318300
408f00
000000
000000
ENDCHAR
STARTCHAR 2845
ENCODING 10309
SWIDTH 954 0
DWIDTH 18 0
BBX 18 19 0 -1
BITMAP
000000
080200
0c0300
ffd300
0c1b00
7fd300
4c9300
4c9300
7f9300
4c9300
4c9300
4c1300
0c1300
ffd300
0c0300
0c0300
0c0f00
000000
000000
ENDCHAR
STARTCHAR 2846
ENCODING 10310
SWIDTH 954 0
DWIDTH 18 0
BBX 18 19 0 -1
BITMAP
000000
080200
0d0300
0c1300
ffdb00
0c1300
4c9300
4c9300
4c9300
7f9300
4c9300
4c9300
7f9300
4c9300
4c8300
4c8300
4b8f00
000000
000000
ENDCHAR
STARTCHAR 2847
ENCODING 10311
SWIDTH 954 0
DWIDTH 18 0
BBX 18 19 0 -1
BITMAP
000000
080200
0c0300
0f9300
0c1b00
0c1300
8cd300
d2d300
d2d300
d2d300
d2d300
ffd300
d2d300
d2d300
d2d300
d2c300
d1cf00
000000
000000
ENDCHAR
STARTCHAR 2848
ENCODING 10312
SWIDTH 954 0
DWIDTH 18 0
BBX 18 19 0 -1
BITMAP
000000
010200
078300
f01300
00db00
891300
4d1300
001300
021300
035300
ffd300
031300
231300
131300
130300
030300
0f0f00
000000
000000
ENDCHAR
STARTCHAR 2849
ENCODING 10313
SWIDTH 954 0
DWIDTH 18 0
BBX 18 19 0 -1
BITMAP
000000
101000
081800
7f1000
431000
43ff00
7f1300
431300
431300
411300
631300
4c1300
4c3300
422300
432300
5a4300
709e00
000000
000000
ENDCHAR
STARTCHAR 284a
ENCODING 10314
SWIDTH 954 0
DWIDTH 18 0
BBX 18 19 0 -1
BITMAP
000000
081000
0c1800
0d1000
0c1000
ffbf00
0c1300
4d1300
0f1300
3c1300
3c1300
0f3300
1d3300
cca300
4c2300
0c4300
3c8e00
000000
000000
ENDCHAR
STARTCHAR 284b
ENCODING 10315
SWIDTH 954 0
DWIDTH 18 0
BBX 18 19 0 -1
BITMAP
000000
031000
ff1800
221000
141000
8d1300
ff7f00
c91300
c91300
c91300
c91300
c91300
ff1300
c93300
c92300
c90300
c34e00
000000
000000
ENDCHAR
STARTCHAR 284c
ENCODING 10316
SWIDTH 954 0
DWIDTH 18 0
BBX 18 19 0 -1
BITMAP
000000
200000
300000
3fff00
360200
0c2200
4ff200
0cc200
08f200
0a0200
0fe200
0e4200
0bc200
03c200
026200
301400
003c00
000000
000000
ENDCHAR
STARTCHAR 284d
ENCODING 10317
SWIDTH 954 0
DWIDTH 18 0
BBX 18 19 0 -1
BITMAP
000000
404000
606000
7f4000
404000
7e4000
3f4300
304000
224000
484000
484000
0b4000
ff4100
144100
104100
237f00
433f00
000000
000000
ENDCHAR
STARTCHAR 284e
ENCODING 10318
SWIDTH 954 0
DWIDTH 18 0
BBX 18 19 0 -1
BITMAP
000000
400200
7fff00
421000
431800
4b1000
4b1000
4f1000
43fe00
4f1000
4b1000
4b1000
4b1000
437c00
520000
ffff00
400000
000000
000000
ENDCHAR
STARTCHAR 284f
ENCODING 10319
SWIDTH 954 0
DWIDTH 18 0
BBX 18 19 0 -1
BITMAP
000000
400200
7fff00
463000
442000
4a3f00
4b4400
6b8400
4b2400
4b3c00
4b1800
4b3c00
4a2600
48c200
410000
ffff00
400000
000000
000000
ENDCHAR
STARTCHAR 2850
ENCODING 10320
SWIDTH 954 0
DWIDTH 18 0
BBX 18 19 0 -1
BITMAP
000000
000200
3fff00
206000
244400
244400
2ffc00
204000
204400
204000
204000
23fc00
204000
204200
2fff00
200300
7fff00
000000
000000
ENDCHAR
STARTCHAR 2851
ENCODING 10321
SWIDTH 954 0
DWIDTH 18 0
BBX 18 19 0 -1
BITMAP
000000
000000
00c000
00fc00
008000
3fff00
200200
208200
214200
223200
241a00
208200
214200
223200
241a00
200200
3ffe00
000000
000000
ENDCHAR
STARTCHAR 2852
ENCODING 10322
SWIDTH 954 0
DWIDTH 18 0
BBX 18 19 0 -1
BITMAP
000000
200000
300c00
30c800
3fc800
400800
bf8800
3c8a00
348b00
308900
ffe800
2c8800
248800
208800
7fc800
030800
0f0800
000000
000000
ENDCHAR
STARTCHAR 2853
ENCODING 10323
SWIDTH 954 0
DWIDTH 18 0
BBX 18 19 0 -1
BITMAP
000000
000000
300000
3eff00
442c00
8a2c00
7f2c00
522c00
5f2c00
522c00
522c00
5e2c00
542d00
514d00
52cd00
5c8f00
890700
000000
000000
ENDCHAR
STARTCHAR 2854
ENCODING 10324
SWIDTH 954 0
DWIDTH 18 0
BBX 18 19 0 -1
BITMAP
000000
000000
000300
208000
20c000
20c200
3fff00
26cc00
24c800
2fd400
29e200
308000
20a000
231000
020800
4c0600
880300
000000
000000
ENDCHAR
STARTCHAR 2855
ENCODING 10325
SWIDTH 954 0
DWIDTH 18 0
BBX 18 19 0 -1
BITMAP
000000
200300
3fff00
300200
33ff00
320200
320200
320200
320200
33fe00
300000
322000
332800
322200
242300
482100
50e000
000000
000000
ENDCHAR
STARTCHAR 2856
ENCODING 10326
SWIDTH 954 0
DWIDTH 18 0
BBX 18 19 0 -1
BITMAP
000000
100000
180400
104400
104400
104400
104c00
107f00
105300
105300
105200
304400
34cc00
02cc00
4e9400
412300
014300
000000
000000
ENDCHAR
STARTCHAR 2857
ENCODING 10327
SWIDTH 954 0
DWIDTH 18 0
BBX 18 19 0 -1
BITMAP
000000
080000
0c0000
0c8300
0fff00
0c1300
4c9300
409300
409300
408200
408a00
408c00
408c00
408a00
409200
40b300
43a100
000000
000000
ENDCHAR
STARTCHAR 2858
ENCODING 10328
SWIDTH 954 0
DWIDTH 18 0
BBX 18 19 0 -1
BITMAP
000000
002000
003000
ffff00
c80000
c80200
c88400
c84800
c84000
cbff00
c83000
c83000
c83000
c03000
803000
003000
003000
000000
000000
ENDCHAR
STARTCHAR 2859
ENCODING 10329
SWIDTH 954 0
DWIDTH 18 0
BBX 18 19 0 -1
BITMAP
000000
001000
001800
fc1100
ca1100
cb1000
cb1000
cb1200
cb1300
cbf300
cb1200
cb1400
cb1400
c20900
821d00
042300
08c300
000000
000000
ENDCHAR
STARTCHAR 285a
ENCODING 10330
SWIDTH 954 0
DWIDTH 18 0
BBX 18 19 0 -1
BITMAP
000000
002000
003000
7c3200
4c3f00
4c3000
4c3000
4fff00
4c0000
4fff00
4c3000
4c3000
4c3c00
483300
403300
003000
003000
000000
000000
ENDCHAR
STARTCHAR 285b
ENCODING 10331
SWIDTH 954 0
DWIDTH 18 0
BBX 18 19 0 -1
BITMAP
000000
002000
003000
7c3200
4c3f00
4c3000
4c3000
4fff00
4c2000
4c3000
4d3000
4d3000
4d3200
4a3300
403100
003000
00f000
000000
000000
ENDCHAR
STARTCHAR 285c
ENCODING 10332
SWIDTH 954 0
DWIDTH 18 0
BBX 18 19 0 -1
BITMAP
000000
004000
006c00
fc4800
c84800
cbff00
cb4b00
cb4b00
cb4b00
cb4b00
cbff00
cb4b00
cb4b00
c34b00
834b00
03ff00
030200
000000
000000
ENDCHAR
STARTCHAR 285d
ENCODING 10333
SWIDTH 954 0
DWIDTH 18 0
BBX 18 19 0 -1
BITMAP
000000
001000
00d800
fc9300
c89100
c91000
c9ff00
cb1000
cb1000
cb1300
cb1200
cb1400
cb0c00
c30900
831d00
032300
034300
000000
000000
ENDCHAR
STARTCHAR 285e
ENCODING 10334
SWIDTH 954 0
DWIDTH 18 0
BBX 18 19 0 -1
BITMAP
000000
200000
303000
301000
30fe00
384c00
fe4d00
330d00
330d00
332900
333100
332900
332d00
3fc700
f30100
03ff00
020100
000000
000000
ENDCHAR
STARTCHAR 285f
ENCODING 10335
SWIDTH 954 0
DWIDTH 18 0
BBX 18 19 0 -1
BITMAP
000000
000000
040c00
104c00
104c00
10cc00
106c00
10ad00
1d0d00
420f00
0c0700
008000
008c00
008000
008000
008300
ffff00
000000
000000
ENDCHAR
STARTCHAR 2860
ENCODING 10336
SWIDTH 954 0
DWIDTH 18 0
BBX 18 19 0 -1
BITMAP
000000
000400
3ffe00
022400
022600
122c00
0a2800
022000
022200
000000
00c000
008400
3ffe00
008000
008000
008300
ffff00
000000
000000
ENDCHAR
STARTCHAR 2861
ENCODING 10337
SWIDTH 954 0
DWIDTH 18 0
BBX 18 19 0 -1
BITMAP
000000
202400
323600
30c400
316400
3c1400
3ffc00
0c3000
0a3000
231f00
c20000
041000
083000
214000
03c000
0c1c00
300f00
000000
000000
ENDCHAR
STARTCHAR 2862
ENCODING 10338
SWIDTH 954 0
DWIDTH 18 0
BBX 18 19 0 -1
BITMAP
000000
010000
018000
030300
ffff00
041000
0c0800
100600
2ffb00
000000
0ff800
080800
0ff800
080800
0ff800
000200
7fff00
000000
000000
ENDCHAR
STARTCHAR 2863
ENCODING 10339
SWIDTH 954 0
DWIDTH 18 0
BBX 18 19 0 -1
BITMAP
000000
010000
018000
010300
ffff00
023000
041800
100700
243200
042000
242200
342000
342000
342100
342100
37bf00
fc3f00
000000
000000
ENDCHAR
STARTCHAR 2864
ENCODING 10340
SWIDTH 954 0
DWIDTH 18 0
BBX 18 19 0 -1
BITMAP
000000
080000
0c3000
0c2000
3d2200
2c2000
2c2100
2c2100
2f3f00
400000
00c000
008300
ffff00
032000
021000
080600
300300
000000
000000
ENDCHAR
STARTCHAR 2865
ENCODING 10341
SWIDTH 954 0
DWIDTH 18 0
BBX 18 19 0 -1
BITMAP
000000
000200
301300
212300
292b00
fd2b00
e92b00
292b00
2bfb00
492b00
492b00
612b00
112b00
3d2b00
292300
422300
802f00
000000
000000
ENDCHAR
STARTCHAR 2866
ENCODING 10342
SWIDTH 954 0
DWIDTH 18 0
BBX 18 19 0 -1
BITMAP
000000
008000
30c000
28c200
2cff00
fc1000
ed1000
2c1000
2c1100
4c1000
4c1000
68d300
109300
3c9300
249300
41ff00
800200
000000
000000
ENDCHAR
STARTCHAR 2867
ENCODING 10343
SWIDTH 954 0
DWIDTH 18 0
BBX 18 19 0 -1
BITMAP
000000
000000
304400
2c4400
2c4400
ec4400
2cc400
2c1300
2d1800
4c1100
4fff00
e89000
70d000
3c9300
2c1100
421100
801000
000000
000000
ENDCHAR
STARTCHAR 2868
ENCODING 10344
SWIDTH 954 0
DWIDTH 18 0
BBX 18 19 0 -1
BITMAP
000000
200400
31fe00
080100
cbff00
008200
13ff00
300200
e00600
200c00
240000
041300
ffff00
083000
3fa000
019c00
060e00
000000
000000
ENDCHAR
STARTCHAR 2869
ENCODING 10345
SWIDTH 954 0
DWIDTH 18 0
BBX 18 19 0 -1
BITMAP
000000
000000
0c0300
0f3300
783300
0f2300
782300
0f4300
f89e00
090000
041000
ffff00
0c1000
3f2000
11c000
020c00
0c0600
000000
000000
ENDCHAR
STARTCHAR 286a
ENCODING 10346
SWIDTH 954 0
DWIDTH 18 0
BBX 18 19 0 -1
BITMAP
000000
000000
00c000
1ffc00
008000
180c00
100c00
fe3f00
100c00
140800
161000
ffff00
0c1000
1f2000
10f000
030e00
0c0300
000000
000000
ENDCHAR
STARTCHAR 286b
ENCODING 10347
SWIDTH 954 0
DWIDTH 18 0
BBX 18 19 0 -1
BITMAP
000000
000000
10cc00
0c8000
089300
400300
c00200
0ff800
000000
021800
021300
041000
041000
0f2000
08c000
031c00
0c0e00
000000
000000
ENDCHAR
STARTCHAR 286c
ENCODING 10348
SWIDTH 954 0
DWIDTH 18 0
BBX 18 19 0 -1
BITMAP
000000
811000
ff9800
c11000
cd1000
c11200
c17f00
d53200
dd3200
d53200
d52200
d57400
dd0c00
c10a00
c10b00
c13100
c72100
000000
000000
ENDCHAR
STARTCHAR 286d
ENCODING 10349
SWIDTH 954 0
DWIDTH 18 0
BBX 18 19 0 -1
BITMAP
000000
000200
311f00
290000
2d0000
fd3f00
ed2a00
2d2a00
2d2a00
4d2a00
4d3e00
692000
112000
3d2100
352100
433f00
823f00
000000
000000
ENDCHAR
STARTCHAR 286e
ENCODING 10350
SWIDTH 954 0
DWIDTH 18 0
BBX 18 19 0 -1
BITMAP
000000
001000
0ff800
004000
00c400
00c000
00c000
008000
000200
020200
040400
0c0800
0f0900
fc0800
4c0800
0c0800
3c7800
000000
000000
ENDCHAR
STARTCHAR 286f
ENCODING 10351
SWIDTH 954 0
DWIDTH 18 0
BBX 18 19 0 -1
BITMAP
000000
080000
0c3000
3d2200
2f3f00
2c2100
2c2100
f83f00
600000
1ff800
003000
00c000
00c300
00c000
00c000
00c000
07c000
000000
000000
ENDCHAR
STARTCHAR 2870
ENCODING 10352
SWIDTH 954 0
DWIDTH 18 0
BBX 18 19 0 -1
BITMAP
000000
000000
0c0000
1fff00
100200
2fe200
484200
084200
0fc200
003000
0ff000
004000
00c000
ffff00
00c000
00c000
07c000
000000
000000
ENDCHAR
STARTCHAR 2871
ENCODING 10353
SWIDTH 954 0
DWIDTH 18 0
BBX 18 19 0 -1
BITMAP
000000
010000
008000
3fff00
440300
442000
0ff000
104400
3ffe00
100800
13fc00
120800
120800
121200
320200
23ff00
43fe00
000000
000000
ENDCHAR
STARTCHAR 2872
ENCODING 10354
SWIDTH 954 0
DWIDTH 18 0
BBX 18 19 0 -1
BITMAP
000000
010000
008000
3fff00
400300
4ffc00
080800
0ff800
080800
0ff800
100000
100800
1ffc00
100200
100200
1fff00
0ffe00
000000
000000
ENDCHAR
STARTCHAR 2873
ENCODING 10355
SWIDTH 954 0
DWIDTH 18 0
BBX 18 19 0 -1
BITMAP
000000
010000
008000
3fff00
400300
40c000
008000
00fe00
008000
008200
7fff00
009000
0c8800
108400
308200
408300
838000
000000
000000
ENDCHAR
STARTCHAR 2874
ENCODING 10356
SWIDTH 954 0
DWIDTH 18 0
BBX 18 19 0 -1
BITMAP
000000
100000
180300
108000
108000
fe8900
3cc900
3caa00
3c8800
3c9400
3c9000
3d2300
2d0100
2e8000
0c0100
4fff00
47ff00
000000
000000
ENDCHAR
STARTCHAR 2875
ENCODING 10357
SWIDTH 954 0
DWIDTH 18 0
BBX 18 19 0 -1
BITMAP
000000
200000
300200
308200
308200
fe8200
3c8200
3c0000
3cc000
3cfc00
3c8000
3c8200
3c8200
2cfe00
0c0100
4fff00
47ff00
000000
000000
ENDCHAR
STARTCHAR 2876
ENCODING 10358
SWIDTH 954 0
DWIDTH 18 0
BBX 18 19 0 -1
BITMAP
000000
000200
3fff00
200200
200200
204000
204200
204000
2ffe00
204200
2ffe00
2c4300
2fff00
20b300
211600
020c00
4c0300
000000
000000
ENDCHAR
STARTCHAR 2877
ENCODING 10359
SWIDTH 954 0
DWIDTH 18 0
BBX 18 19 0 -1
BITMAP
000000
000200
3fff00
200200
200200
200000
200200
200000
200c00
220c00
220c00
23fc00
220c00
420c00
43fc00
400300
9fff00
000000
000000
ENDCHAR
STARTCHAR 2878
ENCODING 10360
SWIDTH 954 0
DWIDTH 18 0
BBX 18 19 0 -1
BITMAP
000000
000200
3fff00
200200
200200
280000
2c0000
2ffc00
2c0000
2ffc00
27fe00
200000
27fc00
040400
47fc00
440400
87fc00
000000
000000
ENDCHAR
STARTCHAR 2879
ENCODING 10361
SWIDTH 954 0
DWIDTH 18 0
BBX 18 19 0 -1
BITMAP
000000
000200
3fff00
200200
200200
200000
20c000
250400
27fe00
240400
240400
240400
240400
27fc00
240400
440400
47fc00
000000
000000
ENDCHAR
STARTCHAR 287a
ENCODING 10362
SWIDTH 954 0
DWIDTH 18 0
BBX 18 19 0 -1
BITMAP
000000
000200
3fff00
200200
200200
208000
20c000
221c00
2c3000
23c000
208800
247c00
2fc200
444800
464400
484300
91c200
000000
000000
ENDCHAR
STARTCHAR 287b
ENCODING 10363
SWIDTH 954 0
DWIDTH 18 0
BBX 18 19 0 -1
BITMAP
000000
200000
310200
314f00
310b00
b51300
b53b00
b54700
b58700
b5ff00
b54a00
b44800
b44900
fcc900
848900
030f00
020f00
000000
000000
ENDCHAR
STARTCHAR 287c
ENCODING 10364
SWIDTH 954 0
DWIDTH 18 0
BBX 18 19 0 -1
BITMAP
000000
208c00
30fc00
30cc00
30cc00
b48c00
b48f00
b73000
b43000
b43300
b7ff00
b43000
b53400
fd3300
873300
003100
043000
000000
000000
ENDCHAR
STARTCHAR 287d
ENCODING 10365
SWIDTH 954 0
DWIDTH 18 0
BBX 18 19 0 -1
BITMAP
000000
008000
00c000
30c300
30c200
3ffe00
200000
008000
000300
000000
000c00
080c00
080c00
0ffc00
080c00
080c00
0ffc00
000000
000000
ENDCHAR
STARTCHAR 287e
ENCODING 10366
SWIDTH 954 0
DWIDTH 18 0
BBX 18 19 0 -1
BITMAP
000000
000000
20c400
308400
3ffc00
00c000
008300
008c00
008800
ffff00
00c000
020000
0e0800
c20000
020000
03fc00
03fe00
000000
000000
ENDCHAR
STARTCHAR 2921
ENCODING 10529
SWIDTH 954 0
DWIDTH 18 0
BBX 18 19 0 -1
BITMAP
000000
203000
301000
33ff00
b08000
b48000
b48000
b4fe00
b4ff00
b49000
b4db00
b4d200
b4d200
bcd200
b4d200
301300
311300
000000
000000
ENDCHAR
STARTCHAR 2922
ENCODING 10530
SWIDTH 954 0
DWIDTH 18 0
BBX 18 19 0 -1
BITMAP
000000
202000
303000
33ff00
b42c00
b4c200
b48300
b60000
b40000
b5ff00
b44000
b4c200
b4ff00
bc0200
b80200
300400
307c00
000000
000000
ENDCHAR
STARTCHAR 2923
ENCODING 10531
SWIDTH 954 0
DWIDTH 18 0
BBX 18 19 0 -1
BITMAP
000000
204000
306000
30fe00
b4c400
b54c00
b62800
b42000
b4cc00
b41300
b43f00
b44300
b4a200
bc1c00
b81000
304000
308000
000000
000000
ENDCHAR
STARTCHAR 2924
ENCODING 10532
SWIDTH 954 0
DWIDTH 18 0
BBX 18 19 0 -1
BITMAP
000000
000000
010300
103200
133200
233200
433200
142200
0c0200
20ce00
c08400
3ffc00
308400
308400
308400
208c00
008000
000000
000000
ENDCHAR
STARTCHAR 2925
ENCODING 10533
SWIDTH 954 0
DWIDTH 18 0
BBX 18 19 0 -1
BITMAP
000000
040000
063000
042200
37bf00
242100
242100
27bf00
fc3f00
00c000
208400
308400
308400
308400
308400
208c00
008000
000000
000000
ENDCHAR
STARTCHAR 2926
ENCODING 10534
SWIDTH 954 0
DWIDTH 18 0
BBX 18 19 0 -1
BITMAP
000000
200200
300300
33f300
b48300
b4af00
b4fb00
b52b00
b52b00
b72b00
b6ab00
b44b00
bc4b00
30c300
308300
330300
300f00
000000
000000
ENDCHAR
STARTCHAR 2927
ENCODING 10535
SWIDTH 954 0
DWIDTH 18 0
BBX 18 19 0 -1
BITMAP
000000
008000
00c000
3fff00
200000
27ff00
240200
240200
25fa00
240200
24f200
249200
249200
241200
040200
440200
441e00
000000
000000
ENDCHAR
STARTCHAR 2928
ENCODING 10536
SWIDTH 954 0
DWIDTH 18 0
BBX 18 19 0 -1
BITMAP
000000
00c000
004000
3fff00
200000
20c000
248400
240400
240400
27fc00
240000
240200
27ff00
240200
040200
47fe00
440000
000000
000000
ENDCHAR
STARTCHAR 2929
ENCODING 10537
SWIDTH 954 0
DWIDTH 18 0
BBX 18 19 0 -1
BITMAP
000000
008000
00c000
3fff00
204000
20fc00
210c00
22d000
2c7000
20e000
213000
2c7f00
20c200
26cc00
005000
404000
418000
000000
000000
ENDCHAR
STARTCHAR 292a
ENCODING 10538
SWIDTH 954 0
DWIDTH 18 0
BBX 18 19 0 -1
BITMAP
000000
008000
00c000
3fff00
220000
209000
201200
204000
244400
244400
244400
2ffc00
24c400
208000
010000
420000
440000
000000
000000
ENDCHAR
STARTCHAR 292b
ENCODING 10539
SWIDTH 954 0
DWIDTH 18 0
BBX 18 19 0 -1
BITMAP
000000
001000
409800
409200
409300
5e9000
40ff00
409000
4e9000
409000
409000
4c8800
408900
408d00
408d00
408300
438300
000000
000000
ENDCHAR
STARTCHAR 292c
ENCODING 10540
SWIDTH 954 0
DWIDTH 18 0
BBX 18 19 0 -1
BITMAP
000000
000000
0c0300
0c9000
0c9000
4c9000
7c9200
408200
c08200
fc8200
0c8200
0c9000
0c9000
0c9000
0c9000
09ff00
f00000
000000
000000
ENDCHAR
STARTCHAR 292d
ENCODING 10541
SWIDTH 954 0
DWIDTH 18 0
BBX 18 19 0 -1
BITMAP
000000
008000
0cc000
0cc300
0cff00
4c0200
7d8f00
40d000
c0d200
fcd200
0cc000
0cc800
0cc800
0ccc00
0cc400
0cf300
f8e300
000000
000000
ENDCHAR
STARTCHAR 292e
ENCODING 10542
SWIDTH 954 0
DWIDTH 18 0
BBX 18 19 0 -1
BITMAP
000000
001000
0c1800
0c3800
0c3c00
4c4200
7cc300
410100
c2fe00
fc0000
0c8200
0cc200
0cc200
0cc200
0cc200
08fe00
f0c000
000000
000000
ENDCHAR
STARTCHAR 292f
ENCODING 10543
SWIDTH 954 0
DWIDTH 18 0
BBX 18 19 0 -1
BITMAP
000000
000000
0c8300
0c4400
0c2400
4dff00
7c4400
404400
c04400
fc4400
0dff00
0c4400
0c4400
0c4400
0cc400
080400
f10400
000000
000000
ENDCHAR
STARTCHAR 2930
ENCODING 10544
SWIDTH 954 0
DWIDTH 18 0
BBX 18 19 0 -1
BITMAP
000000
040200
7e7f00
080800
0a0b00
100800
100800
000000
000c00
000c00
200c00
300800
200200
000200
000200
000600
003c00
000000
000000
ENDCHAR
STARTCHAR 2931
ENCODING 10545
SWIDTH 954 0
DWIDTH 18 0
BBX 18 19 0 -1
BITMAP
000000
102000
183000
303200
23ff00
403000
8c3000
103100
13ff00
303000
303000
b03200
33ff00
303000
303000
303100
33ff00
000000
000000
ENDCHAR
STARTCHAR 2932
ENCODING 10546
SWIDTH 954 0
DWIDTH 18 0
BBX 18 19 0 -1
BITMAP
000000
100000
1a0300
330300
230300
43ff00
8f0300
134b00
137f00
334b00
334b00
b34b00
337b00
330300
330300
330300
331f00
000000
000000
ENDCHAR
STARTCHAR 2933
ENCODING 10547
SWIDTH 954 0
DWIDTH 18 0
BBX 18 19 0 -1
BITMAP
000000
108000
18c000
30ff00
208200
414400
8e0c00
103000
103800
30c600
308300
b4fe00
308200
308200
308200
30fe00
308000
000000
000000
ENDCHAR
STARTCHAR 2934
ENCODING 10548
SWIDTH 954 0
DWIDTH 18 0
BBX 18 19 0 -1
BITMAP
000000
102000
183000
302000
202800
40c400
8c8200
130d00
14fc00
300000
300000
b1ff00
310200
310200
310200
31fe00
310000
000000
000000
ENDCHAR
STARTCHAR 2935
ENCODING 10549
SWIDTH 954 0
DWIDTH 18 0
BBX 18 19 0 -1
BITMAP
000000
000000
000300
fc2000
102000
10ff00
104200
1c0200
f00200
003c00
000c00
08c000
2c4000
0c0200
4c0300
4ff900
07f000
000000
000000
ENDCHAR
STARTCHAR 2936
ENCODING 10550
SWIDTH 954 0
DWIDTH 18 0
BBX 18 19 0 -1
BITMAP
000000
000000
00c000
008200
7fff00
008000
108c00
100c00
100c00
1ffc00
100800
08c000
0c4000
0c0300
4c0100
cff900
07f000
000000
000000
ENDCHAR
STARTCHAR 2937
ENCODING 10551
SWIDTH 954 0
DWIDTH 18 0
BBX 18 19 0 -1
BITMAP
000000
100000
180000
130300
ff3f00
132300
132300
232300
033f00
840000
000000
08c000
0c4000
0c0300
4c0100
cff900
07f000
000000
000000
ENDCHAR
STARTCHAR 2938
ENCODING 10552
SWIDTH 954 0
DWIDTH 18 0
BBX 18 19 0 -1
BITMAP
000000
004000
0c6c00
104000
13ff00
304000
102100
903100
101100
100f00
100300
08c000
0c4000
0c0300
4c0100
cff900
07f000
000000
000000
ENDCHAR
STARTCHAR 2939
ENCODING 10553
SWIDTH 954 0
DWIDTH 18 0
BBX 18 19 0 -1
BITMAP
000000
202000
303000
33ff00
320300
780c00
7c3c00
f02000
f02000
302200
33ff00
302000
302000
302200
302200
303f00
303e00
000000
000000
ENDCHAR
STARTCHAR 293a
ENCODING 10554
SWIDTH 954 0
DWIDTH 18 0
BBX 18 19 0 -1
BITMAP
000000
204000
302000
302300
37ff00
786000
7c4000
f08c00
f10c00
30d000
307300
304400
30cc00
331800
343400
30c300
310300
000000
000000
ENDCHAR
STARTCHAR 293b
ENCODING 10555
SWIDTH 954 0
DWIDTH 18 0
BBX 18 19 0 -1
BITMAP
000000
202000
303000
303300
33ff00
783000
7e3300
f33300
f33300
333300
33ff00
303000
333000
306000
30f000
310c00
320700
000000
000000
ENDCHAR
STARTCHAR 293c
ENCODING 10556
SWIDTH 954 0
DWIDTH 18 0
BBX 18 19 0 -1
BITMAP
000000
201000
301800
301100
321100
7b1000
7f1000
f31200
f31300
33d300
335200
331400
330c00
331c00
323c00
304200
348300
000000
000000
ENDCHAR
STARTCHAR 293d
ENCODING 10557
SWIDTH 954 0
DWIDTH 18 0
BBX 18 19 0 -1
BITMAP
000000
200200
302300
310300
310f00
79cb00
7f4b00
f24b00
f34b00
30cb00
34cb00
308b00
308b00
310300
310300
300300
340f00
000000
000000
ENDCHAR
STARTCHAR 293e
ENCODING 10558
SWIDTH 954 0
DWIDTH 18 0
BBX 18 19 0 -1
BITMAP
000000
202000
303000
33ff00
302800
78c400
7c8200
f3fd00
f00000
33ff00
30c000
308200
31ff00
300200
300200
300400
30fc00
000000
000000
ENDCHAR
STARTCHAR 293f
ENCODING 10559
SWIDTH 954 0
DWIDTH 18 0
BBX 18 19 0 -1
BITMAP
000000
204000
306000
30c400
308200
73f300
798200
fd3000
f1b000
31fe00
333000
303000
303100
303000
303000
303000
303000
000000
000000
ENDCHAR
STARTCHAR 2940
ENCODING 10560
SWIDTH 954 0
DWIDTH 18 0
BBX 18 19 0 -1
BITMAP
000000
200000
300600
33f000
330000
7b0000
7f0300
f30000
f30000
334200
337f00
334200
334200
324200
324200
307e00
344000
000000
000000
ENDCHAR
STARTCHAR 2941
ENCODING 10561
SWIDTH 954 0
DWIDTH 18 0
BBX 18 19 0 -1
BITMAP
000000
200000
30c200
310000
310000
788000
7cc000
f0bf00
f00200
330200
310200
310200
310200
310200
310200
310200
311e00
000000
000000
ENDCHAR
STARTCHAR 2942
ENCODING 10562
SWIDTH 954 0
DWIDTH 18 0
BBX 18 19 0 -1
BITMAP
000000
202000
303200
313300
313200
78b400
7cb400
f3ff00
f03000
b03000
30f400
313200
313300
323100
303100
303000
303000
000000
000000
ENDCHAR
STARTCHAR 2943
ENCODING 10563
SWIDTH 954 0
DWIDTH 18 0
BBX 18 19 0 -1
BITMAP
000000
000000
033000
3fff00
022200
3ffe00
322000
7fff00
022300
042300
0c2e00
310000
088400
2cc300
2c0b00
4c0d00
cffc00
000000
000000
ENDCHAR
STARTCHAR 2944
ENCODING 10564
SWIDTH 954 0
DWIDTH 18 0
BBX 18 19 0 -1
BITMAP
000000
000200
7fff00
008000
208400
308400
308400
308400
3ffc00
008000
000000
010000
0c8400
089200
481300
cff300
0ff000
000000
000000
ENDCHAR
STARTCHAR 2945
ENCODING 10565
SWIDTH 954 0
DWIDTH 18 0
BBX 18 19 0 -1
BITMAP
000000
001000
00c800
008800
008200
018000
03c000
04b000
0c9000
308e00
408400
010000
088000
2c4000
2c4200
4c0b00
4ffb00
000000
000000
ENDCHAR
STARTCHAR 2946
ENCODING 10566
SWIDTH 954 0
DWIDTH 18 0
BBX 18 19 0 -1
BITMAP
000000
044000
066000
044000
044200
044000
044000
044100
1c4100
443f00
000000
088000
0cc000
2c4b00
2c0900
4ffd00
47f800
000000
000000
ENDCHAR
STARTCHAR 2947
ENCODING 10567
SWIDTH 954 0
DWIDTH 18 0
BBX 18 19 0 -1
BITMAP
000000
000200
3fff00
222200
222200
3ffe00
222200
222200
222200
200e00
200400
008000
08c400
2c4200
2c0300
4ffb00
47f000
000000
000000
ENDCHAR
STARTCHAR 2948
ENCODING 10568
SWIDTH 954 0
DWIDTH 18 0
BBX 18 19 0 -1
BITMAP
000000
202000
303000
303000
313200
793200
7d3200
f1fe00
b13200
313200
31fe00
303000
332000
304000
307000
308c00
310300
000000
000000
ENDCHAR
STARTCHAR 2949
ENCODING 10569
SWIDTH 954 0
DWIDTH 18 0
BBX 18 19 0 -1
BITMAP
000000
202000
303000
303000
303000
79ff00
7d3200
f13200
b13200
313200
31fe00
303000
303000
303300
303100
33e100
33c100
000000
000000
ENDCHAR
STARTCHAR 294a
ENCODING 10570
SWIDTH 954 0
DWIDTH 18 0
BBX 18 19 0 -1
BITMAP
000000
200000
30c000
31ff00
310000
7e0200
79ff00
f13200
f13200
313200
37ff00
332200
332200
332200
33ff00
300c00
303c00
000000
000000
ENDCHAR
STARTCHAR 294b
ENCODING 10571
SWIDTH 954 0
DWIDTH 18 0
BBX 18 19 0 -1
BITMAP
000000
208000
30cc00
308300
310300
786000
7c4800
f08200
b11e00
318300
308000
30c800
30c800
308900
308900
330f00
320f00
000000
000000
ENDCHAR
STARTCHAR 294c
ENCODING 10572
SWIDTH 954 0
DWIDTH 18 0
BBX 18 19 0 -1
BITMAP
000000
002000
00b400
033300
033100
4b3300
7fff00
4b3000
4b3300
4b3200
7b1400
031c00
030c00
031c00
033c00
034200
1fc300
000000
000000
ENDCHAR
STARTCHAR 294d
ENCODING 10573
SWIDTH 954 0
DWIDTH 18 0
BBX 18 19 0 -1
BITMAP
000000
000c00
20fe00
300000
300200
300200
300200
3ffe00
304000
304c00
33fc00
304000
304200
308800
210400
023a00
47c200
000000
000000
ENDCHAR
STARTCHAR 294e
ENCODING 10574
SWIDTH 954 0
DWIDTH 18 0
BBX 18 19 0 -1
BITMAP
000000
104000
182000
102300
13ff00
103000
104000
108c00
110c00
1c5000
f03000
104600
10cc00
121800
103c00
10c200
710300
000000
000000
ENDCHAR
STARTCHAR 294f
ENCODING 10575
SWIDTH 954 0
DWIDTH 18 0
BBX 18 19 0 -1
BITMAP
000000
200200
30d300
309300
309300
309300
309300
33b700
309300
3c9300
f09300
309300
309300
311300
311300
321300
f01300
000000
000000
ENDCHAR
STARTCHAR 2950
ENCODING 10576
SWIDTH 954 0
DWIDTH 18 0
BBX 18 19 0 -1
BITMAP
000000
201000
301a00
301100
301000
301000
301000
309300
309300
3fd200
f09200
309400
308c00
310800
331c00
302200
f0c300
000000
000000
ENDCHAR
STARTCHAR 2951
ENCODING 10577
SWIDTH 954 0
DWIDTH 18 0
BBX 18 19 0 -1
BITMAP
000000
200200
302300
310b00
310f00
312b00
31fb00
332b00
322b00
f0ab00
f0eb00
304b00
30cb00
308b00
300300
320300
f00f00
000000
000000
ENDCHAR
STARTCHAR 2952
ENCODING 10578
SWIDTH 954 0
DWIDTH 18 0
BBX 18 19 0 -1
BITMAP
000000
200000
300300
302000
302000
324300
33ff00
334b00
334b00
3f4b00
f34b00
334b00
334b00
334b00
334b00
334b00
f34700
000000
000000
ENDCHAR
STARTCHAR 2953
ENCODING 10579
SWIDTH 954 0
DWIDTH 18 0
BBX 18 19 0 -1
BITMAP
000000
100000
190200
110200
110200
11fe00
110200
110200
11fe00
1c3000
f03000
13ff00
103000
103000
103000
103000
703000
000000
000000
ENDCHAR
STARTCHAR 2954
ENCODING 10580
SWIDTH 954 0
DWIDTH 18 0
BBX 18 19 0 -1
BITMAP
000000
200000
320300
330300
332300
333300
333700
333300
333300
3f2300
f32b00
334700
338700
330300
330300
33ff00
f30200
000000
000000
ENDCHAR
STARTCHAR 2955
ENCODING 10581
SWIDTH 954 0
DWIDTH 18 0
BBX 18 19 0 -1
BITMAP
000000
204800
306c00
304c00
304c00
324c00
334d00
334c00
334c00
3f4c00
f34c00
334c00
334c00
334c00
334c00
37cf00
f20700
000000
000000
ENDCHAR
STARTCHAR 2956
ENCODING 10582
SWIDTH 954 0
DWIDTH 18 0
BBX 18 19 0 -1
BITMAP
000000
200000
320200
330200
330200
332200
332200
33fa00
33aa00
3faa00
f3aa00
33aa00
33aa00
33ba00
32a200
302300
f42100
000000
000000
ENDCHAR
STARTCHAR 2957
ENCODING 10583
SWIDTH 954 0
DWIDTH 18 0
BBX 18 19 0 -1
BITMAP
000000
202000
303000
33ff00
302000
30c000
308200
33f100
330100
3ccc00
f0cc00
33ff00
30cc00
308c00
308c00
310c00
f20c00
000000
000000
ENDCHAR
STARTCHAR 2958
ENCODING 10584
SWIDTH 954 0
DWIDTH 18 0
BBX 18 19 0 -1
BITMAP
000000
200000
300300
303000
343000
300000
314300
310300
310300
3d0300
f10300
310300
310300
310300
310300
31ff00
f10200
000000
000000
ENDCHAR
STARTCHAR 2959
ENCODING 10585
SWIDTH 954 0
DWIDTH 18 0
BBX 18 19 0 -1
BITMAP
000000
102000
183000
103200
103f00
103000
103300
100000
100300
1c3000
f03000
103400
103200
103300
103000
103000
703000
000000
000000
ENDCHAR
STARTCHAR 295a
ENCODING 10586
SWIDTH 954 0
DWIDTH 18 0
BBX 18 19 0 -1
BITMAP
000000
204400
307e00
304400
3a4400
334400
337c00
331000
33f800
3c1000
f01300
303800
302800
304400
30c400
310200
f30300
000000
000000
ENDCHAR
STARTCHAR 295b
ENCODING 10587
SWIDTH 954 0
DWIDTH 18 0
BBX 18 19 0 -1
BITMAP
000000
208000
30c000
30fe00
348400
310800
320200
303200
303200
f3ff00
f03200
303200
31fe00
303000
303000
303000
f0f000
000000
000000
ENDCHAR
STARTCHAR 295c
ENCODING 10588
SWIDTH 954 0
DWIDTH 18 0
BBX 18 19 0 -1
BITMAP
000000
200000
30c200
310000
330000
340000
30c300
310c00
310c00
3b8c00
f50c00
310c00
310c00
310c00
310c00
310c00
f13c00
000000
000000
ENDCHAR
STARTCHAR 295d
ENCODING 10589
SWIDTH 954 0
DWIDTH 18 0
BBX 18 19 0 -1
BITMAP
000000
241000
361800
349000
ffd000
34bf00
34a200
b41200
b45200
b49200
ffd200
348400
348c00
278c00
241400
442300
444300
000000
000000
ENDCHAR
STARTCHAR 295e
ENCODING 10590
SWIDTH 954 0
DWIDTH 18 0
BBX 18 19 0 -1
BITMAP
000000
002000
013000
023000
022000
423f00
7a0200
4a6200
4aa200
4a2400
7a2400
021c00
021c00
021800
023c00
064200
3cc300
000000
000000
ENDCHAR
STARTCHAR 295f
ENCODING 10591
SWIDTH 954 0
DWIDTH 18 0
BBX 18 19 0 -1
BITMAP
000000
032000
473000
4c3000
4c2000
4c3f00
4d0200
4c6200
4ca200
4c2400
442400
441c00
521c00
631800
013c00
7e4200
00c300
000000
000000
ENDCHAR
STARTCHAR 2960
ENCODING 10592
SWIDTH 954 0
DWIDTH 18 0
BBX 18 19 0 -1
BITMAP
000000
002000
0c3000
103000
103000
233f00
212200
f96200
612200
003400
431400
431c00
430c00
431c00
433c00
7f4300
40c300
000000
000000
ENDCHAR
STARTCHAR 2961
ENCODING 10593
SWIDTH 954 0
DWIDTH 18 0
BBX 18 19 0 -1
BITMAP
000000
000000
0c0300
89a200
491200
2a0a00
080200
7f0200
083200
081200
080200
080200
08ff00
100200
300200
000200
400200
000000
000000
ENDCHAR
STARTCHAR 2962
ENCODING 10594
SWIDTH 954 0
DWIDTH 18 0
BBX 18 19 0 -1
BITMAP
000000
000000
030300
027800
024000
524000
7a4100
524400
524400
524400
524400
524400
024400
024400
024400
068400
3c8400
000000
000000
ENDCHAR
STARTCHAR 2963
ENCODING 10595
SWIDTH 954 0
DWIDTH 18 0
BBX 18 19 0 -1
BITMAP
000000
000000
000200
7c8200
4c8200
4c8200
4c8200
4cfe00
7c8200
4c8200
4c8200
4c8200
4c8200
7c0000
480000
000100
03ff00
000000
000000
ENDCHAR
STARTCHAR 2964
ENCODING 10596
SWIDTH 954 0
DWIDTH 18 0
BBX 18 19 0 -1
BITMAP
000000
002000
003000
fdb300
c93200
c93200
cbfe00
c83000
f83200
c80200
c80200
c8cc00
c84800
f83000
c03000
008c00
030300
000000
000000
ENDCHAR
STARTCHAR 2965
ENCODING 10597
SWIDTH 954 0
DWIDTH 18 0
BBX 18 19 0 -1
BITMAP
000000
000800
00cc00
fc8c00
c88c00
c88c00
c80c00
c90700
fa0000
c90200
c9ff00
c90200
c90200
f90200
c10200
01fe00
010000
000000
000000
ENDCHAR
STARTCHAR 2966
ENCODING 10598
SWIDTH 954 0
DWIDTH 18 0
BBX 18 19 0 -1
BITMAP
000000
000000
100c00
100c00
100c00
100c00
100c00
000000
000200
200200
200200
27f200
243200
243200
27f200
200200
201e00
000000
000000
ENDCHAR
STARTCHAR 2967
ENCODING 10599
SWIDTH 954 0
DWIDTH 18 0
BBX 18 19 0 -1
BITMAP
000000
100c00
1ffc00
100c00
1ffc00
100c00
1ffc00
040000
0c0800
1f8400
0c2400
043000
043300
0c3000
0c3000
103000
303000
000000
000000
ENDCHAR
STARTCHAR 2968
ENCODING 10600
SWIDTH 954 0
DWIDTH 18 0
BBX 18 19 0 -1
BITMAP
000000
000000
00c000
1ffc00
108c00
1ffc00
108c00
ffff00
100c00
103c00
100800
100c00
1ffc00
100c00
1ffc00
100c00
1ffc00
000000
000000
ENDCHAR
STARTCHAR 2969
ENCODING 10601
SWIDTH 954 0
DWIDTH 18 0
BBX 18 19 0 -1
BITMAP
000000
4c0000
7c0300
4c8300
4c8300
4c8300
7c8300
4c8300
4cff00
4c2c00
7c2c00
4c2c00
4c2d00
4c4d00
4ccd00
4c8f00
bd0700
000000
000000
ENDCHAR
STARTCHAR 296a
ENCODING 10602
SWIDTH 954 0
DWIDTH 18 0
BBX 18 19 0 -1
BITMAP
000000
000300
0c3f00
4a2300
6b2300
4b2300
4b3f00
4b2300
ff2300
082300
4a3f00
4b2300
4b2300
4b4300
4b4300
42c300
008f00
000000
000000
ENDCHAR
STARTCHAR 296b
ENCODING 10603
SWIDTH 954 0
DWIDTH 18 0
BBX 18 19 0 -1
BITMAP
000000
200000
320300
330300
330300
33ff00
330200
332000
7b2c00
bb2c00
b32c00
332c00
332c00
324d00
324d00
348f00
340700
000000
000000
ENDCHAR
STARTCHAR 296c
ENCODING 10604
SWIDTH 954 0
DWIDTH 18 0
BBX 18 19 0 -1
BITMAP
000000
200000
300e00
31f000
301100
311300
309200
305400
305000
7fff00
b81000
301000
301000
301000
301000
301000
30f000
000000
000000
ENDCHAR
STARTCHAR 296d
ENCODING 10605
SWIDTH 954 0
DWIDTH 18 0
BBX 18 19 0 -1
BITMAP
000000
100000
183000
101300
10ff00
fd0200
100000
300300
39ff00
101000
121000
501000
901000
101000
101000
101000
10f000
000000
000000
ENDCHAR
STARTCHAR 296e
ENCODING 10606
SWIDTH 954 0
DWIDTH 18 0
BBX 18 19 0 -1
BITMAP
000000
101000
181800
101300
11ff00
fc1000
101200
309300
389300
14ff00
549300
509300
909300
101300
111300
121200
101000
000000
000000
ENDCHAR
STARTCHAR 296f
ENCODING 10607
SWIDTH 954 0
DWIDTH 18 0
BBX 18 19 0 -1
BITMAP
000000
100000
183000
104400
104000
fcc300
108f00
30c000
388800
54cc00
54cc00
93ff00
10cc00
10cc00
108c00
110c00
130c00
000000
000000
ENDCHAR
STARTCHAR 2970
ENCODING 10608
SWIDTH 954 0
DWIDTH 18 0
BBX 18 19 0 -1
BITMAP
000000
000000
013000
022000
022300
525300
7ad300
521000
521000
521000
521000
523800
023c00
022400
024000
02c300
3e8300
000000
000000
ENDCHAR
STARTCHAR 2971
ENCODING 10609
SWIDTH 954 0
DWIDTH 18 0
BBX 18 19 0 -1
BITMAP
000000
002000
433000
423000
422300
420b00
424b00
428800
420800
420800
421400
4e1400
403400
402000
422200
40c300
008300
000000
000000
ENDCHAR
STARTCHAR 2972
ENCODING 10610
SWIDTH 954 0
DWIDTH 18 0
BBX 18 19 0 -1
BITMAP
000000
004000
026000
324000
324300
325300
325300
269000
5c1000
801000
023800
423800
422c00
424400
424400
7e8300
400300
000000
000000
ENDCHAR
STARTCHAR 2973
ENCODING 10611
SWIDTH 954 0
DWIDTH 18 0
BBX 18 19 0 -1
BITMAP
000000
004000
426000
424000
424300
42d300
429300
421000
421000
401000
203800
303800
322c00
234400
434400
808300
010300
000000
000000
ENDCHAR
STARTCHAR 2974
ENCODING 10612
SWIDTH 954 0
DWIDTH 18 0
BBX 18 19 0 -1
BITMAP
000000
100000
183000
102000
100300
305300
225200
4f1000
f31000
001000
423800
423800
422c00
424400
42c400
410300
030300
000000
000000
ENDCHAR
STARTCHAR 2975
ENCODING 10613
SWIDTH 954 0
DWIDTH 18 0
BBX 18 19 0 -1
BITMAP
000000
220000
330c00
330800
230800
435d00
4f5d00
534e00
134c00
334c00
234c00
034800
524800
f04200
c45200
0ba300
000100
000000
000000
ENDCHAR
STARTCHAR 2976
ENCODING 10614
SWIDTH 954 0
DWIDTH 18 0
BBX 18 19 0 -1
BITMAP
000000
001000
201800
101000
141000
001000
041000
44d200
449f00
0c9000
089000
209000
209000
009000
0e9000
409300
03ff00
000000
000000
ENDCHAR
STARTCHAR 2977
ENCODING 10615
SWIDTH 954 0
DWIDTH 18 0
BBX 18 19 0 -1
BITMAP
000000
001000
041a00
201100
211000
2d1000
3d1000
2d1200
4d1300
7d1300
991300
090a00
110a00
112d00
31cd00
003300
404300
000000
000000
ENDCHAR
STARTCHAR 2978
ENCODING 10616
SWIDTH 954 0
DWIDTH 18 0
BBX 18 19 0 -1
BITMAP
000000
001000
001800
fed000
20d000
2cff00
3c9000
2d1000
4e1000
7fff00
983800
103800
102400
304400
204000
408300
810300
000000
000000
ENDCHAR
STARTCHAR 2979
ENCODING 10617
SWIDTH 954 0
DWIDTH 18 0
BBX 18 19 0 -1
BITMAP
000000
040200
feff00
308200
308200
3e8200
34fe00
248800
348800
4cff00
8c8800
0c8800
088900
108d00
108500
20a300
00c300
000000
000000
ENDCHAR
STARTCHAR 297a
ENCODING 10618
SWIDTH 954 0
DWIDTH 18 0
BBX 18 19 0 -1
BITMAP
000000
044000
fe6000
20c400
20fe00
3d4400
2d4c00
4c2800
6c3000
9c4c00
08c600
0a1200
100800
300000
304000
001800
400c00
000000
000000
ENDCHAR
STARTCHAR 297b
ENCODING 10619
SWIDTH 954 0
DWIDTH 18 0
BBX 18 19 0 -1
BITMAP
000000
080000
0c0000
0ff000
103000
204400
7ffe00
300400
300400
004000
306000
224200
3f7f00
204100
204100
2c7f00
303f00
000000
000000
ENDCHAR
STARTCHAR 297c
ENCODING 10620
SWIDTH 954 0
DWIDTH 18 0
BBX 18 19 0 -1
BITMAP
000000
000000
410200
310200
210200
850200
4d0200
09fe00
092000
103000
103000
33ff00
e03000
203000
303000
303300
33ff00
000000
000000
ENDCHAR
STARTCHAR 297d
ENCODING 10621
SWIDTH 954 0
DWIDTH 18 0
BBX 18 19 0 -1
BITMAP
000000
000000
400200
32d200
22d200
82d200
42d200
42d200
12d200
32d200
22d200
22d200
c2d200
42d200
42d200
24d200
249600
000000
000000
ENDCHAR
STARTCHAR 297e
ENCODING 10622
SWIDTH 954 0
DWIDTH 18 0
BBX 18 19 0 -1
BITMAP
000000
010000
418c00
310800
210800
03ff00
830800
531800
571c00
3b2a00
232a00
234900
c34900
430800
230800
230800
230800
000000
000000
ENDCHAR
STARTCHAR 2a21
ENCODING 10785
SWIDTH 954 0
DWIDTH 18 0
BBX 18 19 0 -1
BITMAP
000000
400000
203000
202200
07ff00
882000
482300
432400
112400
302300
3fff00
205000
c0c000
408800
210c00
220600
240300
000000
000000
ENDCHAR
STARTCHAR 2a22
ENCODING 10786
SWIDTH 954 0
DWIDTH 18 0
BBX 18 19 0 -1
BITMAP
000000
000000
003000
102200
17ff00
002000
8a2400
432400
432400
132400
33fc00
202000
e34000
406000
40d000
210c00
230700
000000
000000
ENDCHAR
STARTCHAR 2a23
ENCODING 10787
SWIDTH 954 0
DWIDTH 18 0
BBX 18 19 0 -1
BITMAP
000000
000200
03ff00
102000
104000
08ac00
892400
282000
002000
103000
102000
27ff00
e02000
202000
302000
302000
302000
000000
000000
ENDCHAR
STARTCHAR 2a24
ENCODING 10788
SWIDTH 954 0
DWIDTH 18 0
BBX 18 19 0 -1
BITMAP
000000
000000
003000
112800
11a400
092200
8b2300
402000
500000
300000
203000
402300
c7ff00
40d000
208c00
230300
240300
000000
000000
ENDCHAR
STARTCHAR 2a25
ENCODING 10789
SWIDTH 954 0
DWIDTH 18 0
BBX 18 19 0 -1
BITMAP
000000
410000
218000
31ff00
030000
020200
c1ff00
413200
113200
313200
27ff00
232200
e32200
432200
23ff00
200400
203c00
000000
000000
ENDCHAR
STARTCHAR 2a26
ENCODING 10790
SWIDTH 954 0
DWIDTH 18 0
BBX 18 19 0 -1
BITMAP
000000
204800
306400
304200
304000
b44000
b44000
784600
704400
30e400
30e400
30bc00
211c00
2f3800
0a2c00
44c200
808300
000000
000000
ENDCHAR
STARTCHAR 2a27
ENCODING 10791
SWIDTH 954 0
DWIDTH 18 0
BBX 18 19 0 -1
BITMAP
000000
200000
320300
333300
333300
bf3300
fb3300
733300
733300
333300
333300
333300
233300
2b3300
0f3300
423300
802f00
000000
000000
ENDCHAR
STARTCHAR 2a28
ENCODING 10792
SWIDTH 954 0
DWIDTH 18 0
BBX 18 19 0 -1
BITMAP
000000
200600
300f00
301000
301000
b51300
fc1300
70d000
709400
301300
31ff00
301000
201000
2c1000
041000
441000
80f000
000000
000000
ENDCHAR
STARTCHAR 2a29
ENCODING 10793
SWIDTH 954 0
DWIDTH 18 0
BBX 18 19 0 -1
BITMAP
000000
010000
018800
110c00
090800
0b4000
023000
0c0c00
100300
cff800
0c1000
0ff000
0c1000
0ff000
0c1000
0c1200
7fff00
000000
000000
ENDCHAR
STARTCHAR 2a2a
ENCODING 10794
SWIDTH 954 0
DWIDTH 18 0
BBX 18 19 0 -1
BITMAP
000000
001c00
007c00
3d0400
108600
0c8800
080000
008000
108c00
108c00
108c00
108c00
108d00
100c00
100c00
100c00
103c00
000000
000000
ENDCHAR
STARTCHAR 2a2b
ENCODING 10795
SWIDTH 954 0
DWIDTH 18 0
BBX 18 19 0 -1
BITMAP
000000
040000
460300
3c1300
181200
241000
421000
009000
00d200
06d000
44d000
3cd000
189000
3c9000
353000
470f00
820700
000000
000000
ENDCHAR
STARTCHAR 2a2c
ENCODING 10796
SWIDTH 954 0
DWIDTH 18 0
BBX 18 19 0 -1
BITMAP
000000
080000
4c0300
4c2300
4c2300
4c2300
4c2300
4c4300
0cde00
4d0000
7e0300
4c8300
4c8300
4c8300
4c8300
4cff00
8c8300
000000
000000
ENDCHAR
STARTCHAR 2a2d
ENCODING 10797
SWIDTH 954 0
DWIDTH 18 0
BBX 18 19 0 -1
BITMAP
000000
084800
4c6400
4c4200
4c4100
4c4000
4c4000
4c4200
0c4200
4ce400
7ce400
4cbc00
4c1800
4d3c00
4e2400
4cc200
8c8300
000000
000000
ENDCHAR
STARTCHAR 2a2e
ENCODING 10798
SWIDTH 954 0
DWIDTH 18 0
BBX 18 19 0 -1
BITMAP
000000
108000
18c000
50c000
508300
7cb000
513000
923000
103200
1c3000
f03000
103200
103f00
103000
103000
103000
103000
000000
000000
ENDCHAR
STARTCHAR 2a2f
ENCODING 10799
SWIDTH 954 0
DWIDTH 18 0
BBX 18 19 0 -1
BITMAP
000000
000000
0c0300
480400
680400
7e3400
48f400
88b400
08b400
0eb400
f8b400
08f400
08a400
080400
080400
080400
083c00
000000
000000
ENDCHAR
STARTCHAR 2a30
ENCODING 10800
SWIDTH 954 0
DWIDTH 18 0
BBX 18 19 0 -1
BITMAP
000000
004000
036000
024200
7e7f00
024100
0e4100
403f00
000000
188000
108c00
308000
208000
ffff00
008000
008000
008000
000000
000000
ENDCHAR
STARTCHAR 2a31
ENCODING 10801
SWIDTH 954 0
DWIDTH 18 0
BBX 18 19 0 -1
BITMAP
000000
002000
8c3000
213300
303200
30f400
20b800
4bff00
983000
383800
28f400
093200
493300
0a3100
083000
183000
f03000
000000
000000
ENDCHAR
STARTCHAR 2a32
ENCODING 10802
SWIDTH 954 0
DWIDTH 18 0
BBX 18 19 0 -1
BITMAP
000000
002000
8c3000
33ff00
303000
31ff00
203200
49fe00
993000
3bff00
2a3300
082300
482700
084800
08cc00
190200
f30300
000000
000000
ENDCHAR
STARTCHAR 2a33
ENCODING 10803
SWIDTH 954 0
DWIDTH 18 0
BBX 18 19 0 -1
BITMAP
000000
000000
8c3000
33fe00
302400
302500
23ff00
482400
982400
382400
282000
09fc00
482000
082200
0bff00
182000
f02000
000000
000000
ENDCHAR
STARTCHAR 2a34
ENCODING 10804
SWIDTH 954 0
DWIDTH 18 0
BBX 18 19 0 -1
BITMAP
000000
002000
8c3000
303300
33ff00
303000
213200
493200
993200
393200
29fe00
083000
4b2000
084000
087000
188c00
f10700
000000
000000
ENDCHAR
STARTCHAR 2a35
ENCODING 10805
SWIDTH 954 0
DWIDTH 18 0
BBX 18 19 0 -1
BITMAP
000000
002000
8c3000
303000
313200
313200
213200
49fe00
993200
393200
29fe00
083300
483400
081100
083900
18c500
f10300
000000
000000
ENDCHAR
STARTCHAR 2a36
ENCODING 10806
SWIDTH 954 0
DWIDTH 18 0
BBX 18 19 0 -1
BITMAP
000000
004800
006400
fc4200
304100
304000
304000
384200
fce200
30e400
30e400
30bc00
311800
e33c00
422400
00c200
010300
000000
000000
ENDCHAR
STARTCHAR 2a37
ENCODING 10807
SWIDTH 954 0
DWIDTH 18 0
BBX 18 19 0 -1
BITMAP
000000
000000
003000
fc4000
30c200
310f00
33f300
380000
fc0800
308c00
308f00
308c00
308c00
3d0c00
f10c00
020c00
000c00
000000
000000
ENDCHAR
STARTCHAR 2a38
ENCODING 10808
SWIDTH 954 0
DWIDTH 18 0
BBX 18 19 0 -1
BITMAP
000000
000000
008300
fec300
10c300
10c300
10c300
10c300
7cc300
10c300
10c300
10c300
10c300
f0c300
40c300
00ff00
00c200
000000
000000
ENDCHAR
STARTCHAR 2a39
ENCODING 10809
SWIDTH 954 0
DWIDTH 18 0
BBX 18 19 0 -1
BITMAP
000000
030000
4f0c00
4a0800
4a0b00
4a4b00
4a4a00
4a0400
4a1400
4b1400
493400
490700
484300
50c000
524000
bf3f00
920f00
000000
000000
ENDCHAR
STARTCHAR 2a3a
ENCODING 10810
SWIDTH 954 0
DWIDTH 18 0
BBX 18 19 0 -1
BITMAP
000000
000000
0c0400
08f400
089400
089400
089400
6b9400
4a9000
4a9200
4aa200
4a2500
080d00
0a0500
080100
0fff00
0fff00
000000
000000
ENDCHAR
STARTCHAR 2a3b
ENCODING 10811
SWIDTH 954 0
DWIDTH 18 0
BBX 18 19 0 -1
BITMAP
000000
011000
ff1800
303800
303c00
3f2200
324300
32bd00
320000
2a7f00
2e0200
220400
220c00
220100
2a1100
c3ff00
43ff00
000000
000000
ENDCHAR
STARTCHAR 2a3c
ENCODING 10812
SWIDTH 954 0
DWIDTH 18 0
BBX 18 19 0 -1
BITMAP
000000
020000
ff4200
304000
304000
3f7f00
325200
325200
325400
2ac400
2ecc00
223200
232300
228000
2a0100
c3ff00
43ff00
000000
000000
ENDCHAR
STARTCHAR 2a3d
ENCODING 10813
SWIDTH 954 0
DWIDTH 18 0
BBX 18 19 0 -1
BITMAP
000000
000000
020200
342000
342000
342400
343e00
352400
ff2400
342400
345400
344400
344400
244400
244c00
04c700
44c300
000000
000000
ENDCHAR
STARTCHAR 2a3e
ENCODING 10814
SWIDTH 954 0
DWIDTH 18 0
BBX 18 19 0 -1
BITMAP
000000
100000
180200
3c2000
342000
432400
433e00
3c2400
002400
023400
7f4400
024400
044400
0c4400
0c4c00
00c700
10c300
000000
000000
ENDCHAR
STARTCHAR 2a3f
ENCODING 10815
SWIDTH 954 0
DWIDTH 18 0
BBX 18 19 0 -1
BITMAP
000000
004000
0c6000
684000
484300
7fc400
48c400
480400
890400
082c00
7e2c00
081800
081000
082c00
084400
f08300
610300
000000
000000
ENDCHAR
STARTCHAR 2a40
ENCODING 10816
SWIDTH 954 0
DWIDTH 18 0
BBX 18 19 0 -1
BITMAP
000000
002000
003000
7c3000
4cf000
4cb200
4cff00
4d3000
7d3000
4c3000
4c3000
4c3000
4c3000
483000
403000
003300
03ff00
000000
000000
ENDCHAR
STARTCHAR 2a41
ENCODING 10817
SWIDTH 954 0
DWIDTH 18 0
BBX 18 19 0 -1
BITMAP
000000
000000
003000
841300
fdff00
d40000
d44c00
d44c00
fc4c00
d44c00
d44c00
d44c00
d44c00
c4cd00
80cd00
000f00
010700
000000
000000
ENDCHAR
STARTCHAR 2a42
ENCODING 10818
SWIDTH 954 0
DWIDTH 18 0
BBX 18 19 0 -1
BITMAP
000000
000200
01ff00
fe0400
d48c00
d42000
d43000
d5ff00
d43300
d43200
d43000
d43000
d43000
d43000
fc3000
803000
00f000
000000
000000
ENDCHAR
STARTCHAR 2a43
ENCODING 10819
SWIDTH 954 0
DWIDTH 18 0
BBX 18 19 0 -1
BITMAP
000000
200400
3ffe00
308400
3ffc00
308400
3ffc00
00c000
108000
108c00
1ffc00
208000
008000
ffff00
008000
008000
008000
000000
000000
ENDCHAR
STARTCHAR 2a44
ENCODING 10820
SWIDTH 954 0
DWIDTH 18 0
BBX 18 19 0 -1
BITMAP
000000
008400
0cc600
310800
231300
310800
108c00
08c400
200000
308400
308400
308400
3ffc00
308400
308400
3ffc00
300400
000000
000000
ENDCHAR
STARTCHAR 2a45
ENCODING 10821
SWIDTH 954 0
DWIDTH 18 0
BBX 18 19 0 -1
BITMAP
000000
00c000
004000
1fff00
100000
500400
53fe00
132000
132000
122200
37ff00
507000
10f000
30b100
313100
023f00
441f00
000000
000000
ENDCHAR
STARTCHAR 2a46
ENCODING 10822
SWIDTH 954 0
DWIDTH 18 0
BBX 18 19 0 -1
BITMAP
000000
00c000
004000
1fff00
100000
503000
503200
10b200
17f000
10b800
30b800
513400
133400
323300
343300
083000
40f000
000000
000000
ENDCHAR
STARTCHAR 2a47
ENCODING 10823
SWIDTH 954 0
DWIDTH 18 0
BBX 18 19 0 -1
BITMAP
000000
004000
002000
1fff00
100000
503000
502000
10c800
108c00
13fb00
140200
d00c00
51fc00
300c00
300800
201000
001000
000000
000000
ENDCHAR
STARTCHAR 2a48
ENCODING 10824
SWIDTH 954 0
DWIDTH 18 0
BBX 18 19 0 -1
BITMAP
000000
00c000
004000
1fff00
100000
523e00
53e000
130000
130000
13ff00
131000
d31000
531000
331000
321000
041000
441000
000000
000000
ENDCHAR
STARTCHAR 2a49
ENCODING 10825
SWIDTH 954 0
DWIDTH 18 0
BBX 18 19 0 -1
BITMAP
000000
004000
002000
1fff00
100000
53ff00
530000
130400
13fe00
138400
334400
530c00
122800
302800
344c00
088300
410300
000000
000000
ENDCHAR
STARTCHAR 2a4a
ENCODING 10826
SWIDTH 954 0
DWIDTH 18 0
BBX 18 19 0 -1
BITMAP
000000
004000
002000
1fff00
900000
50c000
30cc00
10cc00
10cd00
308d00
510f00
542000
302200
202000
202000
402000
802000
000000
000000
ENDCHAR
STARTCHAR 2a4b
ENCODING 10827
SWIDTH 954 0
DWIDTH 18 0
BBX 18 19 0 -1
BITMAP
000000
008000
00c000
1fff00
120000
530200
53ff00
120400
11fe00
100c00
33fc00
d00c00
500c00
300d00
300500
000300
400300
000000
000000
ENDCHAR
STARTCHAR 2a4c
ENCODING 10828
SWIDTH 954 0
DWIDTH 18 0
BBX 18 19 0 -1
BITMAP
000000
100000
180300
309300
649300
449300
449300
449300
449300
7c8200
448000
448000
448100
448100
448100
44ff00
40ff00
000000
000000
ENDCHAR
STARTCHAR 2a4d
ENCODING 10829
SWIDTH 954 0
DWIDTH 18 0
BBX 18 19 0 -1
BITMAP
000000
030000
030000
1ffc00
100c00
100c00
1ffc00
100c00
100c00
000000
00c400
088c00
0c8800
032000
023000
080c00
300f00
000000
000000
ENDCHAR
STARTCHAR 2a4e
ENCODING 10830
SWIDTH 954 0
DWIDTH 18 0
BBX 18 19 0 -1
BITMAP
000000
100000
183000
1f3e00
102000
132200
1c3f00
00c000
208400
308400
308400
3ff800
321000
312000
30c000
031c00
4c0f00
000000
000000
ENDCHAR
STARTCHAR 2a4f
ENCODING 10831
SWIDTH 954 0
DWIDTH 18 0
BBX 18 19 0 -1
BITMAP
000000
001000
021800
2c9300
2cff00
2cd200
2cd000
2ed200
ffff00
2ce200
2ce600
2cd400
2cdc00
2c8c00
0c9400
4c2200
4d4300
000000
000000
ENDCHAR
STARTCHAR 2a50
ENCODING 10832
SWIDTH 954 0
DWIDTH 18 0
BBX 18 19 0 -1
BITMAP
000000
004000
032000
041800
0c0c00
2ff200
c30000
07f800
001000
001000
003000
002000
100c00
134c00
134c00
134f00
ffff00
000000
000000
ENDCHAR
STARTCHAR 2a51
ENCODING 10833
SWIDTH 954 0
DWIDTH 18 0
BBX 18 19 0 -1
BITMAP
000000
000000
000400
043000
043000
043300
ffff00
0c3000
083000
303000
203000
200c00
3ffc00
324c00
324c00
324d00
ffff00
000000
000000
ENDCHAR
STARTCHAR 2a52
ENCODING 10834
SWIDTH 954 0
DWIDTH 18 0
BBX 18 19 0 -1
BITMAP
000000
004000
4c2000
4c1000
4c1300
4c4000
4c4000
4c4000
4c4200
4c4200
4c4200
4c4200
4cc200
4c8200
4c8200
4b0600
423c00
000000
000000
ENDCHAR
STARTCHAR 2a53
ENCODING 10835
SWIDTH 954 0
DWIDTH 18 0
BBX 18 19 0 -1
BITMAP
000000
001200
4dfb00
4c1300
4c1300
4c1300
4cf300
4c8300
4d0300
4ffb00
4d1300
4c1300
4c1300
4c1300
4c1300
483300
41f300
000000
000000
ENDCHAR
STARTCHAR 2a54
ENCODING 10836
SWIDTH 954 0
DWIDTH 18 0
BBX 18 19 0 -1
BITMAP
000000
000000
4c0200
4ccc00
4ccc00
4ccc00
4ccc00
4ccc00
4ccf00
4ccc00
4ccc00
4ccc00
4c8c00
4c8c00
4d0c00
4b0c00
420c00
000000
000000
ENDCHAR
STARTCHAR 2a55
ENCODING 10837
SWIDTH 954 0
DWIDTH 18 0
BBX 18 19 0 -1
BITMAP
000000
000000
4c0400
4c0000
4c0000
4c0000
4c0000
4fff00
4cc800
4cc800
4cc800
4cc800
4c8900
4d0900
4d0900
4a0f00
400f00
000000
000000
ENDCHAR
STARTCHAR 2a56
ENCODING 10838
SWIDTH 954 0
DWIDTH 18 0
BBX 18 19 0 -1
BITMAP
000000
000000
4c0400
4c3000
4c3000
4c3000
4c3000
4c3200
4dff00
4c3000
4c2000
4c2800
4c4800
4cc400
4cc400
410300
430300
000000
000000
ENDCHAR
STARTCHAR 2a57
ENCODING 10839
SWIDTH 954 0
DWIDTH 18 0
BBX 18 19 0 -1
BITMAP
000000
000000
4c3000
4c2000
4c2400
4c2400
4c2400
4c2400
4c2400
4c2500
4fff00
4c4000
4c4000
4cc400
4c8200
4b0300
420100
000000
000000
ENDCHAR
STARTCHAR 2a58
ENCODING 10840
SWIDTH 954 0
DWIDTH 18 0
BBX 18 19 0 -1
BITMAP
000000
010000
898300
c91300
c91300
c91300
c95300
c91300
c91300
c91300
c91300
c91300
c91300
c9b300
c92300
c04300
809e00
000000
000000
ENDCHAR
STARTCHAR 2a59
ENCODING 10841
SWIDTH 954 0
DWIDTH 18 0
BBX 18 19 0 -1
BITMAP
000000
008200
44ff00
44c200
44c200
44c200
7cfe00
44c200
44c200
7cc200
44fe00
44c200
44c200
448200
408200
030200
021e00
000000
000000
ENDCHAR
STARTCHAR 2a5a
ENCODING 10842
SWIDTH 954 0
DWIDTH 18 0
BBX 18 19 0 -1
BITMAP
000000
000000
4cc000
4c8000
4c8300
4d4b00
4d4b00
4e4b00
4c4b00
4ccb00
4ccb00
4c1300
4d3300
4c2300
4c4300
488600
413c00
000000
000000
ENDCHAR
STARTCHAR 2a5b
ENCODING 10843
SWIDTH 954 0
DWIDTH 18 0
BBX 18 19 0 -1
BITMAP
000000
100c00
1ffc00
1ffc00
100c00
100c00
1ffc00
00c000
008c00
008000
008800
080800
041000
032000
01c000
0c1c00
380f00
000000
000000
ENDCHAR
STARTCHAR 2a5c
ENCODING 10844
SWIDTH 954 0
DWIDTH 18 0
BBX 18 19 0 -1
BITMAP
000000
040800
07fc00
07f800
340800
27f800
240800
27f800
240000
7fff00
088800
0ccc00
088800
333000
111000
0ccc00
0ccc00
000000
000000
ENDCHAR
STARTCHAR 2a5d
ENCODING 10845
SWIDTH 954 0
DWIDTH 18 0
BBX 18 19 0 -1
BITMAP
000000
000000
4c0300
4cf800
4c8800
4c8800
4c8800
4c8b00
4cff00
4c8800
4c8800
4c8800
4c8800
4c8d00
4c8500
48a300
40c300
000000
000000
ENDCHAR
STARTCHAR 2a5e
ENCODING 10846
SWIDTH 954 0
DWIDTH 18 0
BBX 18 19 0 -1
BITMAP
000000
000c00
207c00
30c000
30c400
304000
302000
341200
380f00
000200
1ffc00
100c00
1ffc00
100c00
1ffc00
100c00
1ffc00
000000
000000
ENDCHAR
STARTCHAR 2a5f
ENCODING 10847
SWIDTH 954 0
DWIDTH 18 0
BBX 18 19 0 -1
BITMAP
000000
040000
7e0c00
044c00
0c4c00
104c00
124c00
124c00
304d00
10cc00
10cc00
50cc00
50cc00
10cc00
10cc00
10ce00
73ff00
000000
000000
ENDCHAR
STARTCHAR 2a60
ENCODING 10848
SWIDTH 954 0
DWIDTH 18 0
BBX 18 19 0 -1
BITMAP
000000
048c00
7efc00
04cc00
0ccc00
10cc00
108f00
120000
310400
104400
104400
500c00
502800
103000
102800
10c600
710300
000000
000000
ENDCHAR
STARTCHAR 2a61
ENCODING 10849
SWIDTH 954 0
DWIDTH 18 0
BBX 18 19 0 -1
BITMAP
000000
041000
7e0800
046400
0c4200
108300
120100
12fe00
323000
142000
102200
500200
500200
100200
100200
100600
703c00
000000
000000
ENDCHAR
STARTCHAR 2a62
ENCODING 10850
SWIDTH 954 0
DWIDTH 18 0
BBX 18 19 0 -1
BITMAP
000000
001000
001800
fe1200
301f00
301000
301000
241200
3eff00
641000
a41000
241300
25ff00
241000
3c1000
001000
001000
000000
000000
ENDCHAR
STARTCHAR 2a63
ENCODING 10851
SWIDTH 954 0
DWIDTH 18 0
BBX 18 19 0 -1
BITMAP
000000
000000
003000
fc2000
302300
302000
302000
2c4000
3c4000
6cc800
acc800
2c9000
2c9000
2d3200
3f2300
00fb00
046200
000000
000000
ENDCHAR
STARTCHAR 2a64
ENCODING 10852
SWIDTH 954 0
DWIDTH 18 0
BBX 18 19 0 -1
BITMAP
000000
000000
00c300
fe3c00
301800
302400
304200
240000
3e0000
648200
a44400
240c00
242800
242800
3c4c00
008200
010300
000000
000000
ENDCHAR
STARTCHAR 2a65
ENCODING 10853
SWIDTH 954 0
DWIDTH 18 0
BBX 18 19 0 -1
BITMAP
000000
008000
00c000
fec000
30c300
308300
310300
2e0300
3c1300
6c0300
ac0300
2c1300
2cfb00
2c0300
3c0300
000600
003c00
000000
000000
ENDCHAR
ENDFONT
